<?xml version="1.0" encoding="UTF-8" standalone="no"?>
<!-- Generator: Adobe Illustrator 13.0.0, SVG Export Plug-In . SVG Version: 6.00 Build 14948)  -->

<svg
   xmlns:dc="http://purl.org/dc/elements/1.1/"
   xmlns:cc="http://creativecommons.org/ns#"
   xmlns:rdf="http://www.w3.org/1999/02/22-rdf-syntax-ns#"
   xmlns:svg="http://www.w3.org/2000/svg"
   xmlns="http://www.w3.org/2000/svg"
   xmlns:sodipodi="http://sodipodi.sourceforge.net/DTD/sodipodi-0.dtd"
   xmlns:inkscape="http://www.inkscape.org/namespaces/inkscape"
   version="1.1"
   id="圖層_1"
   x="0px"
   y="0px"
   width="372px"
   height="587px"
   viewBox="0 0 372 587"
   enable-background="new 0 0 372 587"
   xml:space="preserve"
   sodipodi:docname="Card template.svg"
   inkscape:version="0.92.2 5c3e80d, 2017-08-06"><metadata
     id="metadata11478"><rdf:RDF><cc:Work
         rdf:about=""><dc:format>image/svg+xml</dc:format><dc:type
           rdf:resource="http://purl.org/dc/dcmitype/StillImage" /><dc:title /></cc:Work></rdf:RDF></metadata><defs
     id="defs11476"><clipPath
       clipPathUnits="userSpaceOnUse"
       id="clipPath12055"><rect
         style="color:#000000;clip-rule:nonzero;display:inline;overflow:visible;visibility:visible;opacity:1;isolation:auto;mix-blend-mode:normal;color-interpolation:sRGB;color-interpolation-filters:linearRGB;solid-color:#000000;solid-opacity:1;vector-effect:none;fill:none;fill-opacity:1;fill-rule:nonzero;stroke:#000000;stroke-width:10;stroke-linecap:butt;stroke-linejoin:miter;stroke-miterlimit:4;stroke-dasharray:none;stroke-dashoffset:0;stroke-opacity:1;color-rendering:auto;image-rendering:auto;shape-rendering:auto;text-rendering:auto;enable-background:accumulate"
         id="rect12057"
         width="370"
         height="585"
         x="0.58999228"
         y="0.25997001"
         rx="30"
         ry="30" /></clipPath><clipPath
       clipPathUnits="userSpaceOnUse"
       id="clipPath89491"><rect
         style="color:#000000;clip-rule:nonzero;display:inline;overflow:visible;visibility:visible;opacity:1;isolation:auto;mix-blend-mode:normal;color-interpolation:sRGB;color-interpolation-filters:linearRGB;solid-color:#000000;solid-opacity:1;vector-effect:none;fill:none;fill-opacity:1;fill-rule:nonzero;stroke:#ffff00;stroke-width:10;stroke-linecap:butt;stroke-linejoin:miter;stroke-miterlimit:4;stroke-dasharray:none;stroke-dashoffset:0;stroke-opacity:1;color-rendering:auto;image-rendering:auto;shape-rendering:auto;text-rendering:auto;enable-background:accumulate"
         id="rect89493"
         width="370"
         height="585"
         x="1"
         y="1"
         rx="30"
         ry="30" /></clipPath></defs><sodipodi:namedview
     pagecolor="#ffffff"
     bordercolor="#666666"
     borderopacity="1"
     objecttolerance="10"
     gridtolerance="10"
     guidetolerance="10"
     inkscape:pageopacity="0"
     inkscape:pageshadow="2"
     inkscape:window-width="1279"
     inkscape:window-height="700"
     id="namedview11474"
     showgrid="false"
     inkscape:zoom="0.20102215"
     inkscape:cx="-480.50008"
     inkscape:cy="216.11375"
     inkscape:window-x="96"
     inkscape:window-y="78"
     inkscape:window-maximized="0"
     inkscape:current-layer="圖層_1" /><rect
     style="color:#000000;clip-rule:nonzero;display:inline;overflow:visible;visibility:visible;opacity:1;isolation:auto;mix-blend-mode:normal;color-interpolation:sRGB;color-interpolation-filters:linearRGB;solid-color:#000000;solid-opacity:1;vector-effect:none;fill:#214d68;fill-opacity:1;fill-rule:nonzero;stroke:none;stroke-width:1.50000012;stroke-linecap:butt;stroke-linejoin:miter;stroke-miterlimit:4;stroke-dasharray:none;stroke-dashoffset:0;stroke-opacity:1;color-rendering:auto;image-rendering:auto;shape-rendering:auto;text-rendering:auto;enable-background:accumulate"
     id="rect12023"
     width="370"
     height="585"
     x="-606.7785"
     y="5.5175648"
     rx="30"
     ry="30" /><g
     id="g12416"
     transform="translate(534.66861,495.97548)"><g
       clip-path="url(#clipPath12055)"
       id="g11470"><g
         id="g11468"><g
           id="g10764"><g
             id="g10762"><path
               id="path10760"
               d="M 128.537,166.388 118.575,161.738 C 113.925,159.747 110.605,158.418 107.285,159.747 105.295,159.747 101.974,161.738 97.324,164.39 L 87.363,169.708 58.808,175.02 C 55.489,176.349 58.144,178.34 65.449,183.651 L 76.736,186.31 C 82.052,188.301 86.037,189.631 87.363,191.622 L 93.339,198.263 100.645,202.913 109.942,203.574 116.583,204.903 123.224,210.215 C 125.882,212.874 130.53,214.865 135.179,215.533 140.49,216.195 145.14,214.865 151.116,210.876 L 157.093,204.903 169.709,220.175 174.359,209.553 C 167.718,202.25 164.398,196.271 161.742,191.621 L 156.428,177.01 C 153.773,171.031 151.116,167.71 148.461,166.387 147.132,166.387 143.811,166.387 138.5,166.387 H 128.537 Z"
               inkscape:connector-curvature="0"
               style="fill:#858585" /></g></g><g
           id="g10770"><g
             id="g10768"><path
               id="path10766"
               d="M 123.223,161.07 C 116.582,157.088 110.606,155.765 107.285,156.426 103.966,157.088 99.979,159.746 95.333,162.405 L 87.363,166.386 58.144,172.365 C 56.153,173.027 55.489,173.688 55.489,175.686 54.823,178.338 57.479,181.659 64.12,186.308 L 73.417,188.299 C 79.396,189.629 84.043,191.619 85.372,193.611 L 88.028,196.27 C 92.012,200.913 95.333,203.572 99.979,205.57 L 109.941,206.231 115.254,206.893 117.91,209.552 C 123.222,214.195 128.536,216.854 135.177,218.183 142.483,219.513 149.783,216.192 157.09,208.89 L 167.716,222.172 169.706,222.833 171.7,221.504 177.013,210.213 176.347,207.554 C 170.371,200.252 166.387,194.941 164.396,190.29 L 162.405,184.979 C 157.755,172.365 153.77,165.057 149.784,164.389 L 137.169,163.728 H 128.537 Z M 127.208,169.708 H 137.833 147.794 C 150.45,169.708 153.771,176.349 157.755,186.972 L 159.746,192.289 171.037,209.553 168.381,215.532 159.085,202.912 C 158.42,202.912 157.755,202.25 157.091,202.25 L 154.435,202.912 C 149.124,210.875 142.484,213.535 135.178,212.872 130.529,211.543 125.217,209.552 121.896,206.231 L 117.247,202.911 109.942,201.581 101.975,200.251 C 98.654,199.589 95.333,196.931 92.013,192.949 L 90.02,189.629 C 87.364,187.631 82.053,184.979 74.082,183.65 L 67.44,181.659 61.464,177.009 88.692,171.697 98.653,166.386 C 102.637,163.727 105.959,162.405 108.614,161.736 110.605,161.736 114.591,163.066 119.901,165.724 Z"
               inkscape:connector-curvature="0" /></g></g><g
           id="g10776"><g
             id="g10774"><path
               id="path10772"
               d="M 109.279,177.01 92.677,178.339 C 91.348,178.339 90.682,178.339 90.682,180.33 L 93.338,181.66 H 108.613 C 119.9,181.66 128.536,183.651 133.182,186.972 L 155.099,206.232 C 156.424,206.894 157.753,206.894 158.418,206.232 159.744,204.902 159.744,204.902 158.418,203.573 151.777,196.271 144.472,189.63 135.176,183.651 129.862,179.669 120.566,177.672 109.279,177.01 Z"
               inkscape:connector-curvature="0" /></g></g><g
           id="g10782"><g
             id="g10780"><path
               id="path10778"
               d="M 136.504,184.98 C 135.842,183.65 135.178,182.989 133.848,182.989 L 123.887,186.309 108.615,189.63 C 107.286,190.291 107.286,191.621 107.286,192.289 L 109.942,193.612 135.178,186.971 C 136.504,186.972 136.504,186.31 136.504,184.98 Z"
               inkscape:connector-curvature="0" /></g></g><g
           id="g10788"><g
             id="g10786"><path
               id="path10784"
               d="M 144.474,176.349 C 144.474,175.02 143.809,174.351 142.484,175.02 141.155,175.02 140.489,175.688 140.489,177.011 L 146.466,196.933 C 146.466,198.262 147.795,198.262 148.46,198.262 150.451,198.262 150.451,196.933 150.451,196.271 Z"
               inkscape:connector-curvature="0" /></g></g><g
           id="g10794"><g
             id="g10792"><path
               id="path10790"
               d="M 276.624,212.873 287.25,206.894 269.982,192.951 C 264.007,188.969 258.031,186.31 253.38,184.313 L 242.093,184.981 232.793,189.631 H 222.832 C 217.52,189.631 214.201,190.292 210.88,191.622 208.225,193.613 204.239,198.263 198.928,205.572 L 192.287,216.195 175.021,229.476 173.027,244.748 197.598,226.155 C 201.583,231.467 206.23,234.119 210.215,234.786 214.2,236.116 218.185,234.786 220.84,231.466 226.153,227.478 230.801,223.496 236.778,220.837 242.754,218.185 248.069,216.194 252.715,216.855 260.687,218.184 267.992,216.854 276.624,212.873 Z"
               inkscape:connector-curvature="0"
               style="fill:#858585" /></g></g><g
           id="g10800"><g
             id="g10798"><path
               id="path10796"
               d="M 288.579,208.891 C 289.904,207.556 289.904,206.232 289.24,204.903 284.594,200.254 279.279,195.61 271.312,190.954 265.336,186.973 260.021,183.652 254.045,181.661 250.061,180.331 244.084,181.661 237.443,184.981 L 231.466,186.31 225.49,186.972 C 219.511,186.31 214.2,186.972 210.215,189.631 204.902,192.29 198.263,200.254 190.292,214.864 L 173.69,228.145 172.364,229.475 170.37,243.418 V 244.748 L 171.035,246.078 C 172.364,247.401 173.026,247.401 174.355,246.078 L 197.597,229.476 C 202.908,234.787 207.558,238.108 212.208,238.108 216.189,238.108 219.51,236.117 223.495,233.458 227.48,229.476 232.791,225.494 237.441,222.835 243.417,220.176 248.067,219.515 252.052,219.515 260.018,221.506 267.989,220.176 277.285,216.195 Z M 252.716,186.972 C 256.701,188.301 261.352,190.292 267.327,194.274 273.968,198.262 279.279,202.251 283.265,206.232 271.977,213.535 262.016,216.193 253.381,214.864 248.07,213.535 242.094,214.864 235.453,218.184 230.139,221.504 224.163,224.825 219.513,229.475 L 212.872,232.795 C 208.226,232.795 204.24,229.475 199.591,224.825 H 196.271 L 176.348,238.107 177.677,231.466 194.28,218.184 V 217.516 C 201.586,204.902 207.561,196.271 212.873,194.273 215.532,192.95 220.179,191.621 225.493,192.289 L 232.795,191.621 239.436,189.63 C 246.076,186.31 250.062,186.31 252.716,186.972 Z"
               inkscape:connector-curvature="0" /></g></g><g
           id="g10806"><g
             id="g10804"><path
               id="path10802"
               d="M 269.982,203.573 267.992,201.582 234.124,204.902 C 228.148,205.57 220.178,209.552 210.217,215.531 L 196.271,224.824 C 194.944,226.154 194.944,226.815 196.271,228.144 H 198.929 L 211.546,219.513 C 221.507,212.872 229.474,209.552 234.124,208.222 L 267.992,206.231 Z"
               inkscape:connector-curvature="0" /></g></g><g
           id="g10812"><g
             id="g10810"><path
               id="path10808"
               d="M 222.833,198.262 H 220.178 C 214.202,202.25 210.881,208.223 208.89,216.855 208.226,218.185 208.89,219.514 210.217,219.514 L 212.872,218.184 C 214.202,210.214 217.521,204.902 222.833,201.582 Z"
               inkscape:connector-curvature="0" /></g></g><g
           id="g10818"><g
             id="g10816"><path
               id="path10814"
               d="M 256.037,192.951 C 254.71,191.621 254.046,191.621 253.381,192.289 246.74,196.271 241.429,200.253 237.444,204.902 236.779,205.57 237.444,206.232 238.109,206.893 239.434,208.223 240.099,208.223 240.763,206.893 L 254.709,195.609 Z"
               inkscape:connector-curvature="0" /></g></g><g
           id="g10824"><g
             id="g10822"><path
               id="path10820"
               d="M 297.875,267.99 H 287.25 C 285.92,267.99 283.929,269.319 282.6,271.978 L 275.958,279.28 264.672,279.942 252.056,281.271 C 246.741,285.259 242.755,290.563 239.435,296.542 226.819,305.181 220.842,315.142 221.507,325.765 222.833,331.744 224.163,335.725 227.484,339.707 L 243.421,342.366 264.009,347.677 C 267.328,349.007 269.984,351.665 270.649,355.648 L 272.64,367.599 C 273.969,370.252 277.954,372.249 284.595,373.573 L 297.212,374.241 305.182,368.929 313.15,362.288 319.79,360.959 H 326.431 C 329.086,359.629 330.416,357.638 332.408,354.318 333.073,350.998 334.402,349.006 335.728,349.006 L 342.369,350.328 C 345.689,351.664 349.01,352.988 352.33,352.988 358.309,352.988 364.95,349.006 371.591,341.036 V 289.239 L 356.98,283.26 C 350.34,279.941 346.355,277.948 343.035,277.948 339.714,277.948 337.058,279.278 334.403,281.269 L 327.097,287.91 C 325.107,291.23 322.448,291.898 319.127,291.23 L 307.839,287.91 C 305.184,286.58 303.854,284.589 303.854,283.26 L 304.519,274.629 C 304.516,271.31 302.521,269.319 297.875,267.99 Z"
               inkscape:connector-curvature="0"
               style="fill:#858585" /></g></g><g
           id="g10830"><g
             id="g10828"><path
               id="path10826"
               d="M 303.851,267.99 C 299.867,264.669 293.89,263.34 287.25,264.669 284.594,265.337 282.6,267.321 279.943,271.31 L 273.967,276.622 265.997,277.951 250.725,279.281 C 246.076,281.94 241.428,287.245 237.444,294.552 226.154,302.523 220.177,311.155 218.85,320.448 V 323.769 C 218.85,330.409 220.841,337.05 226.154,341.706 L 227.483,342.368 242.754,345.027 263.342,351 266.661,353.651 267.991,359.63 269.981,368.269 C 271.311,372.25 276.623,374.91 283.927,376.233 L 297.873,376.894 307.834,370.253 314.476,364.28 319.122,363.611 327.092,362.951 C 330.412,361.627 333.069,358.969 334.398,354.319 L 336.389,350.999 340.373,352.328 352.325,355.648 C 358.966,355.648 365.606,350.999 373.577,343.028 V 341.038 289.241 L 372.248,286.582 360.296,281.939 C 351.664,277.95 346.35,275.96 343.029,275.96 339.708,275.96 336.388,276.621 333.068,278.618 L 325.761,285.921 C 323.771,287.912 322.442,288.579 320.45,288.579 L 313.145,285.921 306.503,283.924 307.168,281.94 V 274.631 C 307.172,271.978 306.507,269.319 303.851,267.99 Z M 300.531,271.978 302.521,274.63 301.196,280.602 C 301.196,282.6 301.196,284.59 301.86,285.92 L 307.172,289.902 311.157,291.231 320.453,293.883 C 323.773,294.55 327.094,292.56 329.749,289.902 L 335.726,283.26 C 337.72,281.27 340.375,281.27 343.032,281.27 345.687,281.27 350.338,282.599 358.307,286.581 L 368.929,291.231 V 340.368 C 362.289,347.01 356.977,350.329 352.327,350.329 L 343.031,347.677 334.399,346.348 C 333.07,347.677 331.079,349.007 329.749,352.327 L 325.764,357.638 320.453,358.307 311.821,360.291 303.85,365.608 297.21,370.92 H 284.593 C 279.279,370.252 275.957,368.268 274.632,365.608 L 273.303,358.967 271.312,350.997 C 270.647,348.344 267.992,347.009 264.671,345.684 257.365,342.365 246.075,339.705 229.473,337.714 226.154,333.065 224.162,328.421 224.162,323.766 V 321.113 C 224.826,313.804 230.802,305.842 240.763,298.538 L 241.428,297.871 C 244.748,291.23 248.07,287.242 253.38,283.922 L 264.671,282.599 277.288,281.27 283.928,273.96 287.913,269.979 C 293.89,269.319 297.875,269.319 300.531,271.978 Z"
               inkscape:connector-curvature="0" /></g></g><g
           id="g10836"><g
             id="g10834"><path
               id="path10832"
               d="M 375.569,313.146 C 374.908,311.823 373.579,311.155 372.914,311.823 351.001,315.805 322.444,316.466 287.25,312.484 271.312,311.155 256.701,313.146 240.764,317.796 L 220.842,327.089 C 220.178,327.758 219.513,328.425 220.842,329.747 220.842,331.077 222.172,331.077 223.498,330.409 L 241.429,321.784 C 257.367,317.128 271.977,315.143 286.585,317.128 323.109,320.448 351.666,320.448 373.579,315.144 Z"
               inkscape:connector-curvature="0" /></g></g><g
           id="g10842"><g
             id="g10840"><path
               id="path10838"
               d="M 292.561,277.283 C 291.235,275.96 290.57,276.621 289.905,277.95 280.609,294.552 271.977,305.844 263.343,313.806 262.016,314.474 262.016,315.142 263.343,315.804 L 265.998,316.464 C 274.633,308.501 283.929,297.204 293.226,279.942 293.89,279.28 293.89,277.95 292.561,277.283 Z"
               inkscape:connector-curvature="0" /></g></g><g
           id="g10848"><g
             id="g10846"><path
               id="path10844"
               d="M 264.008,291.232 C 263.343,291.232 262.678,291.232 261.352,291.9 258.696,296.543 255.375,304.513 251.391,315.804 251.391,317.794 251.391,318.462 253.381,318.462 254.046,319.123 255.375,318.462 256.037,317.794 259.357,305.843 262.678,298.539 264.672,294.551 265.998,292.562 265.998,291.9 264.008,291.232 Z"
               inkscape:connector-curvature="0" /></g></g><g
           id="g10854"><g
             id="g10852"><path
               id="path10850"
               d="M 310.492,298.54 C 310.492,297.873 309.827,297.873 307.836,297.873 304.516,299.202 300.531,301.861 293.89,306.504 L 285.92,313.146 C 284.594,313.807 283.929,314.475 285.259,315.805 286.585,317.127 287.25,317.127 287.914,315.805 L 296.546,310.487 C 301.86,305.844 306.507,302.523 309.827,301.194 310.492,301.193 311.157,300.525 310.492,298.54 Z"
               inkscape:connector-curvature="0" /></g></g><g
           id="g10860"><g
             id="g10858"><path
               id="path10856"
               d="M 349.672,290.563 C 349.672,289.241 348.346,289.241 347.016,289.241 340.375,292.561 332.406,297.873 323.774,305.181 L 311.822,315.142 C 310.493,316.464 310.493,317.126 311.158,317.794 313.149,319.123 313.813,319.123 314.478,317.794 L 325.764,308.501 C 334.4,301.192 343.032,295.881 349.007,293.222 350.337,292.562 350.337,291.9 349.672,290.563 Z"
               inkscape:connector-curvature="0" /></g></g><g
           id="g10866"><g
             id="g10864"><path
               id="path10862"
               d="M 363.618,297.205 C 362.953,295.882 362.289,295.221 361.627,296.543 353.656,301.193 341.039,303.846 324.439,304.514 323.11,304.514 322.445,305.182 323.11,307.166 L 324.439,308.502 340.376,307.166 362.954,299.864 Z"
               inkscape:connector-curvature="0" /></g></g><g
           id="g10872"><g
             id="g10870"><path
               id="path10868"
               d="M 271.977,312.483 C 270.648,312.483 269.983,313.806 270.648,314.474 L 275.959,330.408 C 279.944,341.705 284.595,352.328 290.57,362.289 291.235,363.611 292.561,364.28 293.226,362.951 L 293.89,360.292 C 289.241,350.999 283.929,340.369 279.28,328.424 L 273.968,313.807 C 273.968,312.483 273.304,311.822 271.977,312.483 Z"
               inkscape:connector-curvature="0" /></g></g><g
           id="g10878"><g
             id="g10876"><path
               id="path10874"
               d="M 281.273,334.396 279.279,335.064 C 277.953,335.725 277.953,337.049 279.279,337.716 L 290.569,346.348 C 297.875,351.665 304.515,354.987 309.163,355.648 L 310.492,354.319 C 311.157,352.99 310.492,351.666 309.163,351.666 305.181,350.999 299.866,348.346 291.898,342.367 Z"
               inkscape:connector-curvature="0" /></g></g><g
           id="g10884"><g
             id="g10882"><path
               id="path10880"
               d="M 297.875,314.475 H 295.881 C 294.555,314.475 294.555,315.805 294.555,317.127 L 302.522,325.766 321.783,343.69 H 324.439 C 325.764,342.368 325.764,341.039 324.439,340.37 317.133,335.065 311.158,329.747 305.842,323.107 Z"
               inkscape:connector-curvature="0" /></g></g><g
           id="g10890"><g
             id="g10888"><path
               id="path10886"
               d="M 326.429,315.805 C 325.764,314.475 324.439,314.475 323.774,315.805 322.445,317.127 322.445,317.795 323.11,318.463 L 333.735,327.757 C 341.705,334.397 351.002,338.385 360.963,341.038 L 363.619,339.047 361.628,337.05 C 352.328,334.397 343.696,330.408 335.727,324.436 Z"
               inkscape:connector-curvature="0" /></g></g><g
           id="g10896"><g
             id="g10894"><path
               id="path10892"
               d="M 247.405,400.805 230.802,402.134 C 218.186,397.484 208.225,394.832 200.255,393.495 184.982,390.844 177.676,397.483 177.676,414.086 L 174.357,433.34 167.051,461.238 C 161.739,472.522 160.41,481.822 163.067,489.125 163.73,492.444 165.725,495.104 168.38,497.095 L 176.347,499.746 182.988,494.442 C 184.982,491.783 187.638,491.122 190.959,492.444 193.614,493.773 197.6,497.761 202.25,506.387 L 213.537,522.327 226.154,524.324 237.444,522.989 246.74,531.626 C 250.725,534.947 254.046,536.27 256.037,535.608 L 265.998,532.95 273.968,527.644 275.298,514.363 C 275.298,507.721 275.958,503.733 276.624,501.743 L 283.265,494.441 C 285.92,491.121 287.25,487.8 287.914,485.141 L 287.25,474.518 284.594,465.88 286.585,457.248 C 287.25,453.928 287.25,451.275 285.92,448.616 284.594,447.287 282.6,444.635 277.953,442.637 273.968,440.647 271.312,438.656 270.647,436.658 269.982,434.673 270.647,432.014 273.967,430.017 276.623,427.365 277.952,424.044 277.288,420.723 277.288,417.403 275.957,415.412 272.638,414.751 268.656,414.083 265.997,411.43 264.007,409.433 259.357,403.456 254.046,400.805 247.405,400.805 Z"
               inkscape:connector-curvature="0"
               style="fill:#858585" /></g></g><g
           id="g10902"><g
             id="g10900"><path
               id="path10898"
               d="M 239.435,398.813 230.803,400.135 219.513,396.154 200.256,390.843 C 192.949,389.513 186.973,390.174 182.988,393.494 177.676,396.815 174.357,404.123 174.357,413.416 L 171.701,433.339 164.396,460.569 C 159.084,471.86 157.754,481.821 160.411,490.453 161.74,493.772 163.73,496.426 167.052,499.085 170.372,501.743 173.693,503.066 177.014,501.743 178.343,501.743 180.998,500.414 183.654,497.761 185.648,495.103 187.639,494.442 189.63,494.442 191.624,495.764 195.609,501.083 200.921,509.708 206.233,517.685 209.553,522.99 211.547,524.325 214.867,527.645 220.843,527.645 228.15,526.309 L 236.117,525.648 242.757,530.966 249.399,536.939 256.704,538.268 261.354,536.939 C 269.321,535.609 273.97,532.951 275.96,528.307 L 277.291,514.364 C 277.291,508.385 277.955,504.403 279.281,503.067 L 283.93,497.761 C 287.915,493.106 290.571,489.124 290.571,485.142 290.571,481.161 290.571,477.172 289.242,472.522 L 287.252,465.881 288.581,460.569 C 290.571,454.596 289.906,450.608 287.916,447.288 287.252,445.297 283.931,442.638 279.281,440.647 275.96,438.656 273.305,437.327 273.305,435.335 272.64,434.673 273.305,434.006 274.634,432.015 279.28,428.034 280.61,424.045 280.61,420.724 279.945,416.075 277.291,413.415 272.64,412.093 L 265.999,407.443 C 261.353,402.132 257.367,399.473 252.057,398.15 Z M 180.334,414.086 V 414.086 C 180.334,405.454 181.663,400.136 185.647,397.483 190.959,394.163 200.919,395.492 217.521,400.804 224.163,404.123 228.148,404.792 230.802,404.792 L 240.099,404.123 H 250.725 C 254.045,404.123 258.031,406.775 261.351,410.764 264.007,414.085 267.327,416.737 271.312,417.405 L 273.967,418.074 274.632,420.725 C 275.297,423.378 273.967,425.375 271.312,428.035 267.992,430.686 267.327,434.008 267.992,437.328 268.656,439.98 271.312,441.978 277.289,445.298 280.608,447.289 283.265,447.957 283.929,449.942 284.594,451.278 284.594,453.93 283.929,458.58 L 282.6,465.883 283.929,473.854 C 285.259,478.503 285.92,481.824 285.259,484.482 284.594,487.803 283.265,490.456 279.944,493.775 L 273.968,500.417 C 273.304,503.069 272.639,507.725 272.639,514.366 L 271.313,526.311 C 269.983,528.309 266.663,530.968 260.687,531.628 L 254.71,532.952 C 253.381,533.619 250.726,531.628 246.74,527.646 L 238.109,521.005 C 236.115,519.669 232.132,519.669 227.483,521.005 L 214.866,520.337 205.569,506.388 C 199.59,496.427 194.943,491.122 191.623,489.785 187.639,487.802 183.653,489.785 179.668,494.442 L 175.687,497.094 C 174.358,497.761 171.702,496.426 169.708,494.442 L 165.062,488.463 C 163.069,481.822 164.398,473.185 169.708,461.9 171.702,457.25 174.358,447.957 177.015,434.007 Z"
               inkscape:connector-curvature="0" /></g></g><g
           id="g10908"><g
             id="g10906"><path
               id="path10904"
               d="M 191.623,396.154 188.304,396.816 C 187.639,397.483 187.639,398.151 188.969,398.813 L 205.57,416.737 C 217.522,430.686 224.828,442.638 230.139,453.929 241.429,483.145 250.726,505.064 258.032,520.336 259.358,521.004 260.022,521.665 261.352,521.004 262.678,521.004 262.678,519.668 262.016,518.345 254.046,503.067 244.749,481.16 233.459,451.939 228.813,440.648 220.842,428.035 208.89,414.085 Z"
               inkscape:connector-curvature="0" /></g></g><g
           id="g10914"><g
             id="g10912"><path
               id="path10910"
               d="M 185.647,477.841 187.638,477.173 C 193.614,457.25 200.255,437.328 207.56,416.076 228.148,416.076 246.076,420.058 260.686,427.367 261.351,428.035 262.677,427.367 263.342,426.698 264.007,424.714 264.007,424.047 262.677,424.047 252.715,418.734 240.099,414.754 226.154,413.417 L 206.231,412.095 204.24,413.417 196.27,437.328 184.318,475.844 Z"
               inkscape:connector-curvature="0" /></g></g><g
           id="g10920"><g
             id="g10918"><path
               id="path10916"
               d="M 220.178,429.357 C 218.851,428.696 217.522,429.357 217.522,430.686 217.522,431.355 217.522,432.677 218.187,433.339 L 237.445,440.648 C 251.391,446.621 262.678,451.277 271.313,455.92 272.639,456.581 273.304,456.581 273.968,454.597 274.633,453.929 273.968,453.261 273.304,451.939 L 238.774,436.66 Z"
               inkscape:connector-curvature="0" /></g></g><g
           id="g10926"><g
             id="g10924"><path
               id="path10922"
               d="M 250.726,441.979 C 250.062,441.317 248.735,441.317 247.406,441.979 246.741,443.301 246.741,443.969 247.406,444.637 L 257.367,455.259 275.959,471.862 H 278.619 C 279.944,470.532 279.28,470.532 277.954,469.203 L 260.687,452.6 Z"
               inkscape:connector-curvature="0" /></g></g><g
           id="g10932"><g
             id="g10930"><path
               id="path10928"
               d="M 237.444,463.223 C 236.115,461.901 234.788,461.901 234.124,463.892 233.459,464.559 234.124,465.882 234.788,466.543 236.115,466.543 240.1,468.54 247.405,473.853 256.037,479.825 262.677,486.465 267.327,493.107 L 270.647,493.774 C 271.312,492.445 271.312,491.784 270.647,490.455 265.998,483.814 258.031,477.174 249.396,470.532 Z"
               inkscape:connector-curvature="0" /></g></g><g
           id="g10938"><g
             id="g10936"><path
               id="path10934"
               d="M 226.154,437.328 222.833,437.996 216.192,450.609 C 211.546,460.57 208.889,471.861 207.56,483.813 207.56,484.48 207.56,485.803 209.551,486.464 L 210.88,483.813 C 212.871,472.522 215.53,461.9 220.177,451.939 L 226.154,440.648 C 226.818,439.98 226.818,438.657 226.154,437.328 Z"
               inkscape:connector-curvature="0" /></g></g><g
           id="g10944"><g
             id="g10942"><path
               id="path10940"
               d="M 216.856,457.919 C 216.192,457.25 214.866,456.582 214.202,457.25 213.537,457.25 212.872,458.579 213.537,459.903 L 216.192,471.199 C 217.521,481.161 216.856,491.783 212.872,501.744 212.872,503.067 212.872,504.403 214.202,504.403 215.531,505.064 216.856,504.403 216.856,503.067 220.841,491.783 221.506,481.161 220.841,470.531 Z"
               inkscape:connector-curvature="0" /></g></g><g
           id="g10950"><g
             id="g10948"><path
               id="path10946"
               d="M 241.429,475.182 C 240.764,475.182 240.1,475.182 239.435,477.173 L 237.445,488.463 C 236.78,497.095 236.116,504.403 236.116,509.708 L 238.11,511.044 240.1,509.708 C 240.1,504.403 240.764,497.095 241.429,488.463 L 243.42,477.841 C 244.085,476.504 243.42,475.182 241.429,475.182 Z"
               inkscape:connector-curvature="0" /></g></g><g
           id="g10956"><g
             id="g10954"><path
               id="path10952"
               d="M 147.13,57.478 109.942,38.885 132.522,70.097 C 151.78,92.01 174.358,103.301 198.265,105.291 190.294,88.69 173.028,73.418 147.13,57.478 Z"
               inkscape:connector-curvature="0"
               style="fill:#d96038" /></g></g><g
           id="g10962"><g
             id="g10960"><path
               id="path10958"
               d="M 200.92,106.621 V 103.962 C 192.288,87.36 175.023,72.088 149.784,56.154 L 110.605,36.893 C 109.941,36.893 109.279,36.893 108.614,37.555 107.285,38.216 107.285,38.885 107.949,40.214 L 130.528,72.089 C 151.114,94.002 173.692,105.292 198.264,107.283 Z M 194.279,101.972 C 175.022,99.319 157.755,90.681 141.154,76.077 131.192,66.777 122.56,56.155 115.255,43.535 154.435,61.459 180.998,80.72 194.279,101.972 Z"
               inkscape:connector-curvature="0" /></g></g><g
           id="g10968"><g
             id="g10966"><path
               id="path10964"
               d="M 169.707,56.154 147.13,38.884 154.435,67.438 C 163.731,87.36 177.677,100.642 197.6,106.621 194.943,88.022 185.647,71.42 169.707,56.154 Z"
               inkscape:connector-curvature="0"
               style="fill:#d96038" /></g></g><g
           id="g10974"><g
             id="g10972"><path
               id="path10970"
               d="M 147.794,36.894 H 145.139 L 144.474,38.885 152.444,68.768 C 161.741,89.358 177.014,102.64 196.935,108.613 H 198.929 L 200.256,105.961 C 196.935,87.361 187.639,70.098 171.701,55.487 Z M 194.279,101.972 C 179.668,96.66 167.716,86.699 159.746,72.756 154.434,63.457 151.114,53.496 149.784,43.534 174.357,60.136 188.969,79.397 194.279,101.972 Z"
               inkscape:connector-curvature="0" /></g></g><g
           id="g10980"><g
             id="g10978"><path
               id="path10976"
               d="M 208.89,99.319 C 227.484,98.651 246.077,90.681 265.998,76.077 275.298,68.768 283.265,61.46 289.24,54.157 279.279,55.487 267.992,57.478 256.701,62.127 232.794,70.097 217.521,83.379 208.89,99.319 Z"
               inkscape:connector-curvature="0"
               style="fill:#d96038" /></g></g><g
           id="g10986"><g
             id="g10984"><path
               id="path10982"
               d="M 291.234,53.496 289.24,52.166 C 277.953,53.496 266.662,55.486 254.046,60.136 230.803,68.767 214.866,80.719 206.896,97.983 V 99.98 L 208.89,101.971 C 227.484,100.641 246.741,93.339 265.998,78.728 275.958,71.419 283.929,63.456 290.569,56.153 Z M 214.202,95.999 C 220.842,84.041 232.794,74.741 249.396,67.439 260.021,62.795 270.647,59.475 283.264,57.478 260.021,80.72 237.444,93.339 214.202,95.999 Z"
               inkscape:connector-curvature="0" /></g></g><g
           id="g10992"><g
             id="g10990"><path
               id="path10988"
               d="M 222.833,60.797 C 223.498,52.166 222.833,44.195 220.842,37.555 214.202,42.204 208.226,48.178 204.24,56.815 194.279,72.088 194.279,90.019 202.91,108.612 214.866,95.331 221.507,79.397 222.833,60.797 Z"
               inkscape:connector-curvature="0"
               style="fill:#d96038" /></g></g><g
           id="g10998"><g
             id="g10996"><path
               id="path10994"
               d="M 220.842,35.564 H 219.513 C 212.872,40.214 206.896,46.855 201.585,55.486 192.288,72.088 191.623,90.019 200.256,109.942 L 202.25,111.265 204.24,109.942 C 216.856,96.66 223.498,80.059 224.827,61.46 225.492,52.167 224.827,44.196 222.833,36.894 Z M 219.513,41.537 220.178,56.154 C 220.178,74.079 214.202,90.019 203.575,103.962 200.256,96.66 198.929,90.019 198.929,82.717 198.929,66.115 205.569,52.166 219.513,41.537 Z"
               inkscape:connector-curvature="0" /></g></g><g
           id="g11004"><g
             id="g11002"><path
               id="path11000"
               d="M 214.202,95.331 C 225.492,109.942 240.099,118.574 257.366,123.224 L 280.608,125.215 C 277.289,118.574 271.312,113.263 264.007,107.284 248.734,96.66 232.133,92.678 214.202,95.331 Z"
               inkscape:connector-curvature="0"
               style="fill:#ffe000" /></g></g><g
           id="g11010"><g
             id="g11008"><path
               id="path11006"
               d="M 283.265,125.882 V 123.223 C 278.619,117.244 272.639,111.265 264.672,105.291 249.397,94.001 232.133,90.019 213.537,93.339 212.872,93.339 211.546,93.339 211.546,94.662 L 212.211,96.66 C 224.163,111.932 238.774,120.564 257.366,125.214 L 281.273,127.205 Z M 218.851,97.321 C 232.794,95.998 244.749,98.651 257.367,105.96 264.673,109.942 270.648,115.921 276.625,122.562 L 251.392,118.574 C 238.773,114.585 227.483,107.283 218.851,97.321 Z"
               inkscape:connector-curvature="0" /></g></g><g
           id="g11016"><g
             id="g11014"><path
               id="path11012"
               d="M 125.881,112.601 C 118.575,117.244 111.936,122.562 107.949,127.867 L 132.521,128.535 C 151.114,125.215 165.725,116.583 176.347,101.304 157.755,99.319 141.154,103.301 125.881,112.601 Z"
               inkscape:connector-curvature="0"
               style="fill:#d96038" /></g></g><g
           id="g11022"><g
             id="g11020"><path
               id="path11018"
               d="M 177.677,102.639 178.343,99.98 C 177.677,99.318 177.677,98.65 177.014,98.65 157.755,96.659 140.489,100.641 125.217,110.602 117.246,115.252 110.606,120.563 106.62,126.542 105.295,126.542 105.295,127.203 105.959,128.533 L 107.285,129.862 H 133.183 C 151.779,127.205 167.052,117.905 177.677,102.639 Z M 171.701,103.301 C 163.067,113.262 151.779,120.564 138.498,123.884 L 113.262,126.543 C 118.575,119.902 125.217,115.252 133.184,111.264 145.139,105.292 157.755,102.639 171.701,103.301 Z"
               inkscape:connector-curvature="0" /></g></g><g
           id="g11028"><g
             id="g11026"><path
               id="path11024"
               d="M 275.958,96.66 C 289.904,93.339 301.196,88.69 311.157,83.379 L 271.976,80.059 C 243.419,80.72 222.171,87.361 209.551,99.981 226.818,105.292 249.396,103.962 275.958,96.66 Z"
               inkscape:connector-curvature="0"
               style="fill:#ffe000" /></g></g><g
           id="g11034"><g
             id="g11032"><path
               id="path11030"
               d="M 313.813,83.379 311.822,80.72 270.648,78.061 C 242.094,78.729 220.842,85.369 207.561,98.651 L 206.896,100.642 208.226,102.639 C 226.155,108.612 248.735,106.621 275.958,99.319 289.24,95.331 301.196,90.681 312.483,85.369 Z M 214.866,99.319 C 226.154,90.02 241.429,85.369 262.015,83.379 L 303.186,84.702 C 267.327,99.98 237.444,103.962 214.866,99.319 Z"
               inkscape:connector-curvature="0" /></g></g><g
           id="g11040"><g
             id="g11038"><path
               id="path11036"
               d="M 252.056,64.118 C 257.367,55.486 261.352,46.854 264.008,39.552 256.037,42.204 247.405,46.854 239.435,53.495 222.172,66.776 212.211,82.049 209.552,99.98 226.818,94.001 240.764,82.049 252.056,64.118 Z"
               inkscape:connector-curvature="0"
               style="fill:#ffe000" /></g></g><g
           id="g11046"><g
             id="g11044"><path
               id="path11042"
               d="M 265.337,37.555 H 263.343 C 254.046,40.875 245.414,45.525 236.78,52.166 220.178,65.448 210.217,81.381 206.896,99.98 206.896,100.642 206.896,101.971 207.561,101.971 L 210.217,102.638 C 227.484,96.659 242.094,84.039 253.381,66.776 259.358,57.477 264.008,48.845 265.998,40.213 Z M 234.788,60.136 C 242.094,53.495 250.726,48.178 260.021,43.534 256.701,52.834 251.39,61.459 245.414,69.436 236.779,82.049 225.492,90.019 212.872,95.999 216.192,82.717 223.498,70.759 234.788,60.136 Z"
               inkscape:connector-curvature="0" /></g></g><g
           id="g11052"><g
             id="g11050"><path
               id="path11048"
               d="M 194.279,48.846 C 190.294,38.885 185.647,30.253 180.998,23.613 178.343,32.244 177.677,42.205 177.677,53.496 177.677,75.409 184.319,93.34 197.6,106.621 202.91,88.69 201.585,70.097 194.279,48.846 Z"
               inkscape:connector-curvature="0"
               style="fill:#ffe000" /></g></g><g
           id="g11058"><g
             id="g11056"><path
               id="path11054"
               d="M 180.334,50.836 C 180.334,43.534 180.998,36.232 181.663,29.591 192.949,48.845 198.265,66.777 198.265,84.04 201.585,73.418 200.92,62.127 196.935,49.514 L 182.989,22.283 180.335,20.954 C 179.669,21.615 178.344,21.615 178.344,22.951 176.349,32.244 175.024,42.873 175.024,54.157 176.349,76.738 182.99,94.002 196.272,107.945 196.272,108.613 196.936,108.613 197.601,108.613 L 199.592,107.283 C 201.586,99.981 201.586,92.011 198.266,84.04 L 196.272,100.642 C 184.982,87.36 180.334,70.759 180.334,50.836 Z"
               inkscape:connector-curvature="0" /></g></g><g
           id="g11064"><g
             id="g11062"><path
               id="path11060"
               d="M 131.857,76.738 H 99.979 L 130.528,96.66 C 154.434,107.944 174.357,109.942 190.959,103.301 175.687,88.69 156.426,80.059 131.857,76.738 Z"
               inkscape:connector-curvature="0"
               style="fill:#ffe000" /></g></g><g
           id="g11070"><g
             id="g11068"><path
               id="path11066"
               d="M 193.614,103.301 192.949,101.303 C 177.677,86.699 157.755,78.061 133.183,75.408 L 99.979,74.078 97.324,76.076 C 97.324,76.737 97.324,78.06 98.653,78.728 L 130.528,98.65 C 154.434,109.941 175.022,111.932 192.288,105.291 Z M 186.31,101.972 C 173.029,106.621 157.091,104.624 139.164,97.322 127.872,93.34 117.247,86.699 105.96,78.73 L 140.489,80.721 C 158.42,84.702 174.357,92.01 186.31,101.972 Z"
               inkscape:connector-curvature="0" /></g></g><g
           id="g11076"><g
             id="g11074"><path
               id="path11072"
               d="M 182.988,101.972 181.663,113.924 184.318,128.534 184.982,146.466 C 173.692,189.631 162.405,236.115 151.114,285.921 129.201,384.87 118.575,467.211 118.575,530.967 97.324,517.685 85.372,508.385 84.043,503.068 83.378,499.087 82.053,490.455 81.387,477.173 L 80.058,458.579 68.107,467.211 67.441,481.161 C 66.777,491.783 68.107,499.746 70.761,506.388 73.417,511.044 77.403,516.349 82.716,522.328 88.693,527.645 92.013,531.627 93.339,534.948 L 106.62,556.861 C 113.925,568.151 117.246,578.113 117.246,587.412 H 138.498 C 135.178,550.221 133.184,517.016 133.848,487.134 135.178,464.559 143.809,407.445 161.077,317.127 178.344,224.825 190.295,171.699 197.6,156.427 L 208.89,135.175 217.522,120.564 C 223.499,109.28 224.828,101.972 222.834,98.651 214.203,98.651 207.562,99.981 204.241,101.972 L 184.319,95.331 Z"
               inkscape:connector-curvature="0"
               style="fill:#858585" /></g></g><g
           id="g11082"><g
             id="g11080"><path
               id="path11078"
               d="M 182.988,93.339 180.998,95.33 180.334,101.303 179.007,113.924 180.998,125.882 182.988,141.815 V 146.465 L 175.022,177.009 C 159.746,237.437 147.793,288.578 139.163,331.075 123.887,407.443 116.582,473.183 115.92,526.308 97.324,514.363 88.028,506.386 87.363,501.743 86.037,498.423 85.372,490.453 84.043,477.172 L 82.053,458.578 C 82.053,457.249 82.053,456.581 80.723,456.581 H 78.732 L 66.777,465.22 65.45,467.21 64.121,481.821 C 64.121,493.105 65.45,501.082 68.107,507.721 70.761,512.366 75.412,518.344 82.053,524.986 L 90.683,536.269 97.325,547.566 C 108.615,564.169 114.592,577.45 115.256,587.411 115.256,588.733 115.921,589.395 117.247,589.395 H 138.499 C 139.825,589.395 140.489,589.395 140.489,588.733 L 141.155,586.743 C 137.17,549.551 135.842,516.347 137.17,487.133 137.17,464.558 146.466,408.112 163.732,317.794 180.336,226.153 192.951,173.027 199.592,157.749 203.576,149.785 207.562,141.815 214.203,131.854 L 219.514,121.893 C 223.499,114.584 226.156,108.612 226.156,103.3 L 224.829,97.321 222.835,96.66 204.242,99.319 184.32,93.34 H 182.988 Z M 186.31,98.651 202.911,104.624 H 204.905 C 208.226,102.639 213.538,101.972 220.843,101.972 V 101.972 C 220.843,105.96 218.852,111.933 214.867,119.903 L 209.553,129.202 C 202.911,139.825 197.601,148.456 194.945,155.097 187.64,170.369 175.688,224.157 157.757,317.127 141.156,407.444 131.86,463.892 131.86,487.134 L 131.195,501.083 C 131.195,525.648 132.524,553.54 135.18,584.092 H 119.904 C 118.578,574.131 112.602,560.85 101.977,544.248 L 95.335,534.286 85.374,521.005 C 80.06,515.687 75.413,510.376 73.419,505.065 70.763,499.747 69.438,493.107 69.438,484.481 L 70.763,468.541 77.405,463.893 C 78.734,485.144 80.725,498.425 82.055,503.069 83.38,509.71 95.335,519.671 117.248,532.953 H 119.903 L 121.233,530.969 V 528.971 C 121.233,476.506 128.539,410.767 144.475,333.731 152.445,291.235 164.398,239.438 180.335,178.342 L 187.64,146.468 V 141.818 L 186.311,125.216 184.32,113.926 Z"
               inkscape:connector-curvature="0" /></g></g><g
           id="g11088"><g
             id="g11086"><path
               id="path11084"
               d="M 51.503,401.472 C 47.519,403.456 43.533,406.116 38.887,410.765 L 30.918,416.738 22.285,415.416 C 18.965,415.416 16.309,417.406 13.65,419.397 10.995,422.056 9.668,426.699 9.004,432.017 8.339,437.329 9.004,440.649 9.668,442.639 L 16.972,448.618 C 20.956,451.939 22.951,454.597 22.285,457.919 L 16.309,470.531 C 12.324,476.504 10.33,480.492 10.33,482.483 9.668,485.142 12.324,487.801 17.635,490.454 L 30.918,493.773 C 34.237,494.442 37.558,493.106 42.207,490.454 46.193,487.802 49.513,487.134 52.169,487.802 L 60.8,489.785 68.107,486.465 75.412,477.841 C 77.403,473.853 79.396,472.523 82.054,473.185 84.044,473.185 86.7,475.182 88.694,479.164 92.014,483.814 94.006,486.466 96.661,487.135 L 108.616,486.466 118.577,477.174 C 121.897,473.186 123.889,462.563 125.219,445.961 126.544,427.368 125.883,414.087 123.225,404.794 119.904,402.135 115.922,400.137 110.608,398.152 100.647,394.833 92.015,395.493 83.38,400.805 L 71.428,398.814 C 62.794,398.813 56.153,399.475 51.503,401.472 Z"
               inkscape:connector-curvature="0"
               style="fill:#858585" /></g></g><g
           id="g11094"><g
             id="g11092"><path
               id="path11090"
               d="M 111.936,396.154 C 101.309,392.173 92.013,393.495 82.716,397.483 L 50.839,398.813 C 45.527,400.804 41.543,404.124 37.558,409.435 L 30.918,414.085 H 27.597 C 20.291,412.755 15.644,414.085 11.659,417.404 9.004,420.724 7.674,424.713 6.347,431.354 5.683,437.327 6.347,441.315 7.009,443.967 L 12.323,448.616 C 17.634,451.937 20.29,455.257 20.29,457.248 19.629,460.568 17.634,463.89 13.649,469.862 10.329,475.179 7.672,479.822 7.672,481.82 L 9.002,487.799 C 12.322,491.78 19.628,495.101 30.916,496.424 34.235,496.424 38.221,495.762 43.531,493.104 46.851,490.452 49.51,490.452 52.167,490.452 H 53.492 L 61.463,491.781 69.434,488.461 76.735,480.49 C 78.73,477.171 80.721,475.179 81.385,475.179 L 86.697,480.49 C 89.356,485.14 92.011,488.461 95.332,489.783 L 109.94,488.461 C 114.589,486.463 118.574,483.144 121.23,478.5 123.885,473.851 126.541,462.56 127.207,445.296 128.536,427.365 128.536,414.084 125.216,404.122 L 124.551,403.454 C 121.231,400.136 117.246,397.483 111.936,396.154 Z M 52.169,404.124 70.761,401.472 82.053,403.456 84.043,402.795 C 92.013,398.151 99.98,397.483 108.614,400.136 113.261,401.472 117.246,403.456 120.566,406.777 121.895,412.095 123.222,420.059 123.222,430.02 L 120.566,457.919 C 119.901,467.211 118.575,473.853 117.246,475.844 L 107.949,483.814 97.324,484.481 91.348,477.841 C 87.363,473.185 84.706,470.531 82.052,470.531 78.731,469.864 75.41,471.861 72.09,477.173 L 66.776,483.814 60.799,487.134 54.822,485.804 52.831,485.143 C 48.847,483.814 45.526,485.143 40.876,488.463 36.892,490.454 33.571,491.122 31.58,491.122 21.619,489.785 15.642,487.134 13.649,484.48 L 12.988,483.145 C 12.988,480.492 14.313,477.172 18.3,472.522 L 24.941,457.918 C 25.605,453.929 22.95,449.94 15.643,443.968 L 12.324,441.316 C 10.995,439.98 10.995,436.66 11.659,432.016 12.324,427.367 13.65,423.378 15.643,421.393 17.634,418.734 20.956,418.074 26.931,418.734 L 30.917,419.396 C 34.236,419.396 37.557,417.405 40.876,412.755 45.527,408.113 48.848,405.454 52.169,404.124 Z"
               inkscape:connector-curvature="0" /></g></g><g
           id="g11100"><g
             id="g11098"><path
               id="path11096"
               d="M 115.255,411.433 C 114.591,410.098 113.925,410.098 111.936,410.098 97.325,416.077 82.053,422.717 66.777,430.687 36.232,445.298 16.31,458.58 6.348,470.532 5.684,471.2 5.684,471.862 6.348,473.185 H 9.668 C 18.965,461.901 38.887,448.619 70.097,434.008 95.999,420.726 110.606,414.086 113.925,414.086 Z"
               inkscape:connector-curvature="0" /></g></g><g
           id="g11106"><g
             id="g11104"><path
               id="path11102"
               d="M 107.285,415.415 105.295,413.417 C 103.966,413.417 103.3,414.086 103.3,415.415 L 102.638,436.66 C 101.975,451.277 100.645,463.891 98.654,471.861 98.654,473.184 98.654,473.852 100.645,473.852 101.309,474.519 101.975,473.852 102.638,472.522 104.629,463.891 105.959,451.939 106.62,436.66 Z"
               inkscape:connector-curvature="0" /></g></g><g
           id="g11112"><g
             id="g11110"><path
               id="path11108"
               d="M 83.378,423.379 C 82.053,422.717 81.387,423.379 80.723,424.047 L 71.426,445.96 55.489,475.182 C 54.16,476.504 54.16,477.173 55.489,477.841 H 58.144 C 62.129,473.185 67.44,463.223 74.746,447.957 L 84.707,425.376 C 85.372,424.714 84.707,424.047 83.378,423.379 Z"
               inkscape:connector-curvature="0" /></g></g><g
           id="g11118"><g
             id="g11116"><path
               id="path11114"
               d="M 73.417,450.609 C 72.755,449.28 72.091,448.618 70.761,449.28 L 57.48,454.597 C 48.184,459.903 41.543,465.22 37.558,471.199 36.232,472.522 36.893,473.184 37.558,473.852 H 40.877 C 44.198,467.879 50.839,463.222 60.136,457.918 L 72.091,453.261 C 73.417,452.6 73.417,451.277 73.417,450.609 Z"
               inkscape:connector-curvature="0" /></g></g><g
           id="g11124"><g
             id="g11122"><path
               id="path11120"
               d="M 10.995,432.017 9.004,434.008 C 9.004,435.337 9.668,436.66 10.995,436.66 20.956,436.66 31.581,439.98 44.198,445.96 45.527,446.621 45.527,446.621 46.853,444.637 47.518,443.969 46.853,443.301 45.527,441.979 32.91,435.999 20.956,432.678 10.995,432.017 Z"
               inkscape:connector-curvature="0" /></g></g><g
           id="g11130"><g
             id="g11128"><path
               id="path11126"
               d="M 60.8,420.059 45.528,421.394 C 44.199,422.056 43.534,423.379 44.199,424.047 L 46.194,425.376 60.8,424.047 C 70.761,423.379 77.403,424.047 82.053,426.698 H 84.043 C 85.372,425.376 85.372,424.047 84.043,423.379 78.731,420.726 71.426,418.734 60.8,420.059 Z"
               inkscape:connector-curvature="0" /></g></g><g
           id="g11136"><g
             id="g11134"><path
               id="path11132"
               d="M 125.881,315.805 C 103.3,292.562 88.028,284.591 80.723,291.9 73.417,299.864 82.716,314.474 108.615,335.725 135.178,356.971 150.451,364.948 154.435,359.629 157.755,354.319 148.459,339.708 125.881,315.805 Z"
               inkscape:connector-curvature="0"
               style="fill:#d96038" /></g></g><g
           id="g11142"><g
             id="g11140"><path
               id="path11138"
               d="M 111.936,299.864 C 95.999,287.912 85.373,284.591 78.732,290.563 77.403,292.561 76.737,295.22 76.737,297.873 L 77.403,303.185 C 80.723,312.484 92.013,325.104 110.606,340.37 128.538,354.32 141.818,361.628 150.451,362.952 153.106,363.612 154.435,362.29 156.427,360.961 158.421,356.973 154.436,347.679 143.81,333.73 133.848,320.447 123.223,308.502 111.936,299.864 Z M 82.053,293.885 C 85.372,290.564 92.013,291.233 99.98,297.205 111.936,304.514 123.887,315.805 136.504,331.745 147.794,346.349 153.771,354.987 151.779,358.308 149.124,359.63 139.824,354.988 123.886,344.358 107.284,332.406 95.332,321.116 87.363,310.487 81.387,302.522 80.058,297.205 82.053,293.885 Z"
               inkscape:connector-curvature="0" /></g></g><g
           id="g11148"><g
             id="g11146"><path
               id="path11144"
               d="M 151.114,306.504 C 143.808,273.301 135.177,258.696 125.881,262.678 117.246,265.999 117.911,283.924 128.537,315.142 139.824,347.01 147.794,361.626 154.434,359.629 159.746,357.639 158.42,339.708 151.114,306.504 Z"
               inkscape:connector-curvature="0"
               style="fill:#ffe000" /></g></g><g
           id="g11154"><g
             id="g11152"><path
               id="path11150"
               d="M 125.217,260.02 C 121.896,261.349 119.241,265.337 118.575,271.31 116.582,281.94 120.566,298.54 128.537,321.116 136.504,342.368 143.144,355.649 149.784,360.961 151.114,361.628 153.77,362.29 155.1,361.628 159.746,360.293 161.076,348.347 157.754,327.758 154.434,309.164 151.113,293.224 145.138,279.944 139.163,264.001 131.857,257.36 125.217,260.02 Z M 122.561,275.96 C 122.561,269.319 123.887,265.999 127.208,264.669 129.201,263.339 132.521,265.999 136.504,271.978 143.145,282.601 147.794,299.864 151.779,322.444 155.1,343.689 155.763,354.987 153.105,357.638 150.45,357.638 144.473,348.345 137.833,331.744 129.862,314.473 125.217,297.872 123.223,283.923 Z"
               inkscape:connector-curvature="0" /></g></g><g
           id="g11160"><g
             id="g11158"><path
               id="path11156"
               d="M 180.998,311.154 C 191.623,277.95 191.623,260.68 180.334,259.358 168.381,258.029 160.411,274.63 153.771,307.834 147.794,341.705 147.794,358.308 154.435,359.63 161.076,360.96 169.707,344.357 180.998,311.154 Z"
               inkscape:connector-curvature="0"
               style="fill:#d96038" /></g></g><g
           id="g11166"><g
             id="g11164"><path
               id="path11162"
               d="M 188.969,263.339 C 187.639,260.019 184.319,258.028 180.998,256.699 172.366,256.037 165.06,263.339 158.42,279.942 154.435,291.9 151.114,307.166 148.459,323.768 146.465,348.345 147.794,360.959 153.771,361.626 156.426,362.288 159.085,360.291 162.406,355.647 170.373,345.685 177.014,330.407 183.654,309.824 190.959,287.912 192.949,271.978 188.969,263.339 Z M 180.334,261.349 C 184.318,262.679 186.31,265.999 186.31,273.301 V 274.631 C 186.31,287.245 181.664,304.514 173.029,325.766 164.397,345.687 157.756,356.972 154.435,357.639 151.78,355.649 151.115,345.687 153.106,328.424 154.435,310.486 158.42,294.552 163.731,281.272 168.381,267.99 174.357,261.349 180.334,261.349 Z"
               inkscape:connector-curvature="0" /></g></g><g
           id="g11172"><g
             id="g11170"><path
               id="path11168"
               d="M 210.881,266.66 C 200.92,262.678 187.639,275.96 171.037,307.834 153.77,339.708 147.794,356.972 154.434,359.63 160.411,362.289 173.692,348.346 194.279,318.463 214.866,287.912 220.842,271.31 210.881,266.66 Z"
               inkscape:connector-curvature="0"
               style="fill:#ffe000" /></g></g><g
           id="g11178"><g
             id="g11176"><path
               id="path11174"
               d="M 211.546,264.669 C 204.24,261.349 194.943,267.99 183.653,283.262 175.022,294.552 167.051,309.163 159.746,325.104 150.45,347.678 147.794,359.63 153.105,361.627 155.1,362.289 158.419,361.627 161.74,358.969 171.701,351.666 183.653,338.385 196.27,319.786 210.216,299.202 217.521,284.591 217.521,274.63 V 272.639 C 216.856,269.319 214.866,265.999 211.546,264.669 Z M 210.217,269.319 C 212.872,269.981 213.537,273.962 211.546,279.943 208.226,292.562 198.929,309.164 183.653,329.087 168.381,348.347 158.42,357.64 154.434,357.64 153.105,354.321 156.425,344.359 164.396,327.089 172.366,307.835 181.663,291.901 190.959,280.604 199.591,271.31 205.569,266.66 210.217,269.319 Z"
               inkscape:connector-curvature="0" /></g></g><g
           id="g11184"><g
             id="g11182"><path
               id="path11180"
               d="M 154.435,359.63 C 157.755,364.948 177.014,360.292 210.217,345.026 244.085,329.746 257.366,317.127 250.726,307.834 244.749,297.873 226.155,302.522 194.944,321.783 163.73,341.705 150.45,354.319 154.435,359.63 Z"
               inkscape:connector-curvature="0"
               style="fill:#d96038" /></g></g><g
           id="g11190"><g
             id="g11188"><path
               id="path11186"
               d="M 253.381,305.844 C 250.726,302.523 246.076,300.526 239.435,301.194 226.819,301.862 209.552,309.164 187.639,323.769 167.717,337.717 155.764,347.678 151.78,355.649 151.115,357.639 151.115,358.969 151.78,360.961 155.101,364.949 167.718,363.612 188.304,355.649 208.89,349.008 224.827,341.039 237.445,332.406 248.735,324.436 254.047,317.796 254.047,311.155 Z M 228.148,307.834 249.396,308.502 C 251.39,312.483 249.396,317.127 243.419,321.783 233.458,331.076 216.856,340.369 193.613,349.008 171.7,357.639 159.084,360.96 155.762,358.308 155.762,354.32 164.395,347.011 180.996,334.397 198.929,321.115 214.866,312.483 228.148,307.834 Z"
               inkscape:connector-curvature="0" /></g></g><g
           id="g11196"><g
             id="g11194"><path
               id="path11192"
               d="M 260.687,333.067 C 258.032,322.444 239.435,322.444 203.576,334.396 167.718,345.026 151.78,353.65 154.435,359.629 156.426,365.608 175.687,365.608 210.881,358.968 247.405,351.666 264.008,343.689 260.687,333.067 Z"
               inkscape:connector-curvature="0"
               style="fill:#ffe000" /></g></g><g
           id="g11202"><g
             id="g11200"><path
               id="path11198"
               d="M 263.343,332.405 C 262.016,327.757 258.696,325.103 253.381,324.435 241.429,321.783 222.833,324.435 197.6,333.728 173.693,341.705 158.42,349.007 153.771,354.987 151.78,357.638 151.115,358.968 151.78,360.96 154.435,364.948 165.061,366.933 186.31,364.28 206.232,362.951 223.498,358.968 238.11,354.319 254.711,348.345 263.343,342.367 263.343,335.064 Z M 243.42,327.757 C 252.716,327.757 257.366,330.408 258.695,333.729 260.021,337.05 256.037,341.039 248.07,345.027 236.115,351.667 217.521,356.31 193.614,358.969 171.037,361.627 158.42,361.627 156.426,358.308 157.091,354.988 167.717,349.008 188.304,341.038 210.881,333.067 228.813,328.424 243.42,327.757 Z"
               inkscape:connector-curvature="0" /></g></g><g
           id="g11208"><g
             id="g11206"><path
               id="path11204"
               d="M 198.265,392.834 C 229.474,408.774 246.741,411.433 249.397,400.805 252.716,390.844 237.445,380.214 204.905,367.6 173.029,356.31 155.764,353.651 154.435,359.63 152.443,365.609 167.052,377.562 198.265,392.834 Z"
               inkscape:connector-curvature="0"
               style="fill:#d96038" /></g></g><g
           id="g11214"><g
             id="g11212"><path
               id="path11210"
               d="M 252.056,398.813 C 252.056,391.51 244.085,384.202 229.474,375.57 217.522,369.591 204.241,364.28 188.969,360.292 L 151.78,358.969 C 151.115,360.96 152.444,364.281 156.426,367.6 164.397,376.894 179.007,385.532 198.929,395.493 220.842,406.777 236.116,410.765 244.085,408.775 248.07,407.445 250.726,405.455 251.391,401.472 Z M 156.426,360.292 C 158.42,358.308 168.381,359.63 185.648,364.28 204.241,368.929 219.513,374.909 231.468,382.873 243.42,390.175 248.071,395.492 247.406,400.805 246.741,404.124 242.756,404.793 235.454,404.124 222.834,402.134 206.232,395.492 185.648,383.534 166.388,371.588 156.426,364.28 156.426,360.292 Z"
               inkscape:connector-curvature="0" /></g></g><g
           id="g11220"><g
             id="g11218"><path
               id="path11216"
               d="M 141.154,391.511 C 137.169,413.417 139.163,424.047 147.794,424.714 155.764,425.376 161.076,414.754 163.067,393.495 164.396,370.921 162.405,360.292 156.425,358.969 150.45,358.969 145.139,369.591 141.154,391.511 Z"
               inkscape:connector-curvature="0"
               style="fill:#ffe000" /></g></g><g
           id="g11226"><g
             id="g11224"><path
               id="path11222"
               d="M 164.396,370.253 C 163.067,361.627 160.411,357.639 156.425,356.972 154.434,356.972 151.113,358.308 149.123,361.627 146.464,366.933 143.144,373.573 140.487,382.211 138.497,391.511 137.168,400.136 137.168,407.444 137.168,414.086 137.832,418.074 139.823,421.393 141.153,424.713 143.807,427.367 147.793,427.367 152.442,427.367 157.09,424.047 159.745,416.737 163.066,410.764 164.395,402.133 165.059,392.173 165.726,384.202 165.061,376.894 164.396,370.253 Z M 156.426,361.627 C 157.755,361.627 158.42,364.28 159.746,370.253 161.076,376.232 161.076,384.202 160.411,392.173 159.746,400.805 157.755,408.775 155.764,414.086 153.771,420.059 151.115,423.379 147.794,422.717 L 143.809,419.397 C 141.155,414.086 141.155,404.793 143.809,391.511 145.803,379.552 149.124,370.253 153.106,364.281 Z"
               inkscape:connector-curvature="0" /></g></g><g
           id="g11232"><g
             id="g11230"><path
               id="path11228"
               d="M 103.966,364.948 C 138.498,367.599 156.426,365.609 156.426,358.969 156.426,352.329 138.498,345.027 103.966,337.717 68.77,329.086 52.169,331.076 51.503,343.029 50.839,354.319 68.77,361.627 103.966,364.948 Z"
               inkscape:connector-curvature="0"
               style="fill:#ffe000" /></g></g><g
           id="g11238"><g
             id="g11236"><path
               id="path11234"
               d="M 158.42,358.969 C 158.42,356.972 156.426,354.32 151.779,351.666 140.488,345.026 124.551,339.047 103.3,334.396 78.732,329.085 63.456,329.085 54.823,333.728 50.839,335.725 48.847,338.384 48.847,343.028 48.847,350.999 57.479,357.638 74.081,362.289 L 119.9,367.6 C 145.139,368.269 158.42,365.609 158.42,358.969 Z M 124.552,363.611 C 105.295,363.611 88.029,361.627 74.082,357.638 60.135,353.649 53.494,348.345 54.16,343.028 54.16,339.047 57.479,337.049 64.12,335.725 77.402,334.396 95.333,337.049 118.575,343.689 141.154,350.33 153.105,355.648 154.434,358.968 152.443,361.627 142.483,363.611 124.552,363.611 Z"
               inkscape:connector-curvature="0" /></g></g><g
           id="g11244"><g
             id="g11242"><path
               id="path11240"
               d="M 156.426,358.969 C 161.076,355.649 157.755,341.705 145.139,318.463 133.184,295.221 122.561,285.921 113.925,291.233 105.295,295.882 109.279,309.164 125.217,331.746 140.488,354.319 151.114,362.951 156.426,358.969 Z"
               inkscape:connector-curvature="0"
               style="fill:#ffe000" /></g></g><g
           id="g11250"><g
             id="g11248"><path
               id="path11246"
               d="M 141.154,307.166 C 130.528,290.563 121.231,284.591 113.261,288.579 109.941,291.232 107.948,294.552 107.948,298.54 V 299.202 C 108.613,308.502 113.924,320.447 124.551,334.396 135.177,348.345 143.808,357.638 151.114,360.959 H 157.755 C 161.076,358.307 161.076,350.998 156.426,337.716 152.443,327.088 147.794,316.465 141.154,307.166 Z M 115.255,292.562 C 120.567,289.904 127.871,295.221 137.169,308.502 143.145,317.795 148.459,328.424 152.443,339.708 156.425,350.33 157.09,355.648 155.1,357.639 153.105,358.308 147.129,354.32 138.497,344.358 129.2,334.397 121.894,324.436 117.245,313.807 111.936,302.522 111.271,295.221 115.255,292.562 Z"
               inkscape:connector-curvature="0" /></g></g><g
           id="g11256"><g
             id="g11254"><path
               id="path11252"
               d="M 156.426,358.969 C 161.076,362.951 174.358,354.32 196.935,331.745 219.513,309.163 227.484,295.221 220.842,290.563 214.866,284.59 200.92,294.551 180.998,317.794 159.746,341.705 151.779,355.648 156.426,358.969 Z"
               inkscape:connector-curvature="0"
               style="fill:#ffe000" /></g></g><g
           id="g11262"><g
             id="g11260"><path
               id="path11258"
               d="M 222.833,287.912 C 217.521,284.591 210.217,287.244 198.265,297.205 190.959,302.522 183.654,310.486 176.348,319.786 L 160.411,341.038 C 153.77,351.666 151.779,358.308 154.434,360.96 H 161.74 C 171.037,357.639 182.988,348.346 198.264,333.729 214.866,317.795 223.497,305.182 224.827,296.543 L 225.492,294.552 C 225.492,291.232 224.163,289.241 222.833,287.912 Z M 220.178,291.9 C 221.507,293.884 220.842,297.873 217.522,303.845 210.881,314.474 200.256,327.087 184.319,340.368 170.373,353.649 161.077,358.968 157.756,357.638 156.427,354.319 161.077,346.348 171.702,332.405 182.989,317.795 194.28,305.843 204.241,297.873 212.211,291.9 217.521,289.903 220.178,291.9 Z"
               inkscape:connector-curvature="0" /></g></g><g
           id="g11268"><g
             id="g11266"><path
               id="path11264"
               d="M 204.24,373.573 C 234.788,375.57 250.061,371.588 249.396,361.627 248.734,350.999 232.793,347.011 201.584,347.678 171.036,349.008 155.763,352.991 156.425,358.969 157.091,365.609 173.028,370.253 204.24,373.573 Z"
               inkscape:connector-curvature="0"
               style="fill:#ffe000" /></g></g><g
           id="g11274"><g
             id="g11272"><path
               id="path11270"
               d="M 251.391,361.627 C 251.391,357.639 248.735,353.65 243.42,350.999 233.459,345.686 217.522,344.357 196.935,345.686 177.014,347.01 163.731,350.33 157.091,354.319 154.435,355.648 153.771,357.638 154.435,359.63 154.435,364.28 164.397,368.269 182.328,372.25 L 228.149,375.57 C 244.086,374.241 252.056,370.253 252.056,362.289 Z M 247.405,361.627 C 247.405,365.609 243.42,368.269 234.788,370.253 L 187.639,368.269 C 169.707,364.949 159.746,361.627 158.42,358.969 159.746,356.972 167.717,354.32 182.988,351.666 198.928,349.669 213.537,349.669 226.818,350.999 240.1,352.99 247.405,356.972 247.405,361.627 Z"
               inkscape:connector-curvature="0" /></g></g><g
           id="g11280"><g
             id="g11278"><path
               id="path11276"
               d="M 180.334,406.115 C 200.92,432.016 215.531,441.316 224.827,433.34 234.124,424.714 226.154,408.775 200.92,386.194 176.348,363.612 161.076,354.32 156.426,358.969 151.114,364.28 159.746,380.214 180.334,406.115 Z"
               inkscape:connector-curvature="0"
               style="fill:#ffe000" /></g></g><g
           id="g11286"><g
             id="g11284"><path
               id="path11282"
               d="M 161.74,356.972 154.434,357.639 C 151.114,360.96 154.434,370.253 163.067,384.87 171.037,398.151 179.668,410.098 189.629,420.725 205.569,437.328 217.522,441.978 226.154,434.674 229.473,432.016 230.802,428.695 230.802,425.375 L 230.138,421.393 C 227.483,410.764 217.521,397.483 200.255,382.21 183.653,367.6 171.037,358.969 161.74,356.972 Z M 157.755,360.96 C 161.076,359.63 171.037,364.28 185.648,376.232 201.586,388.19 213.538,400.804 220.842,412.094 226.155,420.725 227.484,427.366 223.498,431.355 218.851,435.336 211.546,434.007 202.25,426.038 190.959,417.405 180.998,404.793 170.372,388.19 161.076,372.912 156.426,364.28 157.755,360.96 Z"
               inkscape:connector-curvature="0" /></g></g><g
           id="g11292"><g
             id="g11290"><path
               id="path11288"
               d="M 137.169,406.776 C 130.528,438.657 130.528,455.258 139.163,456.582 147.794,457.25 153.77,440.648 157.755,408.113 162.405,376.232 161.076,359.63 155.101,358.968 149.784,358.308 143.145,374.241 137.169,406.776 Z"
               inkscape:connector-curvature="0"
               style="fill:#d96038" /></g></g><g
           id="g11298"><g
             id="g11296"><path
               id="path11294"
               d="M 138.498,458.579 C 146.465,459.241 151.779,449.28 157.091,428.035 160.411,414.086 161.74,402.795 161.74,394.832 163.73,370.253 161.74,356.972 155.763,356.972 153.77,356.972 151.114,357.639 149.784,360.96 145.138,367.6 140.488,378.892 137.169,395.492 132.522,412.095 130.528,426.698 130.528,438.657 130.528,445.298 131.192,450.609 133.183,453.929 Z M 155.101,360.96 C 157.755,362.951 158.42,373.573 157.755,391.511 156.426,410.765 153.106,426.699 148.459,439.981 145.803,449.942 142.483,453.93 139.824,453.93 137.169,453.93 135.842,450.61 135.178,443.969 133.848,432.017 136.504,415.415 141.818,394.163 147.794,372.912 151.779,362.289 155.101,360.96 Z"
               inkscape:connector-curvature="0" /></g></g><g
           id="g11304"><g
             id="g11302"><path
               id="path11300"
               d="M 103.966,392.173 C 74.082,418.735 63.456,434.675 70.761,440.649 78.732,447.29 95.999,436 123.223,407.445 149.785,378.892 160.411,362.952 155.101,358.969 150.45,354.987 133.184,366.271 103.966,392.173 Z"
               inkscape:connector-curvature="0"
               style="fill:#d96038" /></g></g><g
           id="g11310"><g
             id="g11308"><path
               id="path11306"
               d="M 141.154,390.175 C 156.425,370.921 161.74,360.292 157.091,357.639 153.106,354.32 140.488,360.292 120.567,375.571 100.645,390.844 86.699,404.125 76.077,417.406 70.098,425.377 66.777,431.356 66.777,436.661 66.777,439.32 67.441,441.317 69.436,443.302 74.082,446.622 80.723,443.97 90.02,434.009 80.723,439.982 75.412,441.318 72.091,439.321 70.761,437.33 70.761,434.009 73.417,430.021 80.058,417.407 94.004,402.796 116.582,384.872 137.833,367.601 150.45,360.294 154.435,360.962 155.101,364.282 148.459,374.911 133.848,392.175 117.911,411.435 103.3,424.716 90.02,434.01 95.333,434.01 100.645,431.358 105.959,427.369 118.575,416.737 130.528,404.124 141.154,390.175 Z"
               inkscape:connector-curvature="0" /></g></g><g
           id="g11316"><g
             id="g11314"><path
               id="path11312"
               d="M 119.241,401.472 C 100.644,432.017 96.659,448.618 106.62,452.6 115.92,456.582 128.537,441.979 143.144,410.765 157.09,378.23 161.076,360.96 155.1,358.969 149.784,356.972 137.169,370.921 119.241,401.472 Z"
               inkscape:connector-curvature="0"
               style="fill:#ffe000" /></g></g><g
           id="g11322"><g
             id="g11320"><path
               id="path11318"
               d="M 156.426,356.972 C 154.435,355.649 151.114,356.972 147.794,360.292 139.163,367.6 129.201,380.214 117.911,398.813 105.295,418.734 99.979,434.007 99.979,443.968 V 447.288 C 100.644,451.276 102.637,453.929 105.294,454.597 113.261,457.249 121.895,451.277 131.191,436.659 138.497,425.375 145.137,411.431 151.113,395.491 160.411,371.588 161.74,358.969 156.426,356.972 Z M 154.435,360.96 C 157.091,363.611 154.435,374.241 147.794,391.511 141.154,410.765 133.848,425.376 125.217,437.328 117.246,447.957 111.271,451.939 107.285,450.609 103.966,449.28 103.3,445.297 104.629,438.657 107.285,426.038 115.255,410.097 129.862,389.513 142.483,370.921 151.114,360.96 154.435,360.96 Z"
               inkscape:connector-curvature="0" /></g></g><g
           id="g11328"><g
             id="g11326"><path
               id="path11324"
               d="M 95.999,358.308 C 57.479,364.281 40.214,372.25 43.533,382.211 46.193,392.834 66.776,392.834 103.966,382.873 141.154,372.912 158.42,364.948 156.426,358.969 153.771,352.328 133.848,352.328 95.999,358.308 Z"
               inkscape:connector-curvature="0"
               style="fill:#d96038" /></g></g><g
           id="g11334"><g
             id="g11332"><path
               id="path11330"
               d="M 157.091,362.951 C 158.42,360.96 158.42,359.63 158.42,357.638 157.091,352.99 143.809,351.665 119.901,353.65 96.659,354.987 77.402,358.307 62.794,363.611 45.527,368.929 38.887,375.57 40.877,383.534 42.207,387.522 45.527,390.175 52.169,390.844 64.12,394.163 83.378,390.844 110.606,383.534 135.842,376.232 151.114,368.93 157.091,362.951 Z M 45.527,381.55 C 44.198,378.23 47.518,375.571 53.494,372.25 65.449,366.271 85.372,361.627 111.935,358.308 L 154.434,359.63 C 153.105,363.611 141.154,368.269 119.901,375.57 96.659,383.534 77.402,387.522 62.13,387.522 52.169,387.522 46.854,385.531 45.527,381.55 Z"
               inkscape:connector-curvature="0" /></g></g><g
           id="g11340"><g
             id="g11338"><path
               id="path11336"
               d="M 101.975,373.573 C 70.097,388.19 56.815,400.136 62.794,408.113 68.77,416.737 86.698,411.432 117.246,394.163 147.13,375.57 159.746,364.28 156.426,358.969 151.779,353.65 133.848,358.308 101.975,373.573 Z"
               inkscape:connector-curvature="0"
               style="fill:#ffe000" /></g></g><g
           id="g11346"><g
             id="g11344"><path
               id="path11342"
               d="M 157.755,357.639 C 156.426,355.649 153.771,354.988 148.459,354.988 136.504,356.972 120.566,362.29 99.318,371.589 77.402,382.212 64.12,391.512 60.135,400.137 58.808,404.125 58.808,406.778 60.799,409.437 L 94.003,408.115 C 107.284,402.797 120.566,394.834 135.177,384.204 153.771,370.921 161.076,361.627 157.755,357.639 Z M 64.12,406.776 V 404.124 C 64.12,402.134 65.449,399.475 68.769,396.154 77.402,387.522 94.003,378.229 117.246,369.591 138.498,360.96 151.114,357.639 154.434,360.292 154.434,363.611 147.129,370.253 131.857,380.882 115.254,392.834 100.644,400.805 87.363,406.115 Z"
               inkscape:connector-curvature="0" /></g></g><g
           id="g11352"><g
             id="g11350"><path
               id="path11348"
               d="M 150.45,413.417 C 153.105,447.957 159.746,464.559 171.037,463.892 181.663,463.223 183.653,444.637 176.348,410.098 169.707,374.91 162.406,357.639 156.426,358.969 149.784,360.292 147.794,378.229 150.45,413.417 Z"
               inkscape:connector-curvature="0"
               style="fill:#ffe000" /></g></g><g
           id="g11358"><g
             id="g11356"><path
               id="path11354"
               d="M 161.076,360.292 C 159.746,357.639 157.755,356.972 155.763,356.972 151.114,357.639 148.458,366.933 147.793,384.202 147.129,398.151 147.793,413.417 149.783,427.367 153.769,453.93 160.41,467.211 171.036,466.543 175.021,465.882 177.676,463.223 179.667,458.579 184.317,449.28 183.652,431.355 177.676,406.115 173.028,382.211 167.717,367.6 161.076,360.292 Z M 157.091,360.96 C 160.411,362.289 164.397,373.573 170.372,394.163 176.348,417.405 178.343,434.675 177.677,448.618 177.014,457.25 174.358,461.238 170.372,461.238 165.726,461.9 161.74,456.582 158.42,445.96 154.435,432.017 151.779,414.754 151.779,394.163 151.779,374.241 153.771,363.611 157.091,360.96 Z"
               inkscape:connector-curvature="0" /></g></g><g
           id="g11364"><g
             id="g11362"><path
               id="path11360"
               d="M 179.668,378.892 C 196.271,385.532 205.569,385.532 207.561,377.562 210.217,369.591 202.911,362.952 184.983,357.639 167.717,352.991 157.755,353.651 156.426,358.969 154.435,364.948 162.405,371.588 179.668,378.892 Z"
               inkscape:connector-curvature="0"
               style="fill:#ffe000" /></g></g><g
           id="g11370"><g
             id="g11368"><path
               id="path11366"
               d="M 210.217,378.229 210.881,374.909 C 210.881,367.599 202.91,360.96 186.31,355.648 L 167.052,352.99 C 159.746,353.65 155.101,354.987 154.435,358.307 153.771,361.626 154.435,364.28 157.755,367.599 162.405,372.912 169.707,377.561 178.343,380.881 188.304,384.869 196.935,386.855 202.25,384.869 206.896,384.202 209.552,381.55 210.217,378.229 Z M 161.076,364.948 158.42,360.292 C 159.085,358.308 161.74,357.639 167.052,357.639 L 184.983,360.96 C 190.96,362.289 196.935,364.28 200.256,367.6 204.24,370.921 206.896,374.242 205.569,376.894 L 200.92,380.882 C 196.271,381.55 189.629,380.882 180.998,376.894 172.366,373.573 165.726,368.93 161.076,364.948 Z"
               inkscape:connector-curvature="0" /></g></g><g
           id="g11376"><g
             id="g11374"><path
               id="path11372"
               d="M 133.184,377.562 C 121.896,392.173 120.567,401.472 127.871,405.455 135.178,410.099 143.144,404.125 151.779,387.523 160.411,371.588 161.74,362.29 156.425,358.969 151.114,356.972 143.145,362.289 133.184,377.562 Z"
               inkscape:connector-curvature="0"
               style="fill:#ffe000" /></g></g><g
           id="g11382"><g
             id="g11380"><path
               id="path11378"
               d="M 157.755,357.639 C 155.101,355.649 151.779,356.972 147.794,358.969 141.817,362.289 136.504,368.269 130.528,376.233 124.551,384.871 121.895,392.173 121.895,398.152 V 398.814 C 121.895,402.795 123.222,405.455 127.208,408.114 131.192,410.765 135.842,409.436 141.154,404.794 145.138,401.473 149.784,396.155 153.77,388.854 L 160.411,370.922 C 161.74,363.611 161.076,358.969 157.755,357.639 Z M 155.101,360.96 C 157.091,361.627 157.091,364.28 156.426,369.591 L 149.784,386.856 C 141.817,400.805 135.178,406.777 128.537,404.125 127.208,402.796 126.542,400.806 126.542,398.814 125.881,394.164 128.537,387.523 133.848,379.552 139.825,371.588 144.474,366.271 150.451,362.951 152.443,360.96 154.435,360.96 155.101,360.96 Z"
               inkscape:connector-curvature="0" /></g></g><g
           id="g11388"><g
             id="g11386"><path
               id="path11384"
               d="M 159.746,358.969 C 165.06,360.96 173.028,352.328 180.998,334.397 189.629,315.805 189.629,305.182 181.663,302.523 173.692,300.526 167.052,308.502 160.411,327.757 154.435,347.011 154.435,357.639 159.746,358.969 Z"
               inkscape:connector-curvature="0"
               style="fill:#d96038" /></g></g><g
           id="g11394"><g
             id="g11392"><path
               id="path11390"
               d="M 180.998,304.514 184.318,309.163 C 184.982,314.475 183.653,322.444 179.006,333.067 174.357,343.028 169.706,350.33 164.396,354.319 L 161.076,356.971 C 159.746,356.309 158.42,353.65 159.085,347.677 159.085,341.704 160.411,335.064 163.067,327.756 164.396,322.443 167.051,318.462 169.046,314.474 164.396,315.804 161.075,319.786 158.419,325.765 156.425,333.728 154.434,341.037 154.434,347.677 154.434,355.648 155.1,360.291 159.084,360.959 161.739,361.626 164.396,360.959 167.716,358.307 173.028,354.319 177.676,347.01 181.662,337.716 186.972,327.756 189.628,319.123 189.628,312.483 L 188.968,308.502 C 188.303,304.514 186.309,301.861 182.326,300.525 178.342,299.202 176.347,301.861 175.021,307.834 177.014,305.182 179.007,304.514 180.998,304.514 Z"
               inkscape:connector-curvature="0" /></g></g><g
           id="g11400"><g
             id="g11398"><path
               id="path11396"
               d="M 159.746,358.969 C 165.725,357.639 167.052,345.687 162.405,324.436 157.755,302.523 151.779,292.562 143.808,294.552 135.841,296.543 135.177,307.834 141.154,329.086 147.794,350.999 154.435,360.96 159.746,358.969 Z"
               inkscape:connector-curvature="0"
               style="fill:#ffe000" /></g></g><g
           id="g11406"><g
             id="g11404"><path
               id="path11402"
               d="M 153.105,295.882 C 150.45,292.562 147.129,291.233 143.808,291.901 137.832,293.885 135.177,298.541 135.177,307.835 135.177,311.823 136.503,317.796 137.832,324.437 140.487,334.398 143.808,342.369 147.793,350.332 151.778,358.31 156.425,362.291 160.41,360.962 163.066,360.962 164.395,358.31 165.059,354.989 167.715,348.347 167.05,338.386 164.395,325.105 161.74,311.154 157.755,301.193 153.105,295.882 Z M 144.474,297.205 C 146.465,295.882 147.794,297.205 149.785,298.54 154.435,303.846 157.756,312.483 160.412,325.766 162.406,337.717 163.068,347.678 161.077,354.32 L 159.747,356.972 C 157.756,357.639 155.101,354.32 151.115,347.678 147.795,341.038 144.474,332.406 141.818,323.769 140.489,315.805 139.825,309.826 140.489,305.182 140.488,300.525 141.817,297.873 144.474,297.205 Z"
               inkscape:connector-curvature="0" /></g></g><g
           id="g11412"><g
             id="g11410"><path
               id="path11408"
               d="M 207.561,330.408 C 202.911,323.768 192.95,325.103 177.677,335.725 163.068,345.686 157.091,354.319 159.746,358.968 163.067,364.28 173.028,362.288 189.629,353.65 205.569,345.026 211.546,337.717 207.561,330.408 Z"
               inkscape:connector-curvature="0"
               style="fill:#ffe000" /></g></g><g
           id="g11418"><g
             id="g11416"><path
               id="path11414"
               d="M 210.881,334.396 208.89,329.085 C 206.896,325.103 202.911,324.435 197.6,324.435 192.288,325.103 186.31,327.756 179.668,331.745 172.366,336.388 167.052,341.038 162.405,346.349 157.091,352.328 155.1,356.972 157.755,360.292 159.746,362.289 162.405,363.611 167.052,363.611 173.693,363.611 180.998,360.96 190.294,355.648 200.256,350.999 206.232,345.686 209.552,340.369 Z M 181.663,335.726 C 194.279,327.757 201.585,327.088 204.904,331.746 206.231,333.729 206.231,335.726 204.904,337.718 202.91,342.368 196.934,347.012 188.303,351.667 179.667,355.649 172.365,358.309 166.387,358.97 L 161.74,357.64 C 161.076,356.973 162.405,353.652 166.387,349.009 Z"
               inkscape:connector-curvature="0" /></g></g><g
           id="g11424"><g
             id="g11422"><path
               id="path11420"
               d="M 165.061,398.813 C 174.358,422.055 182.989,432.016 190.959,428.696 199.591,424.714 197.6,411.432 186.31,388.852 174.358,365.609 165.061,355.648 159.747,358.307 154.435,361.627 156.426,374.909 165.061,398.813 Z"
               inkscape:connector-curvature="0"
               style="fill:#d96038" /></g></g><g
           id="g11430"><g
             id="g11428"><path
               id="path11426"
               d="M 165.726,357.639 C 163.068,355.649 161.077,355.649 158.42,356.972 154.435,358.969 154.435,366.271 157.091,378.892 159.085,390.175 163.068,400.136 167.717,410.098 176.348,427.368 184.319,434.008 192.288,430.687 196.27,429.358 197.6,426.039 198.265,420.726 V 419.397 C 198.265,410.765 194.28,398.814 186.31,384.871 178.343,370.921 171.701,361.627 165.726,357.639 Z M 161.076,376.894 C 159.085,366.933 159.085,361.627 161.076,360.96 162.405,360.292 166.388,364.28 172.366,371.588 178.343,380.214 184.318,390.175 188.304,400.136 194.944,415.415 195.609,424.047 190.294,426.699 184.982,428.697 178.343,422.718 171.701,407.445 167.052,397.483 163.067,387.522 161.076,376.894 Z"
               inkscape:connector-curvature="0" /></g></g><g
           id="g11436"><g
             id="g11434"><path
               id="path11432"
               d="M 125.881,360.96 C 105.959,368.269 97.989,374.909 101.975,382.873 105.295,390.844 116.582,389.514 135.178,380.882 154.435,371.588 162.406,364.28 159.746,358.969 157.091,353.65 145.803,354.319 125.881,360.96 Z"
               inkscape:connector-curvature="0"
               style="fill:#d96038" /></g></g><g
           id="g11442"><g
             id="g11440"><path
               id="path11438"
               d="M 161.74,357.639 C 161.076,355.649 157.755,354.32 153.77,354.32 145.802,353.651 136.503,354.988 124.551,358.969 111.935,363.612 103.965,368.269 100.644,374.241 99.318,375.57 98.653,377.561 98.653,380.214 98.653,381.55 98.653,382.873 99.979,384.202 101.974,388.19 107.285,390.844 114.59,389.514 121.231,388.853 128.536,386.856 137.168,382.211 L 155.1,370.921 C 161.076,365.609 163.73,361.627 161.74,357.639 Z M 153.105,358.308 157.754,360.292 153.105,366.933 C 148.459,370.921 142.483,374.242 135.177,377.562 127.207,381.55 120.566,384.203 114.59,384.871 108.613,385.532 105.294,384.871 103.965,381.551 103.299,380.215 103.299,378.231 103.965,376.895 107.284,372.251 115.254,367.601 125.88,364.282 137.169,360.292 146.465,358.308 153.105,358.308 Z"
               inkscape:connector-curvature="0" /></g></g><g
           id="g11448"><g
             id="g11446"><path
               id="path11444"
               d="M 131.857,333.729 C 110.605,321.784 98.653,320.448 95.333,327.757 92.013,335.065 101.975,344.358 123.887,353.651 145.139,362.952 157.755,364.281 159.746,358.969 161.74,353.65 153.105,345.026 131.857,333.729 Z"
               inkscape:connector-curvature="0"
               style="fill:#ffe000" /></g></g><g
           id="g11454"><g
             id="g11452"><path
               id="path11450"
               d="M 146.465,362.951 C 155.101,364.28 160.411,363.611 161.74,360.292 163.067,357.639 161.74,354.987 159.746,351.666 154.434,345.026 145.139,338.385 132.521,331.076 118.575,324.435 108.614,321.115 100.644,321.783 96.659,322.444 94.003,324.435 93.338,327.088 L 92.677,330.408 C 92.677,335.064 97.323,341.038 105.294,346.348 L 123.886,355.648 Z M 156.426,354.319 157.755,358.307 H 148.459 L 125.217,351.665 C 116.582,347.677 108.614,343.688 103.966,339.046 98.653,335.064 96.659,331.744 97.324,328.423 97.989,327.756 99.318,326.426 101.974,325.765 107.949,325.103 117.911,328.423 130.528,335.725 143.145,342.367 151.114,348.346 156.426,354.319 Z"
               inkscape:connector-curvature="0" /></g></g><g
           id="g11460"><g
             id="g11458"><path
               id="path11456"
               d="M 173.028,352.99 C 171.037,350.33 169.047,348.345 165.725,347.677 L 155.1,349.007 C 151.114,350.998 149.123,352.989 147.793,355.648 145.802,358.968 145.802,361.627 147.129,364.948 147.793,367.599 150.449,369.591 154.434,370.253 L 164.396,368.93 C 167.716,367.6 171.037,364.949 172.366,361.627 174.357,358.969 174.357,355.648 173.028,352.99 Z"
               inkscape:connector-curvature="0"
               style="fill:#ffe000" /></g></g><g
           id="g11466"><g
             id="g11464"><path
               id="path11462"
               d="M 166.388,345.687 154.435,347.011 C 149.124,349.008 146.465,352.328 144.474,356.972 143.809,360.292 143.809,363.612 144.474,365.61 146.465,368.93 148.459,370.922 151.78,372.251 L 165.061,370.922 C 170.373,368.931 173.693,365.61 175.023,360.961 176.348,358.309 176.348,354.988 174.358,352.329 173.028,348.346 170.372,347.011 166.388,345.687 Z M 149.124,358.308 C 150.45,354.988 152.443,352.329 156.426,350.999 L 165.061,350.33 C 167.717,350.33 169.707,351.666 171.038,354.319 V 356.971 360.291 C 169.708,363.61 167.053,365.608 163.731,366.932 L 153.771,367.599 C 151.115,367.599 150.451,365.609 149.125,364.28 147.794,362.289 147.794,360.292 149.124,358.308 Z"
               inkscape:connector-curvature="0" /></g></g></g></g><rect
       ry="30"
       rx="30"
       y="0.25997329"
       x="0.58999234"
       height="585"
       width="370"
       id="rect12023-8"
       style="color:#000000;clip-rule:nonzero;display:inline;overflow:visible;visibility:visible;opacity:1;isolation:auto;mix-blend-mode:normal;color-interpolation:sRGB;color-interpolation-filters:linearRGB;solid-color:#000000;solid-opacity:1;vector-effect:none;fill:#ffffff;fill-opacity:0;fill-rule:nonzero;stroke:#000000;stroke-width:10;stroke-linecap:butt;stroke-linejoin:miter;stroke-miterlimit:4;stroke-dasharray:none;stroke-dashoffset:0;stroke-opacity:1;color-rendering:auto;image-rendering:auto;shape-rendering:auto;text-rendering:auto;enable-background:accumulate" /></g><rect
     style="color:#000000;clip-rule:nonzero;display:inline;overflow:visible;visibility:visible;opacity:1;isolation:auto;mix-blend-mode:normal;color-interpolation:sRGB;color-interpolation-filters:linearRGB;solid-color:#000000;solid-opacity:1;vector-effect:none;fill:#f4e9d2;fill-opacity:1;fill-rule:nonzero;stroke:none;stroke-width:1.50000012;stroke-linecap:butt;stroke-linejoin:miter;stroke-miterlimit:4;stroke-dasharray:none;stroke-dashoffset:0;stroke-opacity:1;color-rendering:auto;image-rendering:auto;shape-rendering:auto;text-rendering:auto;enable-background:accumulate"
     id="rect12023-5"
     width="370"
     height="585"
     x="1"
     y="1"
     rx="30"
     ry="30" /><rect
     style="color:#000000;clip-rule:nonzero;display:inline;overflow:visible;visibility:visible;opacity:1;isolation:auto;mix-blend-mode:normal;color-interpolation:sRGB;color-interpolation-filters:linearRGB;solid-color:#000000;solid-opacity:1;vector-effect:none;fill:none;fill-opacity:1;fill-rule:nonzero;stroke:#000000;stroke-width:10;stroke-linecap:butt;stroke-linejoin:miter;stroke-miterlimit:4;stroke-dasharray:none;stroke-dashoffset:0;stroke-opacity:1;color-rendering:auto;image-rendering:auto;shape-rendering:auto;text-rendering:auto;enable-background:accumulate"
     id="rect12023-5-0"
     width="370"
     height="585"
     x="1"
     y="1"
     rx="30"
     ry="30" /><rect
     style="color:#000000;clip-rule:nonzero;display:inline;overflow:visible;visibility:visible;opacity:1;isolation:auto;mix-blend-mode:normal;color-interpolation:sRGB;color-interpolation-filters:linearRGB;solid-color:#000000;solid-opacity:1;vector-effect:none;fill:#d2f3f4;fill-opacity:0;fill-rule:nonzero;stroke:none;stroke-width:1.50000012;stroke-linecap:butt;stroke-linejoin:miter;stroke-miterlimit:4;stroke-dasharray:none;stroke-dashoffset:0;stroke-opacity:1;color-rendering:auto;image-rendering:auto;shape-rendering:auto;text-rendering:auto;enable-background:accumulate"
     id="rect12023-5-3"
     width="370"
     height="585"
     x="1"
     y="1"
     rx="30"
     ry="30" /><rect
     style="color:#000000;clip-rule:nonzero;display:inline;overflow:visible;visibility:visible;opacity:1;isolation:auto;mix-blend-mode:normal;color-interpolation:sRGB;color-interpolation-filters:linearRGB;solid-color:#000000;solid-opacity:1;vector-effect:none;fill:none;fill-opacity:1;fill-rule:nonzero;stroke:#ffff00;stroke-width:10;stroke-linecap:butt;stroke-linejoin:miter;stroke-miterlimit:4;stroke-dasharray:none;stroke-dashoffset:0;stroke-opacity:1;color-rendering:auto;image-rendering:auto;shape-rendering:auto;text-rendering:auto;enable-background:accumulate"
     id="rect12023-5-0-2"
     width="370"
     height="585"
     x="1"
     y="1"
     rx="30"
     ry="30" /></svg>