<?xml version="1.0" encoding="UTF-8" standalone="no"?>
<!-- Generator: Adobe Illustrator 13.0.0, SVG Export Plug-In . SVG Version: 6.00 Build 14948)  -->

<svg
   xmlns:dc="http://purl.org/dc/elements/1.1/"
   xmlns:cc="http://creativecommons.org/ns#"
   xmlns:rdf="http://www.w3.org/1999/02/22-rdf-syntax-ns#"
   xmlns:svg="http://www.w3.org/2000/svg"
   xmlns="http://www.w3.org/2000/svg"
   xmlns:sodipodi="http://sodipodi.sourceforge.net/DTD/sodipodi-0.dtd"
   xmlns:inkscape="http://www.inkscape.org/namespaces/inkscape"
   version="1.1"
   id="圖層_1"
   x="0px"
   y="0px"
   width="372px"
   height="587px"
   viewBox="0 0 372 587"
   enable-background="new 0 0 372 587"
   xml:space="preserve"
   sodipodi:docname="Hanafuda_11-4.svg"
   inkscape:version="0.92.2 5c3e80d, 2017-08-06"><metadata
     id="metadata146103"><rdf:RDF><cc:Work
         rdf:about=""><dc:format>image/svg+xml</dc:format><dc:type
           rdf:resource="http://purl.org/dc/dcmitype/StillImage" /><dc:title></dc:title></cc:Work></rdf:RDF></metadata><defs
     id="defs146101"><clipPath
       clipPathUnits="userSpaceOnUse"
       id="clipPath146684"><rect
         style="color:#000000;clip-rule:nonzero;display:inline;overflow:visible;visibility:visible;opacity:1;isolation:auto;mix-blend-mode:normal;color-interpolation:sRGB;color-interpolation-filters:linearRGB;solid-color:#000000;solid-opacity:1;vector-effect:none;fill:none;fill-opacity:1;fill-rule:nonzero;stroke:#ffff00;stroke-width:10;stroke-linecap:butt;stroke-linejoin:miter;stroke-miterlimit:4;stroke-dasharray:none;stroke-dashoffset:0;stroke-opacity:1;color-rendering:auto;image-rendering:auto;shape-rendering:auto;text-rendering:auto;enable-background:accumulate"
         id="rect146686"
         width="370"
         height="585"
         x="1"
         y="1"
         rx="30"
         ry="30" /></clipPath></defs><sodipodi:namedview
     pagecolor="#ffffff"
     bordercolor="#666666"
     borderopacity="1"
     objecttolerance="10"
     gridtolerance="10"
     guidetolerance="10"
     inkscape:pageopacity="0"
     inkscape:pageshadow="2"
     inkscape:window-width="769"
     inkscape:window-height="480"
     id="namedview146099"
     showgrid="false"
     inkscape:snap-global="false"
     inkscape:zoom="0.28428825"
     inkscape:cx="223.22224"
     inkscape:cy="218.53227"
     inkscape:window-x="0"
     inkscape:window-y="0"
     inkscape:window-maximized="0"
     inkscape:current-layer="圖層_1" /><g
     id="g146966"><rect
       ry="30"
       rx="30"
       y="1"
       x="1"
       height="585"
       width="370"
       id="rect12023-5"
       style="color:#000000;clip-rule:nonzero;display:inline;overflow:visible;visibility:visible;opacity:1;isolation:auto;mix-blend-mode:normal;color-interpolation:sRGB;color-interpolation-filters:linearRGB;solid-color:#000000;solid-opacity:1;vector-effect:none;fill:#f4e9d2;fill-opacity:1;fill-rule:nonzero;stroke:none;stroke-width:1.50000012;stroke-linecap:butt;stroke-linejoin:miter;stroke-miterlimit:4;stroke-dasharray:none;stroke-dashoffset:0;stroke-opacity:1;color-rendering:auto;image-rendering:auto;shape-rendering:auto;text-rendering:auto;enable-background:accumulate" /><g
       clip-path="url(#clipPath146684)"
       id="g146095"><g
         transform="matrix(1.0349837,0,0,1,0.25601049,0)"
         id="g145549"><path
           inkscape:connector-curvature="0"
           style="fill:#6fc7e6;fill-opacity:1"
           id="path145547"
           d="M 287.421,310.451 C 292.076,309.783 295.397,310.451 295.397,313.103 295.397,315.75 294.061,320.408 290.08,327.707 285.438,336.336 284.102,342.307 284.77,346.295 285.438,350.941 289.417,356.918 298.045,364.219 L 314.643,381.475 C 317.293,386.123 315.31,392.094 308.671,400.069 302.033,409.36 299.375,417.328 302.033,425.957 304.683,433.262 310.654,439.232 321.28,442.551 L 360.441,445.203 357.122,419.985 C 337.875,423.303 327.918,422.635 326.589,417.99 325.929,415.998 328.586,410.688 333.229,404.051 338.544,396.082 341.865,388.777 342.525,381.478 343.847,373.517 339.206,366.211 330.572,357.582 L 313.975,342.978 C 312.654,340.326 315.31,336.338 319.953,329.701 325.931,321.734 329.91,313.107 331.239,305.138 331.907,295.84 327.253,289.202 317.295,285.222 L 301.366,283.232 107.526,290.537 C 100.226,291.199 96.907,294.518 98.233,300.496 L 103.546,319.074 C 104.871,323.729 102.217,327.049 97.572,329.033 L 78.983,331.688 C 70.355,333.018 46.456,333.018 8.616,332.35 L 3.307,356.252 C 65.707,357.58 104.211,356.918 118.146,354.262 126.781,352.932 132.09,348.283 133.419,342.307 134.741,337.664 134.08,333.018 132.09,325.713 131.422,321.07 133.419,317.75 139.396,315.752 L 169.93,312.434 Z" /></g><g
         id="g145553"><path
           style="fill:#6fc7e6;stroke-width:1.01734149"
           inkscape:connector-curvature="0"
           id="path145551"
           d="M 350.64353,306.463 351.32662,303.145 C 351.32662,296.506 349.26078,290.536 344.45639,285.881 337.58513,278.581 326.59464,274.601 311.47249,274.601 L 110.85747,282.562 C 103.98622,283.23 98.488381,285.881 95.052235,290.535 93.679846,293.187 92.304353,295.838 92.304353,299.157 92.304353,303.144 93.679846,307.794 97.114958,314.431 L 99.174574,321.07 81.310757,323.06 C 71.004389,324.388 46.958613,324.388 9.1692898,323.728 H 2.3001033 L -7.318,364.218 123.91379,362.888 C 133.52878,360.236 140.39901,356.251 143.83516,350.279 146.5789,346.296 147.96163,342.306 147.96163,337.005 L 145.20961,324.391 176.8118,320.411 295.67761,319.075 292.92869,323.731 C 288.11809,332.352 285.37228,338.991 285.37228,344.305 285.37228,352.266 291.5532,360.901 302.55094,370.858 L 308.72876,376.169 318.34375,386.126 312.85627,395.415 C 305.98501,403.392 303.23403,412.013 303.23403,419.319 L 304.60228,428.608 C 308.72668,439.233 316.97447,446.54 330.02976,450.519 346.51601,455.829 360.94782,456.497 375.37549,453.175 L 382.92984,451.841 376.7427,410.028 348.57563,413.346 350.64249,410.028 C 358.19787,399.401 362.31607,390.112 363.00019,382.805 L 363.6926,379.485 C 363.6926,372.846 360.94782,366.211 355.44482,359.571 L 334.15002,340.324 336.89998,337.006 C 345.14155,326.379 349.95112,316.422 350.64353,306.463 Z M 312.16283,291.197 C 321.77783,291.197 328.64909,293.187 332.0842,297.174 333.46589,299.156 334.15106,301.153 334.15106,304.475 333.46589,311.114 330.03078,319.073 323.16057,326.379 L 316.97344,335.67 C 315.59794,338.988 315.59794,342.307 316.97344,346.295 318.34065,348.945 322.47023,352.932 329.33838,358.24 L 341.01921,368.859 C 345.13741,372.844 347.20634,376.834 346.51497,380.152 345.82463,386.123 342.39056,393.429 336.90101,400.73 330.71387,409.359 328.64701,415.33 330.02872,419.984 332.08212,429.273 343.07882,431.922 362.31503,429.273 L 363.69156,438.561 335.5162,435.244 C 327.27773,432.592 323.1585,428.604 321.0906,423.303 319.72132,418.649 321.77369,412.678 326.5905,405.371 334.14692,396.08 336.89687,387.453 335.51413,380.812 333.46176,376.166 328.64287,370.195 319.71924,363.556 L 314.21934,358.902 C 307.34601,352.931 303.22885,348.283 302.54576,345.627 302.54576,342.975 304.5971,338.988 308.03324,332.35 L 313.53522,319.073 C 315.5938,314.432 314.90243,310.453 312.8511,307.135 309.41598,303.148 304.5971,301.156 297.04275,302.48 L 176.12354,303.816 145.20547,306.465 C 138.33525,308.455 133.52464,311.114 131.46503,314.435 128.02889,319.076 127.3458,323.064 128.71301,327.709 130.77987,334.349 131.46503,339.655 129.39817,341.647 128.02889,343.643 124.59378,345.627 120.4735,346.295 108.78853,348.945 73.064006,349.613 13.976789,347.623 L 16.036407,340.322 C 51.076813,340.984 73.064006,340.984 83.369339,339.654 L 103.29278,337.004 C 108.10338,335.67 111.53538,333.018 113.60225,330.365 115.65565,327.707 116.34702,325.051 116.34702,322.392 L 115.65565,316.42 109.47577,299.821 112.91087,299.153 Z" /></g><g
         transform="matrix(1.0349837,0,0,1,0.25601049,0)"
         id="g145557"><path
           inkscape:connector-curvature="0"
           id="path145555"
           d="M 301.364,285.22 310.654,286.549 C 317.293,287.216 321.947,289.867 325.266,293.188 328.584,295.839 329.245,299.825 328.584,305.137 327.916,313.106 323.93,322.395 317.291,330.366 311.988,336.337 310.652,340.323 311.988,342.974 312.65,345.626 315.968,348.946 321.945,352.931 L 335.221,366.208 C 339.2,370.854 341.192,376.165 340.525,381.474 339.202,387.453 335.882,395.412 330.568,404.048 325.925,411.347 323.928,415.995 324.596,418.648 325.925,424.626 335.882,425.956 355.136,422.634 L 358.454,443.216 321.943,440.558 C 311.986,437.903 306.008,432.591 304.011,425.287 302.029,417.988 304.011,410.026 310.65,401.39 315.966,393.431 318.624,387.453 317.289,382.806 315.968,379.486 311.986,374.177 304.681,368.199 L 298.71,362.89 C 291.402,356.252 287.417,350.281 286.094,345.627 285.434,342.308 287.417,336.336 292.073,329.031 296.713,319.74 298.711,313.768 296.713,310.451 295.393,309.113 292.073,307.793 287.418,308.453 L 169.924,309.783 C 148.012,310.451 135.403,313.768 131.416,319.072 130.094,320.408 129.432,323.059 130.094,326.379 132.084,334.347 132.084,340.983 130.094,344.965 128.097,348.945 123.455,350.943 116.817,352.933 L 75.658,354.922 C 74.994,354.922 73.668,355.584 73.668,356.918 73.668,358.24 74.994,358.902 75.658,358.902 L 118.14,356.252 C 125.446,354.922 130.094,352.265 133.413,346.961 136.07,342.308 136.732,334.347 134.074,325.052 133.413,323.062 133.413,322.394 134.735,321.072 138.055,316.424 149.348,314.433 169.924,313.771 L 288.085,312.435 293.395,313.105 C 294.057,315.752 292.075,319.742 288.753,327.047 283.438,335.67 281.447,342.308 282.114,346.961 283.437,352.265 288.085,358.902 296.052,366.209 L 302.031,370.855 C 308.669,376.834 312.65,381.474 313.971,383.47 314.639,386.79 311.988,392.093 307.331,399.4 299.371,408.689 297.374,417.989 300.693,426.622 302.69,435.245 309.328,441.222 321.276,444.54 335.219,449.188 348.497,449.856 360.437,447.198 L 362.434,445.202 359.116,419.316 358.454,418.648 357.118,417.989 338.54,419.984 C 331.901,419.984 328.582,419.316 328.582,417.327 328.582,415.997 329.904,412.68 333.886,406.708 339.864,397.413 343.843,389.441 344.51,382.139 345.179,376.167 343.843,369.53 338.54,363.559 L 315.306,341.649 C 315.306,339.657 315.968,337.005 319.949,333.02 L 327.916,322.395 C 330.568,317.091 331.903,311.116 332.563,305.796 333.886,299.825 331.903,294.518 328.584,289.868 324.598,286.55 319.288,283.231 311.988,281.902 L 301.362,281.241 106.861,289.201 C 102.213,289.201 98.893,290.536 96.903,293.855 94.91,297.175 95.574,303.147 98.893,313.105 L 101.548,319.742 V 324.39 C 100.222,326.379 94.91,327.707 84.952,329.033 L 78.978,329.699 C 77.652,329.699 76.988,330.367 76.988,331.689 76.988,333.019 77.653,333.687 78.978,333.687 L 96.903,331.029 104.867,326.381 C 106.197,324.391 106.197,321.733 105.532,318.414 L 102.878,311.115 C 100.223,303.146 98.894,298.498 100.223,295.84 101.549,293.856 104.207,293.189 108.184,293.189 Z" /></g><g
         transform="matrix(1.0349837,0,0,1,0.25601049,0)"
         id="g145561"><path
           inkscape:connector-curvature="0"
           id="path145559"
           d="M 298.714,299.156 C 305.353,299.156 310.654,301.152 312.652,304.474 313.973,306.461 314.641,307.791 313.973,310.451 L 300.035,335.008 C 298.044,340.322 297.377,345.627 298.713,349.613 300.696,352.931 305.352,358.24 313.974,364.217 L 324.599,372.845 C 327.25,376.164 328.585,379.484 327.917,382.804 L 314.642,412.676 C 312.653,417.324 312.653,421.965 314.642,425.953 317.292,431.262 325.267,434.58 337.874,435.91 L 359.119,434.58 360.44,432.59 C 360.44,430.6 359.78,429.941 358.457,430.6 L 336.546,431.262 C 325.928,429.941 320.611,427.945 318.627,423.961 316.631,420.644 316.631,417.324 317.96,413.345 L 323.931,402.049 C 328.585,394.088 331.238,388.111 331.906,383.47 332.567,379.484 331.238,375.496 327.919,370.855 L 315.973,360.898 C 308.672,355.584 304.018,350.941 302.697,347.623 301.367,342.975 304.018,334.346 311.326,323.06 L 317.296,311.773 C 318.631,307.793 317.964,304.474 315.975,302.476 312.657,297.832 307.338,295.836 298.717,294.515 294.73,293.852 264.859,293.852 209.101,295.836 149.354,297.172 118.146,299.822 114.828,303.812 112.177,306.461 112.177,309.113 112.177,311.113 112.177,313.103 112.844,314.431 114.828,317.75 116.825,323.061 118.148,326.379 117.487,329.697 L 113.507,337.664 100.23,340.322 75.003,341.646 C 73.677,342.306 72.348,342.974 72.348,343.642 L 75.003,345.625 100.895,344.302 116.165,340.984 C 118.817,339.654 120.807,335.67 121.469,329.697 122.136,326.379 120.807,321.07 118.15,315.752 L 115.498,310.451 C 115.498,309.113 116.165,307.793 117.489,306.463 120.808,303.145 150.019,301.152 205.115,299.824 256.227,297.834 287.421,297.834 298.714,299.156 Z" /></g><g
         transform="matrix(1.1426587,0,0,1,-6.343035,0)"
         id="g145565"><path
           inkscape:connector-curvature="0"
           id="path145563"
           d="M 38.486,333.018 35.831,330.367 H 8.613 L 5.958,332.35 1.313,355.584 1.975,356.918 2.64,358.24 42.47,358.902 44.463,356.918 42.47,354.922 5.959,354.262 9.943,334.346 H 35.832 Z" /></g><g
         transform="matrix(1.1426587,0,0,1,-6.343035,0)"
         id="g145569"><path
           inkscape:connector-curvature="0"
           id="path145567"
           d="M 5.958,342.975 7.951,344.965 5.958,346.961 35.831,346.295 C 37.16,346.295 37.16,346.295 37.16,344.303 L 35.167,342.975 Z" /></g><g
         id="g145573"><path
           id="path145571"
           d="M182.543,95.365c3.98-25.231-0.668-47.797-14.612-66.383C152.002,6.409,131.419-2.219,106.863,2.429    C82.3,6.409,68.358,19.024,62.385,40.93c-6.639,15.267-13.277,33.192-19.25,53.774C30.523,135.856,25.21,171.706,26.539,202.24    c2.655,49.127,5.309,80.99,8.629,97.584c5.313,31.203,15.27,54.438,30.537,69.703l-1.991-55.096    c0-39.832,1.326-67.714,5.31-85.639c3.983-17.257,9.958-35.849,17.925-55.097l11.283-23.235l-9.293,43.818    c-4.645,33.853-1.99,62.396,7.967,85.63c6.639-16.596,16.596-30.541,27.214-43.149c24.563-26.554,31.202-74.351,21.912-144.053    l9.957,9.957c7.3,8.635,13.277,17.257,16.596,25.892C177.227,119.261,180.546,108.643,182.543,95.365z"
           fill="#858585" /></g><g
         id="g145577"><path
           id="path145575"
           d="M171.249,88.727c-4.641-20.576-11.94-36.511-21.898-46.468c-10.625-11.287-25.893-16.596-46.472-15.934l-29.208,3.98    l-1.329,1.996v2.659L82.3,52.216c3.984,13.938,3.319,29.211-1.991,45.14l-3.319,9.957c-13.941,37.84-23.234,71.032-27.218,99.575    c-7.303,51.778-3.983,103.563,10.622,153.348c0,1.986,1.326,2.652,3.319,1.986l1.326-2.652v-0.668    c-9.293-32.523-13.938-65.715-13.938-98.24c0-29.211,3.98-59.083,11.283-90.285c3.984-15.928,9.957-36.51,19.25-61.735    l3.319-9.297c3.319-9.296,5.313-18.586,5.313-27.876c0-13.944-3.983-26.553-11.287-36.51l30.54-2.659    c15.928,0,27.215,4.642,35.843,13.277c9.958,9.957,16.596,25.224,20.583,45.139l3.319,27.882c0,1.99,1.322,2.658,3.319,2.658    l1.323-0.667l0.66-1.99C174.568,109.303,173.247,99.346,171.249,88.727z" /></g><g
         id="g145581"><path
           id="path145579"
           d="M100.224,26.985c-1.329-1.322-2.654-0.66-3.319,0.668c-1.329,1.991-0.665,2.652,0.665,3.987l5.974,4.642    c5.309,4.648,9.296,9.958,13.276,16.596c11.28,21.244,15.267,47.13,11.28,78.999c-1.322,13.938-6.638,31.863-14.599,52.445    c-4.648,13.938-8.632,25.886-11.287,35.176c-3.984,15.273-6.639,31.208-8.629,48.465c0,1.322,1.326,1.99,2.655,2.658    c1.99,0,2.655-0.668,2.655-2.658c1.993-16.596,4.648-32.53,7.968-46.468l20.576-60.407l5.316-28.55    c4.642-33.854,0.662-61.068-11.292-82.318l-13.938-17.918C104.869,29.644,102.215,27.653,100.224,26.985z" /></g><g
         id="g145585"><path
           id="path145583"
           d="M85.619,70.802c-6.639,7.967-14.603,16.596-21.906,26.554c-15.27,19.915-25.228,37.839-30.537,54.435    c-0.665,1.323,0,1.991,1.33,2.659c1.325,0.661,2.654,0,2.654-1.335c4.645-15.928,14.602-34.515,29.873-54.43    c7.964-9.957,14.602-17.924,21.905-25.23c1.329-1.322,1.329-1.322,0-2.651C87.613,69.474,86.948,69.474,85.619,70.802z" /></g><g
         id="g145589"><path
           id="path145587"
           d="M78.316,104.662c-5.974,7.3-11.947,15.26-19.25,25.885c-13.276,20.583-22.57,39.831-28.543,58.417    c0,1.996,0,2.657,1.99,2.657l1.994-1.329c5.309-18.586,14.602-37.84,27.879-57.755l19.25-25.225    c0.665-1.329,0.665-1.99-0.661-2.651C80.309,103.994,78.98,103.994,78.316,104.662z" /></g><g
         id="g145593"><path
           id="path145591"
           d="M59.065,165.729l-13.276,19.916c-8.629,14.605-13.942,27.882-15.932,40.491l1.99,1.997l1.994-1.329    c1.99-11.948,7.303-25.225,15.267-39.831l13.277-18.586l-0.665-3.319L59.065,165.729z" /></g><g
         id="g145597"><path
           id="path145595"
           d="M50.437,210.875c-1.994,3.98-4.648,10.619-8.632,21.238c-5.31,15.935-7.964,28.55-9.293,39.169c0,0.661,0,1.99,1.329,1.99    l1.99-1.99c1.329-9.958,4.648-23.234,9.958-37.84l7.967-21.244c0-0.661,0-1.99-1.329-1.99    C51.762,209.54,50.437,210.208,50.437,210.875z" /></g><g
         id="g145601"><path
           id="path145599"
           d="M47.118,269.952L42.47,285.22c-3.319,11.954-5.31,21.243-5.31,27.883c0,1.328,1.326,2.648,1.991,2.648l1.993-2.648    c0-6.641,1.326-15.27,4.645-26.555l4.648-15.267c0-1.33,0-2.658-1.329-3.319C48.443,267.962,47.118,267.962,47.118,269.952z" /></g><g
         id="g145605"><path
           id="path145603"
           d="M55.082,319.74c0.664-1.99,0-2.65-1.326-3.318c-0.665,0-1.329,0-1.994,1.328l-3.319,7.963    c-1.99,6.637-3.319,11.291-3.319,16.594c0,1.336,0.665,1.996,1.993,1.996l1.99-1.328c0-5.311,1.329-9.957,3.319-15.928    L55.082,319.74z" /></g><g
         id="g145609"><path
           id="path145607"
           d="M80.309,46.24c0,0.66,0,1.996,1.991,2.657l12.612,7.961c7.967,9.296,13.273,23.234,14.608,41.826    c0,1.991,0.662,1.991,2.652,1.991l1.329-1.991c-1.329-19.915-7.303-35.85-16.596-45.145l-13.941-9.29    C81.635,44.249,80.309,45.578,80.309,46.24z" /></g><g
         id="g145613"><path
           id="path145611"
           d="M85.619,79.431c-1.326,1.329-1.991,2.658-0.665,3.319l7.303,15.935c4.648,13.277,6.638,26.554,6.638,41.821    c0,1.329,0.664,1.329,1.993,1.329l1.326-1.329c0-15.267-1.991-29.873-6.639-43.149L88.273,80.76L85.619,79.431z" /></g><g
         id="g145617"><path
           id="path145615"
           d="M76.99,111.3c-1.329,0.662-1.993,1.323-1.329,2.652l3.319,15.928c2.655,13.277,3.319,26.554,3.984,40.498    c0,1.329,0.664,1.329,1.99,1.329l1.994-1.329c0-22.566-3.32-41.82-7.968-57.755C78.98,111.3,77.655,110.632,76.99,111.3z" /></g><g
         id="g145621"><path
           id="path145619"
           d="M63.713,150.462c-1.329,0.668-1.329,1.329-1.329,2.652l3.319,13.944l3.319,31.201c0,1.323,0.665,1.991,1.994,1.991    c1.325,0,1.99-0.667,1.325-1.991c0-9.957-0.664-21.244-3.319-31.869l-3.319-14.599C65.704,150.462,65.704,150.462,63.713,150.462z    " /></g><g
         id="g145625"><path
           id="path145623"
           d="M51.762,204.898c-1.325,0.661-1.99,1.99-1.325,3.319l3.319,8.628l5.974,23.902l2.655,1.322l1.329-1.99l-5.974-24.563    l-3.984-9.297C53.756,204.898,52.427,204.898,51.762,204.898z" /></g><g
         id="g145629"><path
           id="path145627"
           d="M47.118,260.663c-1.329,0.662-1.329,1.984,0,2.651l6.638,7.968c5.31,6.639,8.629,13.938,11.948,21.237    c0,0.668,1.329,0.668,2.654,0.668c0.665,0,0.665-1.329,0.665-2.652c-3.319-7.305-6.638-14.611-11.948-21.25l-7.302-8.622    C49.108,259.995,48.443,259.995,47.118,260.663z" /></g><g
         id="g145633"><path
           id="path145631"
           d="M50.437,310.451c0,1.322,0,2.652,1.325,2.652c0.665,0,3.32,1.328,5.978,3.985c4.645,3.979,7.964,9.289,9.293,15.261    c0.664,0.668,1.99,1.336,2.654,0.668c1.329,0,1.99-0.668,1.329-1.99c-1.994-7.299-5.977-12.615-10.622-17.258l-7.968-3.986    C51.762,309.113,50.437,309.783,50.437,310.451z" /></g><g
         id="g145637"><path
           id="path145635"
           d="M130.097,92.046c-13.938,19.253-23.234,38.5-27.218,58.416c-0.665,1.329,0,1.991,1.99,1.991    c0.665,0.662,1.994,0,1.994-0.662c2.657-12.615,7.96-25.892,15.267-39.83l10.625-17.257c1.323-0.667,0.662-1.996-0.667-2.658    H130.097z" /></g><g
         id="g145641"><path
           id="path145639"
           d="M128.101,138.515l-15.928,16.596c-10.622,11.947-17.26,20.576-20.58,26.553c-0.661,0.661,0,1.99,0.665,2.658    c1.329,0.662,2.655,0,2.655-0.667c2.658-5.309,9.957-14.605,20.579-25.886l15.267-15.935c1.329-1.329,1.329-2.658,0-3.319    C130.097,137.186,128.768,137.186,128.101,138.515z" /></g><g
         id="g145645"><path
           id="path145643"
           d="M117.482,177.016l-12.613,11.287c-8.628,7.961-14.602,15.267-16.596,20.577c-1.325,1.329-0.661,2.658,0.665,2.658    c1.329,0.661,2.655,0,2.655-1.329c1.993-5.309,7.967-11.948,16.592-19.915l11.954-9.957c0.662-0.668,1.323-1.99,0-3.32    L117.482,177.016L117.482,177.016z" /></g><g
         id="g145649"><path
           id="path145647"
           d="M104.869,214.855l-9.293,9.958c-6.638,7.299-9.957,13.938-11.283,20.576l1.326,2.658c1.994,0,2.654-1.329,2.654-1.997    c0.665-5.971,3.984-12.609,10.622-19.247c4.648-6.639,7.303-9.29,7.968-9.29l0.661-2.658    C106.863,213.527,105.534,213.527,104.869,214.855z" /></g><g
         id="g145653"><path
           id="path145651"
           d="M137.397,3.09c-8.629,2.658-17.258,7.299-23.896,14.605l-8.632,9.958c-1.325,1.329-0.661,1.991,0.665,3.319l2.651-0.667    l7.974-9.958c6.639-6.638,13.938-11.28,22.567-13.938c1.328,0,1.328-0.661,1.328-2.655C139.394,3.09,138.726,2.429,137.397,3.09z" /></g><g
         id="g145657"><path
           id="path145655"
           d="M159.309,12.386c-9.958,1.991-19.254,5.31-27.889,9.958l-11.28,6.638c-1.329,0.662-1.329,1.323,0,3.319h1.991    l10.625-6.638c9.29-4.648,17.918-7.968,27.214-9.958l1.991-2.658C161.292,12.386,159.969,11.725,159.309,12.386z" /></g><g
         id="g145661"><path
           id="path145659"
           d="M136.735,34.292c-1.329,0-1.329,1.329-1.329,2.651c0.667,1.335,1.329,1.997,2.652,1.335l11.954-1.997l25.892,1.329    c0.662,0.668,1.985,0,2.652-1.329c0-0.662,0-1.99-1.991-1.99L150.012,32.3L136.735,34.292z" /></g><g
         id="g145665"><path
           id="path145663"
           d="M151.334,50.887c0,1.329,0.667,1.99,1.335,1.99l11.28,2.658c7.967,2.658,14.606,6.639,18.593,10.619    c1.322,1.329,1.983,1.329,3.318,0c0.662-0.661,0.662-1.99,0-1.99c-5.315-5.31-11.953-9.289-20.583-11.947l-11.947-3.319    C152.67,48.897,151.334,49.559,151.334,50.887z" /></g><g
         id="g145669"><path
           id="path145667"
           d="M161.292,68.812c-1.323,0.662-0.661,1.99,0.668,1.99l10.625,9.29c5.304,5.316,7.3,8.635,7.961,12.616l1.997,1.996    l1.983-2.658c0-4.648-3.319-9.958-9.958-16.596l-11.279-7.967C162.627,66.815,161.96,67.483,161.292,68.812z" /></g><g
         id="g145673"><path
           id="path145671"
           d="M132.087,35.62l13.276,46.469c0.668,0.661,1.329,1.322,2.652,0.661l1.335-1.99c-2.658-5.31-5.316-15.267-8.635-28.543    l-4.642-17.925c0-1.329-0.667-1.991-2.657-1.329C132.087,32.962,132.087,33.624,132.087,35.62z" /></g><g
         id="g145677"><path
           id="path145675"
           d="M161.292,68.812l-2.651,8.629c-1.991,6.638-2.652,14.605-2.652,23.234c0,1.329,0.662,1.99,1.984,1.99l1.996-1.99    c0-7.967,0.662-15.267,2.658-21.906l1.984-8.635c0.667-1.322,0-1.983-1.322-2.651C162.627,67.483,161.292,67.483,161.292,68.812z" /></g><g
         id="g145681"><path
           id="path145679"
           d="M128.768,85.408c-0.667,1.322-0.667,1.99,0,3.319l7.306,10.619c5.304,9.297,8.623,19.915,10.619,31.201l2.658,1.33    c1.322,0,1.983-1.33,1.322-1.997c-1.99-11.941-5.977-22.566-11.28-32.523l-7.306-11.287L128.768,85.408z" /></g><g
         id="g145685"><path
           id="path145683"
           d="M130.097,130.547c-1.329,0.668-1.329,1.33-1.329,3.32l5.97,15.267c4.655,12.615,7.307,24.563,7.975,36.511    c0,1.996,0.661,2.657,2.651,1.996l1.329-1.996c-0.661-11.948-3.98-24.558-7.967-37.173l-6.639-16.596    C131.419,130.547,130.758,130.547,130.097,130.547z" /></g><g
         id="g145689"><path
           id="path145687"
           d="M120.801,169.049c-1.322,0-1.99,1.329-1.322,2.657l4.641,16.596c3.319,12.616,4.648,23.234,4.648,33.192    c0,1.322,0,1.99,1.329,1.99l1.99-1.99c0.667-9.958-0.668-21.244-3.319-33.854l-5.31-17.263    C122.798,169.049,122.13,168.387,120.801,169.049z" /></g><g
         id="g145693"><path
           id="path145691"
           d="M107.524,206.22l-1.325,2.659l3.322,11.286c1.984,8.628,2.652,17.264,2.652,25.886c0,1.997,0,1.997,1.329,1.997    l1.99-1.329c0.667-9.29,0-18.586-1.99-27.882l-3.319-11.28C108.853,206.888,108.853,205.56,107.524,206.22z" /></g><g
         id="g145697"><path
           id="path145695"
           d="M132.087,530.178c-23.902,9.295-66.383,17.256-126.793,24.556l-0.662,33.19H370.4v-82.977l-35.177-7.961    c-26.554-5.318-49.788-7.3-69.042-5.979c-19.914,1.33-43.81,6.641-70.363,15.273L132.087,530.178z"
           fill="#858585" /></g><g
         id="g145701"><path
           id="path145699"
           d="M2.64,589.262l1.993,1.322H370.4c1.335,0,2.656-1.322,2.656-2.66v-82.977l-1.989-1.984l-35.183-8.637    c-27.215-5.31-50.449-7.299-69.703-5.978c-17.925,1.339-38.507,5.316-62.402,13.275l-72.36,25.896    c-23.896,8.635-65.715,17.256-126.125,23.895c-1.99,0-2.655,1.336-2.655,3.318l-0.665,33.19L2.64,589.262z M7.288,585.275    l0.664-28.545c58.417-7.302,100.233-15.273,124.803-23.896l15.261-5.979c25.231-9.957,44.484-16.595,57.761-20.576    c22.566-6.638,43.149-11.293,60.406-12.615c29.213-1.328,62.402,2.658,100.898,13.277v78.332L7.288,585.275L7.288,585.275z" /></g><g
         id="g145705"><path
           id="path145703"
           d="M49.772,560.049l-45.14,4.644c-1.329,0-1.993,0.666-1.993,1.996l2.655,1.989l45.143-3.985    c33.856-4.644,61.067-9.959,80.982-17.259l79.661-27.875c17.932-5.315,35.188-9.295,51.784-11.293    c18.586-1.983,41.819,0,69.702,5.316l37.172,9.297c0.662,0.66,1.997,0,1.997-1.336c0.661-1.322,0-1.984-1.335-1.984    c-10.619-3.319-23.235-6.639-37.174-9.957c-28.543-5.315-51.776-7.307-71.023-4.653c-16.598,1.334-33.859,5.315-52.445,11.291    l-79.661,27.215C110.182,550.092,83.628,556.068,49.772,560.049z" /></g><g
         id="g145709"><path
           id="path145707"
           d="M156.65,548.096L45.125,585.941c-1.326,0-1.326,0.661-1.326,1.981c0,1.338,1.326,2,1.991,1.338l112.184-37.18    c51.124-18.586,87.631-28.543,108.872-29.871l48.465,2.65c19.915,3.319,38.494,6.639,54.43,11.293l1.997-1.336    c0.661-1.322,0-1.982-1.335-2.65c-15.929-4.648-34.516-8.629-55.092-10.625l-49.127-3.318    C244.938,519.559,208.428,529.516,156.65,548.096z" /></g><g
         id="g145713"><path
           id="path145711"
           d="M201.122,546.773c-22.566,7.299-54.429,18.584-94.259,33.188c-1.33,0.662-1.33,1.324-0.665,2.66    c0.665,1.32,1.325,1.982,2.654,1.32c39.83-14.599,70.371-25.892,93.605-33.189c21.238-6.639,43.146-10.619,67.044-12.615    c35.851-1.983,69.042,2.658,100.236,13.943c0.662,0.668,1.997,0.668,1.997-0.668c0.66-1.984,0-2.65-1.335-3.318    c-31.196-11.281-65.049-15.26-101.561-13.276C245.605,536.154,223.034,540.135,201.122,546.773z" /></g><g
         id="g145717"><path
           id="path145715"
           d="M152.002,577.967c-1.99,0-1.99,1.338-0.667,2.658c0,0.662,1.335,1.33,1.997,0.662    c19.253-7.961,42.486-14.601,69.042-19.914c53.769-11.281,100.236-9.959,140.066,1.996c1.321,0.66,2.657,0,2.657-0.662    c0-1.334,0-2.658-1.336-2.658c-39.83-13.274-87.621-13.938-141.389-2.658C195.15,562.707,171.917,569.346,152.002,577.967z" /></g><g
         id="g145721"><path
           style="fill:#80b368;fill-opacity:1"
           id="path145719"
           d="M110.182,406.707c0.662,2.652-1.997,6.639-9.293,11.281c1.991,5.313,4.645,8.633,7.964,9.957l4.648-0.662    c5.977-7.967,7.961-14.605,6.638-19.914l-8.635-14.607l-7.296-9.291L110.182,406.707z"
           fill="#FCCE00" /></g><g
         id="g145725"><path
           id="path145723"
           d="M103.544,380.813c-1.329,0.662-1.994,1.992-1.994,3.32l5.313,23.236l-1.33,3.318l-6.638,5.309    c-0.665,0-0.665,1.33-0.665,2.652c1.993,5.977,5.313,9.956,8.632,10.625l5.309,1.327l2.651-0.659l0.668-0.668l4.648-9.289    c2.659-5.316,3.319-9.957,2.659-13.277c-0.668-3.318-3.319-7.977-7.975-14.613l-8.625-9.957    C105.534,380.152,104.208,380.152,103.544,380.813z M118.143,408.029v1.33c0,3.985-1.984,9.289-5.971,15.928h-3.319l-4.645-6.639    c5.974-3.318,7.964-7.961,7.964-11.279v-1.33l-2.652-11.949L118.143,408.029z" /></g><g
         id="g145729"><path
           style="fill:#80b368;fill-opacity:1"
           id="path145727"
           d="M28.528,457.816c1.994,2.657,9.296,2.657,21.909,0.661c4.645-7.301,5.974-11.28,4.645-12.608l-3.98-0.668    c-5.977,3.319-10.622,3.985-13.277,3.985c-1.994-1.327-7.967-9.957-15.935-26.553c-0.662,2.652,0,7.967,1.993,17.265    C25.209,449.855,27.203,455.826,28.528,457.816z"
           fill="#FCCE00" /></g><g
         id="g145733"><path
           id="path145731"
           d="M57.075,443.879c-1.329-1.33-3.319-1.996-6.638-1.33c-6.639,2.652-9.958,3.988-11.951,3.32    c-1.99-0.668-6.639-9.291-14.603-23.902c0-1.982-1.329-1.982-2.655-1.982l-1.993,1.982c-0.665,2.658,0,8.635,1.993,18.592    c1.326,10.619,3.319,16.597,4.646,18.587l24.563,1.329l1.99-1.329C57.075,451.84,59.065,446.537,57.075,443.879z M37.16,451.178    c3.319,1.328,8.629-0.66,15.267-3.979l0,0l-3.983,8.629l-17.921,0.668c-1.329-2.658-3.319-9.957-5.313-21.25    C30.522,445.869,35.167,450.518,37.16,451.178z" /></g><g
         id="g145737"><path
           style="fill:#80b368;fill-opacity:1"
           id="path145735"
           d="M91.593,403.389c-0.661-0.668-5.974-3.32-14.603-5.977l-20.58-4.65l-7.303,13.277    c-5.31,9.291-7.303,15.268-7.303,17.924c0.665,2.658,1.993,5.979,3.984,9.297l5.313,7.961l-0.665,14.605    c-0.665,8.629,0,13.942,1.99,17.924c2.655,4.644,7.968,6.639,15.932,7.961l-5.974,16.596c-0.665,3.318,1.993,6.642,8.632,9.3    l16.596,1.996c-5.313-3.32-8.632-7.978-8.632-11.296c-0.665-5.969,3.319-12.608,13.941-18.579l7.302-3.318l5.31,2.652    c3.987,1.989,6.639,3.987,7.306,5.971c1.983,3.986,5.971,6.637,13.277,9.295c3.98,1.33,12.609-0.66,25.885-5.309l-21.905-6.64    c-9.958-3.985-13.277-10.625-9.958-20.582v-21.897c-0.661-5.316-4.648-11.293-13.276-17.265l-11.951-7.967    c-1.326-1.322-1.326-2.658-1.99-5.309L91.593,403.389z"
           fill="#FCCE00" /></g><g
         id="g145741"><path
           id="path145739"
           d="M152.67,485.697l-21.25-5.972c-6.638-2.655-9.29-6.639-9.29-12.612l1.329-11.955l-1.329-15.26    c-0.667-9.298-9.958-17.933-25.889-27.222l-2.655-9.957c-0.664-2.651-6.638-4.649-16.596-7.309l-20.58-5.302    c-0.665,0-1.329,0.66-2.655,1.982c-1.994,3.986-4.648,8.637-7.967,13.945c-3.984,8.629-6.638,14.605-6.638,17.924v0.662    c0,3.32,2.654,7.299,5.974,11.287l3.319,5.971l-1.326,20.582c0,5.31,1.326,9.957,3.319,12.607    c1.99,3.987,6.638,6.639,14.603,7.977l-4.645,13.938l-0.665,2.657c0,1.98,0.665,3.318,2.655,5.304    c1.993,3.317,6.638,4.653,11.951,6.639l13.938,0.668l1.994-1.99v-0.662l-1.329-1.995c-4.645-3.32-7.303-6.64-7.303-9.3    l-0.661-1.319c0-4.648,4.645-9.3,13.276-14.607l5.974-2.652c5.975,1.984,9.296,3.98,9.958,6.642    c2.658,4.641,7.961,7.959,15.267,9.957c3.987,1.981,13.277-0.668,27.221-5.316l1.983-1.99v-0.668L152.67,485.697z M53.756,440.559    l-9.293-16.596c0-3.979,4.645-13.275,13.277-27.883l18.586,3.988c7.303,2.652,11.948,3.979,13.277,5.303l0.665,3.318    c0,3.987,1.326,6.641,1.99,7.975l1.329,0.662c4.645,1.99,8.629,5.309,13.277,8.629c6.638,5.309,9.957,9.957,9.957,13.943    l1.323,15.26l-0.661,5.315c-0.662,1.99-0.662,4.642-0.662,6.64c0,7.959,3.319,13.938,11.948,17.918l13.277,3.985l-15.267,2.65    c-5.978-1.98-9.958-4.641-11.287-7.961l-7.306-6.637c-3.316-1.33-5.97-1.998-7.961-2.658h-1.329l-6.638,2.658    c-11.283,6.637-16.596,13.276-16.596,19.916v1.989c0.665,2.648,1.994,4.646,4.648,7.968c-6.638-0.662-11.951-2.658-14.605-5.318    l-0.665-1.98l0.665-0.668l5.313-16.598v-0.668l-0.665-1.322l-1.329-1.328c-7.964-0.668-12.612-3.319-13.941-6.639    c-1.991-2.652-2.655-5.971-2.655-9.957l1.329-18.586L53.756,440.559L53.756,440.559z" /></g><g
         transform="translate(0,-2)"
         id="g145745"><path
           inkscape:connector-curvature="0"
           id="path145743"
           d="M 58.401,392.762 56.411,390.772 C 55.082,390.772 54.421,392.094 54.421,392.762 L 55.083,396.08 58.402,403.389 63.715,410.028 C 67.035,413.346 69.025,415.998 69.689,418.649 L 70.354,420.645 C 71.68,427.285 74.999,432.592 80.311,437.242 84.956,440.559 88.94,445.871 92.259,450.518 98.233,459.814 100.226,468.436 98.233,476.41 97.572,477.072 98.233,478.393 98.898,479.061 100.891,479.061 101.553,479.061 101.553,477.072 103.547,468.436 102.218,459.146 95.579,449.189 92.26,443.217 88.276,438.564 82.967,433.922 L 76.328,426.621 73.673,419.984 V 417.326 C 72.344,414.006 70.354,410.687 67.035,407.369 L 61.722,401.389 59.067,395.412 Z" /></g><g
         id="g145749"><path
           id="path145747"
           d="M54.42,426.621c3.319,0,4.645-1.334,4.645-3.986l-0.665-3.318c-1.326-1.327-2.655-1.989-3.319-1.989    c-1.326-0.662-2.655,0-3.32,1.321c-1.325,0.668-1.99,1.996-1.99,3.318C49.772,425.287,51.762,426.621,54.42,426.621z" /></g><g
         id="g145753"><path
           id="path145751"
           d="M83.628,412.678l1.326-3.318l-1.326-3.319l-3.319-1.328c-2.654,0-4.648,1.328-4.648,4.647c0,2.65,1.329,3.986,4.648,3.986    L83.628,412.678z" /></g><g
         id="g145757"><path
           id="path145755"
           d="M101.55,520.881c0.665,0.662,1.994,0.662,1.994-0.66v-2.657l-15.271-10.619h-2.654c-0.665,0.662-0.665,1.321-0.665,2.657    l1.33,16.597c0,1.322,0.665,1.983,2.654,1.322l1.329-1.99l-1.329-12.609L101.55,520.881z" /></g><g
         id="g145761"><path
           id="path145759"
           d="M104.208,502.963l-17.924,3.98c-1.33,0-1.33,1.321-1.33,2.657c0,1.322,0.665,1.984,1.994,1.322l18.585-3.979    c1.33,0,1.33-0.662,1.33-1.996C106.199,502.963,105.534,502.963,104.208,502.963z" /></g><g
         id="g145765"><path
           id="path145763"
           d="M150.012,487.688l-8.635,13.938c-0.662,1.338-0.662,1.998,0.667,3.322l2.651-1.324l6.638-10.617l4.654,13.938    c0,1.321,1.323,1.321,2.652,1.321c1.328-0.66,1.328-1.983,1.328-2.649l-6.638-17.267l-1.33-1.981    C151.334,486.367,150.012,487.027,150.012,487.688z" /></g><g
         id="g145769"><path
           id="path145767"
           d="M92.922,369.527l0.664,0.668l8.629,12.609l-11.948,0.666c-0.665,0-1.329,0.661-1.329,2.651c0,1.33,1.329,1.33,2.655,1.33    l3.983-0.662l10.623,0.662c0.665,0,1.986-0.662,1.986-1.33v-1.99l-11.28-16.596h-3.319L92.922,369.527z" /></g><g
         id="g145773"><path
           id="path145771"
           d="M108.185,367.537c-1.986,4.643-3.316,10.619-3.316,17.918c-0.661,1.336,0,1.998,1.33,1.998l2.654-1.998    c0-6.639,1.329-11.941,3.319-15.928c0-1.33,0-2.65-1.329-2.65C109.521,366.209,108.853,366.877,108.185,367.537z" /></g><g
         id="g145777"><path
           id="path145775"
           d="M22.555,405.371c-1.99,3.988-2.655,10.625-1.99,19.916c0,1.334,0.664,1.334,1.99,1.334l1.993-1.996    c-0.665-8.629,0-14.598,1.326-17.918c1.329-0.668,0.664-1.336-0.665-2.658C23.883,403.389,22.555,404.049,22.555,405.371z" /></g><g
         id="g145781"><path
           id="path145779"
           d="M17.91,425.287l4.645-1.324l1.993-1.328l-0.665-1.99l-11.287-11.285c-1.325-1.989-1.99-1.989-3.319,0v0.668v1.982    l9.293,8.635c-5.31,1.322-9.293,1.99-11.948,3.318l-0.665,1.992v0.666c0.665,1.324,1.993,1.983,3.319,1.324    C11.271,426.621,14.591,425.955,17.91,425.287z" /></g><g
         id="g145785"><path
           id="path145783"
           d="M225.691,475.74l-33.858,19.916l77.008,132.1l33.192-19.914L225.691,475.74z"
           fill="#FCCE00" /></g><g
         id="g145789"><path
           id="path145787"
           d="M224.355,473.75l-33.853,19.916l-1.323,1.99v1.33l77.002,132.104c0.662,1.324,1.991,1.984,3.319,0.662l34.515-19.914    l1.336-0.662l-0.668-2.658l-76.341-131.444L224.355,473.75z M195.818,496.986l29.205-17.261l73.689,127.453l-29.212,16.597    L195.818,496.986z" /></g><g
         id="g145793"><path
           id="path145791"
           d="M218.387,489.018c-1.33,0.671-1.99,1.33-1.33,3.32l71.699,122.144c0,1.334,1.322,1.334,2.651,0.666    c1.329-0.666,1.329-1.328,0.669-2.65l-71.039-122.809C219.715,489.018,219.055,488.35,218.387,489.018z" /></g><g
         id="g145797"><path
           id="path145795"
           d="M206.438,495.656l-0.66,2.649l71.687,122.812l3.319,0.668l0.668-2.652l-71.692-122.809    C209.098,494.988,207.762,494.988,206.438,495.656z" /></g><g
         id="g145801"><path
           id="path145799"
           d="M224.355,485.697c1.996-3.318,3.319-6.638,1.336-9.957c-1.336-1.99-3.986-3.318-8.635-3.318    c-4.642,0-8.629,1.328-13.938,3.986c-4.647,2.651-7.968,5.971-10.619,9.959c-1.996,3.319-2.658,6.639-0.667,9.289    c1.329,2.649,3.984,3.987,8.628,3.987c4.647,0,8.636-1.338,13.938-3.987L224.355,485.697z"
           fill="#FCCE00" /></g><g
         id="g145805"><path
           id="path145803"
           d="M229.012,479.061l-0.668-3.987c-2.652-3.318-5.971-5.304-10.626-5.304c-5.302,0-9.957,1.984-15.928,4.644    c-6.64,4.647-11.948,9.295-13.276,15.275c-0.668,2.649,0,5.301,0.668,7.299c1.983,2.657,3.98,3.979,6.637,4.639    c5.973,1.338,11.943,0,19.916-3.977c7.301-4.644,11.941-9.3,13.277-15.271V479.061z M216.396,475.072    c3.318,0,5.978,0.668,6.639,1.998l0.662,3.979c-1.323,4.646-5.311,8.637-11.28,11.955c-5.979,3.318-10.626,4.644-15.274,3.318    l-2.658-1.336c-1.32-1.322-1.32-2.65-0.66-3.98c1.328-4.641,4.648-8.629,10.617-11.947    C209.098,476.408,212.416,475.74,216.396,475.072z" /></g><g
         id="g145809"><path
           id="path145807"
           d="M290.74,640.371l30.54-149.363l-39.163-7.959L252.246,632.41L290.74,640.371z"
           fill="#FCCE00" /></g><g
         id="g145813"><path
           id="path145811"
           d="M248.927,632.41l0.66,1.322l1.99,1.995l37.84,7.302l3.319-1.996l31.194-149.365c0-1.979-1.321-2.65-2.65-3.318    l-38.501-7.961l-1.329,0.662l-1.99,1.328L248.927,632.41z M284.77,486.367l33.191,6.639l-29.873,144.045l-33.191-6.637    L284.77,486.367z" /></g><g
         id="g145817"><path
           id="path145815"
           d="M304.017,496.986L275.48,636.39l1.982,2.658l1.997-1.998l28.544-138.744l-1.99-2.649    C305.353,495.656,304.685,495.656,304.017,496.986z" /></g><g
         id="g145821"><path
           id="path145819"
           d="M264.854,635.729l1.99-1.334l28.551-138.738c0-1.33,0-2.65-1.336-2.65c-1.322,0-1.982,0.66-2.651,1.982l-28.544,138.744    C262.864,634.396,262.864,635.729,264.854,635.729z" /></g><g
         id="g145825"><path
           id="path145823"
           d="M313.975,496.986c3.986-1.33,6.639-3.32,7.307-5.979c0-2.658-1.329-5.311-4.648-8.629    c-3.317-3.318-7.961-4.648-12.615-5.971l-14.6,0.662c-3.98,1.321-6.639,2.655-7.3,5.979c0,2.648,0.661,5.969,3.979,8.619    c3.319,3.32,7.963,4.656,13.277,5.98L313.975,496.986z"
           fill="#FCCE00" /></g><g
         id="g145829"><path
           id="path145827"
           d="M318.628,480.389c-3.985-3.317-8.634-5.315-13.943-6.639c-8.628-1.328-15.268-0.662-19.915,2.658    c-2.651,1.983-3.986,3.317-5.31,5.971c0,3.318,0,5.971,1.99,7.31c3.319,5.301,9.29,9.288,17.264,10.616    c8.621,1.32,15.261,1.32,19.914-2.655c2.652-1.324,3.981-3.322,5.304-5.98v-1.98C323.932,486.367,321.947,483.049,318.628,480.389    z M285.438,483.707l1.983-3.318c3.319-1.996,8.636-1.996,15.936-1.328c4.647,0.666,8.635,2.65,11.286,4.646    c3.318,2.66,3.985,4.643,3.985,6.641l-2.656,2.658l-15.936,1.982c-7.3-1.982-11.28-3.98-13.938-7.961    C285.438,485.697,284.77,485.031,285.438,483.707z" /></g><g
         id="g145833"><path
           id="path145831"
           d="M118.811-16.825l-43.15,9.296C66.369,12.386,59.73,24.334,55.082,29.644L42.47,44.249    c-5.974,7.306-10.623,14.605-13.941,21.905c-6.638,11.955-15.932,32.53-27.879,62.403l4.646,75.68    c5.313-25.231,16.596-55.765,33.191-92.937c15.27-33.859,27.218-53.774,35.185-62.403C82.3,39.601,97.57,17.695,118.811-16.825z"
           fill="#FCCE00" /></g><g
         id="g145837"><path
           id="path145835"
           d="M121.462-18.815l-3.319-0.665l-43.146,8.632c-1.326,0-1.991,0.662-2.655,1.325C63.713,10.389,57.075,23.004,52.427,28.32    l-1.99,1.984c-9.958,11.954-17.925,23.234-24.563,35.188l-27.879,61.735v1.329l4.645,75.68l2.655,2.651l2.657-1.99    c5.31-25.231,16.596-56.426,33.854-92.937c15.27-33.192,26.553-53.107,33.856-61.074c8.632-9.29,23.898-31.863,45.801-66.383    L121.462-18.815L121.462-18.815z M55.082,33.624l1.993-1.323c4.645-6.638,11.948-19.254,19.915-37.84l36.511-7.967    C93.586,19.024,78.98,39.601,71.678,46.9c-7.3,7.975-17.922,25.893-31.863,55.104c-14.605,31.863-25.889,59.745-32.527,84.969    L2.64,128.557c9.292-21.244,18.589-42.488,27.882-61.074C35.831,57.525,43.798,46.24,55.082,33.624z" /></g><g
         id="g145841"><path
           id="path145839"
           d="M75.661,16.366c0,1.329,0,2.658,1.329,2.658l13.941,7.3c-0.665-0.662-0.665-1.991-0.665-2.659    c0.665-1.322,1.99-1.322,2.655-1.322L78.98,15.705C76.99,15.705,76.326,15.705,75.661,16.366z" /></g><g
         id="g145845"><path
           id="path145843"
           d="M62.385,36.943l11.286,11.954c1.326,0.662,1.99,0.662,3.319,0c0.665-1.329,0.665-2.657,0-3.319L65.704,34.959    l-0.665,1.983L62.385,36.943L62.385,36.943z" /></g><g
         id="g145849"><path
           id="path145847"
           d="M43.134,54.207c-1.329,1.329-1.329,1.99,0,3.319c5.974,5.309,12.612,7.968,20.579,7.968l1.991-2.659l-1.991-1.99    c-6.639,0.668-13.276-1.329-17.924-6.638C45.125,52.877,43.798,52.877,43.134,54.207z" /></g><g
         id="g145853"><path
           id="path145851"
           d="M35.167,74.789c-1.326,0.661-1.326,1.323,0,2.652l4.648,4.648c3.983,3.319,7.303,5.31,10.622,6.638    c0.665,0,1.99,0,1.99-1.329c0.665-1.33,0-1.99-0.665-2.652c-2.654-0.668-5.973-2.658-9.292-5.978l-4.645-3.98    C37.16,74.122,35.831,74.122,35.167,74.789z" /></g><g
         id="g145857"><path
           id="path145855"
           d="M25.209,92.708c-0.662,1.329-0.662,1.996,0,2.657l5.313,5.978c3.319,3.98,6.638,6.638,8.629,7.96l2.654-0.661    c0.665-0.662,0.665-1.33-0.661-2.659l-8.632-7.3l-3.983-5.976L25.209,92.708L25.209,92.708z" /></g><g
         id="g145861"><path
           id="path145859"
           d="M30.522,131.876l-13.277-19.254c-0.665-0.661-1.329-1.323-2.654-0.661c-1.329,0-1.994,1.322-0.665,1.99l3.983,7.967    l9.293,13.276h3.319L30.522,131.876L30.522,131.876z" /></g><g
         id="g145865"><path
           id="path145863"
           d="M252.906,145.153l-1.996,1.323l-4.643,35.188l-26.554-21.244l-1.997,0.667c-1.322,0.662-1.322,1.984,0,2.652    l28.551,23.234h1.989l1.329-1.328l5.309-38.502C254.896,145.153,254.229,145.153,252.906,145.153z" /></g><g
         id="g145869"><path
           id="path145867"
           d="M285.438,300.494c0,1.982,1.321,2.65,3.318,1.982c1.984-0.662,2.651-1.982,1.322-3.32l-67.044-191.843    c0-1.329-1.329-1.99-3.319-1.329c-1.328,0.662-1.328,1.997-1.328,3.319L285.438,300.494z" /></g><g
         id="g145873"><path
           id="path145871"
           d="M284.102,138.515l16.597-11.955c-25.886-7.3-48.451-12.609-67.044-15.929l-1.99-11.286l-19.915,5.316    l1.329,10.619l-53.769,45.14l23.234,3.319c18.579,1.329,36.512-0.668,53.105-5.309    C252.906,154.45,268.841,147.811,284.102,138.515z"
           fill="#858585" /></g><g
         id="g145877"><path
           id="path145875"
           d="M279.46,122.58l-9.958-3.319c-13.938,9.958-29.872,16.596-47.129,19.254l-36.512,1.99l-7.305,7.306    l41.159-0.668C242.949,143.156,262.864,135.195,279.46,122.58z"
           fill="#FFE000" /></g><g
         id="g145881"><path
           id="path145879"
           d="M284.77,141.834l17.265-13.277l0.661-1.997v-0.661l-1.33-1.99l-65.717-15.928l-1.334-9.297l-1.983-1.328h-1.335    l-19.915,4.648c-1.322,0-1.983,1.322-1.983,2.658v0.661l1.321,8.629l-17.256,13.944c-17.926,14.599-30.535,24.557-35.85,30.534    l-0.662,1.99v1.329l1.991,1.99l23.902,2.651c19.247,0.668,36.511-0.661,53.769-4.641    C254.229,157.101,270.164,150.462,284.77,141.834z M230.995,110.632c0,1.33,0.668,1.991,1.997,1.991    c21.236,3.98,41.82,9.296,61.734,15.273c-15.93,12.609-35.844,22.566-59.078,28.537l-70.371,2.658    c6.639-7.3,17.264-15.935,31.203-27.214l18.586-14.605l0.668-1.991l0,0l-0.668-8.635l13.943-3.98L230.995,110.632z" /></g><g
         id="g145885"><path
           id="path145883"
           d="M232.992,108.643l-20.576,4.641c-0.668,0.668-1.336,1.335-1.336,1.997c0.668,1.991,1.336,1.991,1.997,1.991l5.978-1.329    l15.26-3.98c1.334,0,1.334-1.33,1.334-2.658C234.98,108.643,234.313,108.643,232.992,108.643z" /></g><g
         id="g145889"><path
           id="path145887"
           d="M215.066,113.952l-40.499,56.426c-1.322,1.329-1.322,1.99,0,3.319l2.659-1.329l41.159-56.426    c0.669-1.323,0.669-1.99-0.668-2.658L215.066,113.952z" /></g><g
         id="g145893"><path
           id="path145891"
           d="M222.373,111.3c-1.336,0.662-1.996,1.323-1.336,2.652l8.635,54.436l2.658,1.99l1.322-1.99l-8.629-55.765    C224.355,111.961,223.034,111.3,222.373,111.3z" /></g><g
         id="g145897"><path
           id="path145895"
           d="M216.396,113.952l-13.938,56.426c-0.668,1.329,0,2.652,0.661,3.319c1.988,0,2.656,0,2.656-1.991l15.262-57.087    c0-0.667,0-1.997-1.982-2.658C218.387,111.961,217.057,111.961,216.396,113.952z" /></g><g
         id="g145901"><path
           id="path145899"
           d="M225.691,110.632c-0.668,0.668-0.668,1.33,0,2.652l30.533,47.136c0.66,1.329,1.99,1.329,2.658,0.667l0.661-2.657    l-30.534-47.798H225.691z" /></g><g
         id="g145905"><path
           id="path145903"
           d="M282.779,147.811c1.322,0.661,1.99,0.661,2.656-0.668c0.662-1.329,0.662-1.99-0.666-2.651l-52.439-35.188l-3.318,0.661    c-0.668,1.335,0,1.997,0.66,2.658L282.779,147.811z" /></g><g
         id="g145909"><path
           id="path145907"
           d="M278.798,275.262l-5.976,5.978l-11.955,5.977l1.997,11.28c1.989-1.322,5.31-1.99,9.296-3.317l13.275-3.981    c4.643-1.997,7.301-4.648,8.623-8.635c0-2.651-0.662-5.97-1.982-7.961l-5.317-0.661h-3.979    C282.117,273.272,281.45,273.272,278.798,275.262z"
           fill="#FFFFFF" /></g><g
         id="g145913"><path
           id="path145911"
           d="M285.438,271.282l-1.336,0.661l-1.983-0.661l-5.978,3.319l-4.646,3.98l-11.948,6.639c-1.329,0-1.329,1.329-1.329,2.658    l2.651,11.279l1.336,1.338h2.651l21.242-6.64c5.979-2.657,9.299-5.977,9.959-10.625c1.321-3.319,0-6.638-1.996-9.958    C292.076,270.62,288.756,269.952,285.438,271.282z M287.421,276.591h1.996l1.99,4.648v0.661c-0.667,3.319-3.319,5.315-7.306,7.299    l-18.58,5.316l-1.336-5.316l9.959-5.97l7.973-6.638H287.421L287.421,276.591z" /></g><g
         id="g145917"><path
           id="path145915"
           d="M222.373,427.283l1.322,16.596l13.938,4.644l9.297-1.984l-1.99-23.902L222.373,427.283z"
           fill="#FFE000" /></g><g
         id="g145921"><path
           id="path145919"
           d="M246.268,421.307l-1.328-0.662l-22.565,5.312l-1.996,1.328l1.328,17.256l1.329,1.33l13.938,4.647h1.329l9.29-1.995    l1.336-2.652l-1.998-23.234L246.268,421.307z M242.949,425.287l1.988,19.914l-7.306,1.336l-11.94-3.988l-1.336-13.274    L242.949,425.287z" /></g><g
         id="g145925"><path
           id="path145923"
           d="M172.585,428.605l-1.336,16.596l13.277,5.977l9.296-1.321l1.328-23.234L172.585,428.605z"
           fill="#FFE000" /></g><g
         id="g145929"><path
           id="path145927"
           d="M171.917,425.955c-0.668,0-1.99,0.666-1.99,1.99l-0.661,17.256c0,0.668,0,0.668,0.661,1.336l13.277,5.969l1.322,0.668    l9.957-0.668l1.336-2.649l1.322-23.234l-0.66-1.334l-1.33-0.662L171.917,425.955z M173.247,443.217l0.662-13.274l19.254-1.336    l-0.662,19.916l-7.974,0.666L173.247,443.217z" /></g><g
         id="g145933"><path
           id="path145931"
           d="M245.605,376.166c-13.942-6.639-25.892-9.957-35.849-9.289c-6.639,0.66-14.606,5.969-25.231,16.594    l-14.599,15.93l-5.316,27.884c0.667,1.99,3.987,3.979,11.292,5.977l13.938,3.98c2.658,0,8.63-3.318,17.919-8.635l27.889,3.985    c3.318,0,6.639-1.328,10.619-3.317l7.961-6.64C256.227,419.984,253.566,404.711,245.605,376.166z"
           fill="#9260C7" /></g><g
         id="g145937"><path
           id="path145935"
           d="M248.927,376.166l-1.336-1.99c-15.261-7.967-27.876-11.287-38.493-9.957c-6.64,1.322-14.613,6.637-25.894,17.256    l-15.273,16.596l-0.662,1.33c-3.98,17.265-5.309,26.556-5.309,28.546c0.667,2.655,4.648,5.313,13.276,7.967l14.605,3.986    c1.991,0,6.64-2.658,14.599-6.64l3.987-1.996l27.222,4.648c3.318-0.668,7.301-1.99,11.941-4.648    c3.986-1.989,6.639-4.643,8.635-6.639C258.884,421.307,256.227,405.371,248.927,376.166z M209.758,369.527    c7.96-0.668,19.254,1.99,34.514,9.289c5.315,20.584,7.976,33.86,7.976,40.5v1.99l-7.308,5.313l-9.291,3.32l-29.211-3.986    l-4.646,3.318c-5.973,3.317-9.957,5.309-11.948,5.309l-11.953-2.658c-6.64-2.649-9.958-4.641-11.281-5.303l5.977-25.892    l16.596-17.926C198.471,374.176,205.107,370.195,209.758,369.527z" /></g><g
         id="g145941"><path
           id="path145939"
           d="M219.715,372.846c-0.66-1.99-1.328-1.99-1.997-1.99l-1.983,1.99l0.662,11.287l-2.66,37.174l-7.959,5.314v1.984v1.336h3.32    l7.299-5.979l1.321-1.328C220.377,399.4,221.705,382.805,219.715,372.846z" /></g><g
         id="g145945"><path
           id="path145943"
           d="M155.989,267.301c-0.667,1.322-0.667,15.26,0.662,39.832l3.98,61.727    c2.658,8.636,0.661,21.252-7.961,36.513l29.873,3.987l28.537-3.987l3.318-13.277v-7.299c3.318,3.979,7.307,6.638,11.953,7.968    l31.863,4.649c-3.986-9.3-7.306-21.246-9.289-35.188l-2.658-19.248c2.658,4.647,5.979,7.305,11.279,9.289l5.979,0.668    c5.977-13.277,7.968-29.871,5.314-47.798l-5.314-23.234l-17.92,4.648c-5.977-13.944-9.957-23.234-13.275-27.882    c-1.996-2.658-6.639-5.309-13.275-7.299l-9.957-3.319l-3.32-8.635l-21.911,1.997l-6.638,8.628l-9.958,6.639    C160.631,261.985,156.65,265.305,155.989,267.301z"
           fill="#D96038" /></g><g
         id="g145949"><path
           id="path145947"
           d="M272.16,305.795l-5.979-24.556c-0.66-1.329-1.328-1.997-3.317-1.329l-15.937,3.987l-11.947-26.553    c-3.317-5.316-11.946-8.635-23.9-11.954l-2.652-7.3c0-0.661-1.328-1.328-2.65-1.328l-21.911,1.328l-1.99,1.991l-6.639,7.967    c-12.609,9.296-19.915,15.267-21.905,18.586l-0.662,7.306l3.319,78.992l3.32,22.566c0,7.973-3.32,17.932-8.635,27.891    l-0.661,1.982l0.661,0.668l1.997,1.33l29.873,4.641l29.205-3.98l1.329-1.321c2.656-4.656,3.318-10.627,3.318-15.937l9.295,5.31    l32.524,3.987l2.651-0.668v-1.987v-1.332c-5.303-11.285-9.29-26.554-11.28-45.14c4.644,3.32,9.297,5.312,14.601,5.312l1.996-1.989    C272.16,340.322,274.145,323.729,272.16,305.795z M157.973,273.272l0.668-5.31c0.667-2.658,7.306-7.967,19.915-15.273l0.667-0.661    l6.638-8.629l18.579-1.329l1.998,6.639l2.658,1.997l11.94,3.98c4.653,1.991,7.974,3.32,8.635,5.31    c3.32,4.648,7.961,13.277,12.615,27.882c0.662,1.989,1.983,1.989,3.317,1.989l16.599-4.647    c3.319,10.618,5.302,21.913,5.302,34.521c0,11.286-1.982,21.243-5.97,30.538c-5.97-0.665-9.958-3.983-12.608-8.633    c-0.669-1.323-1.998-1.992-3.32-1.323c-0.668,0-1.336,1.323-1.336,2.651l1.336,17.924c1.984,13.277,5.305,24.558,8.623,33.854    l-26.554-3.979c-4.642-1.33-8.622-3.98-11.28-7.967c-0.66-0.668-1.996-1.33-3.317,0c-0.661,0-1.329,0.666-1.329,1.989v1.996    c0,5.972-0.668,11.278-2.65,15.931l-25.894,3.317l-26.554-3.317c5.31-9.959,7.961-19.25,7.961-27.224l-3.319-23.233    L157.973,273.272z" /></g><g
         id="g145953"><path
           id="path145951"
           d="M202.458,254.686c-1.336,0-1.997,0.662-1.336,1.991c5.315,24.563,14.612,46.468,26.554,65.716    c6.639,9.295,11.954,17.262,17.264,21.91c0.666,1.324,1.99,1.324,3.318,0c0.669-1.328,0.669-1.996,0-3.318    c-5.309-4.647-10.625-11.286-16.595-21.243c-12.608-18.589-21.905-39.83-27.224-63.732    C204.439,254.686,203.779,254.686,202.458,254.686z" /></g><g
         id="g145957"><path
           id="path145955"
           d="M169.266,273.272v-2.652l-6.639,78.325c-15.273,15.272-26.554,25.229-33.859,28.549l10.625,6.639    c9.958,5.309,19.915,7.961,29.873,8.629c7.299-5.309,14.599-13.277,22.567-23.234c15.929-19.913,27.222-41.819,33.19-65.053    l-49.121-25.231C172.585,277.259,170.588,275.262,169.266,273.272z"
           fill="#D96038" /></g><g
         id="g145961"><path
           id="path145959"
           d="M166.608,269.952v1.33c0,3.319,2.658,7.299,7.3,9.958l47.797,25.224c-5.971,20.584-15.93,40.498-29.872,59.078    l-22.567,23.899c-13.945-0.668-25.893-5.309-35.85-11.946l31.195-27.216l1.335-1.334l-1.335-1.983    c-1.322-0.666-1.984-0.666-3.319,0c-15.26,15.929-26.554,25.22-33.191,27.877l-1.322,1.996v2.649l11.948,7.308    c9.957,5.304,19.915,7.299,30.54,8.621l1.983-0.66l23.234-24.558c15.273-19.916,26.554-41.163,32.531-65.061    c0.66-1.322,0-1.99-1.324-2.658c-27.889-13.938-43.815-22.565-49.125-25.885l-3.98-3.319l-0.667-1.99    c0.667-1.33,0-2.658-1.99-3.319C168.598,267.962,167.269,267.962,166.608,269.952z" /></g><g
         id="g145965"><path
           id="path145963"
           d="M181.875,256.676c3.986,3.319,9.29,4.648,13.943,4.648c7.301-0.662,12.608-4.648,15.262-12.616    c0.668-1.322,0-1.99-1.322-2.658c-0.66-0.661-1.997,0-1.997,1.335c-2.651,5.971-6.639,9.29-12.608,9.29    c-3.318,0.667-7.307-0.668-11.947-3.319l-4.648-4.648c-0.667-0.661-1.991-0.661-2.652,0c-0.667,1.329-1.335,1.997,0,2.658    L181.875,256.676z" /></g><g
         id="g145969"><path
           id="path145967"
           d="M179.885,281.9c-0.661,1.329,0,1.997,1.322,2.658l2.658-1.997l5.314-24.556l-2.656,1.322l-1.331-1.322L179.885,281.9z" /></g><g
         id="g145973"><path
           id="path145971"
           d="M199.8,244.728c7.962-2.658,12.616-6.639,15.267-12.615c0.668-2.658,0.668-6.638-1.988-10.619    c-1.997-5.316-4.648-8.635-7.969-11.287l-3.986,11.947C198.471,231.452,198.471,239.413,199.8,244.728z" /></g><g
         id="g145977"><path
           id="path145975"
           d="M179.224,212.198v19.915c0,3.98,1.983,7.3,5.303,9.957c2.659,2.658,5.315,3.981,8.636,3.32    c6.638-0.662,11.278-3.98,12.614-10.619v-14.605l-0.668-8.628l-9.291-3.319C188.514,206.888,182.543,208.217,179.224,212.198z"
           fill="#FFFFFF" /></g><g
         id="g145981"><path
           id="path145979"
           d="M208.428,234.771l0.67-13.938l-1.336-9.296l-1.324-1.997l-10.619-3.98c-7.973-1.323-13.942,0-18.59,4.648l-0.662,1.99    v19.915c0,4.648,1.991,8.635,5.978,12.615c3.318,2.658,6.638,3.98,10.619,3.319C201.79,248.047,206.438,243.399,208.428,234.771z     M202.458,213.527l1.321,14.605l-0.66,5.31c-0.661,5.971-4.648,9.29-10.619,9.957c-1.996,0-3.986-1.329-6.639-3.319    c-2.657-1.991-3.318-4.648-3.318-7.967l-0.668-18.586C186.523,209.54,193.162,209.54,202.458,213.527z" /></g><g
         id="g145985"><path
           id="path145983"
           d="M179.224,212.198l25.885-0.661l-1.989-21.244c-0.661-1.99-5.315-3.319-13.938-3.987    c-7.974-0.66-13.277,0.668-14.612,2.659c-0.66,1.329,0,4.648,1.335,8.635C177.889,202.901,179.224,208.217,179.224,212.198z"
           fill="#9260C7" /></g><g
         id="g145989"><path
           id="path145987"
           d="M205.775,214.855c1.322-0.661,1.984-1.329,1.984-3.319c0-11.287-0.662-18.592-1.984-22.573    c-1.336-3.319-6.639-5.31-16.596-5.31c-9.296-0.668-15.271,0.667-16.596,3.986c-1.336,2.652-0.667,5.971,0.662,10.619    l3.319,13.938c0,1.997,1.323,2.658,2.658,2.658L205.775,214.855L205.775,214.855z M201.122,191.621    c0.668,1.991,1.336,8.629,1.336,17.258l-20.583,1.329l-5.31-18.586v-1.329l6.639-1.99l11.278,1.322L201.122,191.621z" /></g><g
         id="g145993"><path
           id="path145991"
           d="M236.311,333.018l-1.996-1.99l0.668-1.329l-21.904,3.319l-1.329,1.99l0.668,49.787c0,1.328,0.661,1.996,1.981,1.996    l1.998-1.996l-0.662-48.459L236.311,333.018z" /></g><g
         id="g145997"><path
           id="path145995"
           d="M191.165,367.537c-1.983,13.275-5.304,27.215-9.958,41.152c-0.661,0.67,0,1.338,1.336,1.998    c0.661,1.321,1.983,0.66,2.65-1.328c3.987-13.279,7.307-27.224,9.958-41.162c0.668-1.988,0-1.988-1.988-1.988    C192.5,365.541,191.833,366.209,191.165,367.537z" /></g><g
         id="g146001"><path
           id="path145999"
           d="M225.691,331.688l-2.657-0.66l-0.661,1.99v0.668c5.971,6.637,9.957,17.918,12.607,33.853h-8.629    c0-4.647-1.328-11.285-5.314-20.576l-5.303-13.274c-0.668-0.668-1.998-0.668-3.318-0.668c-0.668,0.668-0.668,1.328-0.668,2.651    l5.97,13.942c3.319,9.289,5.316,15.929,4.655,19.914l0.661,1.99l1.989,0.662l12.608-0.662l1.335-0.662v-1.328    C237.633,352.932,232.992,340.322,225.691,331.688z" /></g><g
         id="g146005"><path
           id="path146003"
           d="M244.271,285.22l-4.642,3.98c-2.657,3.319-3.981,7.306-4.647,11.294c-0.668,0.658,0,1.982,1.328,2.65l2.657-1.992    c0-3.979,1.323-6.637,3.319-9.294l3.98-3.319c1.322-0.661,1.989-1.323,0.66-2.658C246.268,284.558,245.605,284.558,244.271,285.22    z" /></g><g
         id="g146009"><path
           id="path146007"
           d="M178.556,218.836L178.556,218.836l0.667,1.329l9.289,3.319v7.306l0.668,1.323l1.984-1.323v-7.974l-1.323-1.322    l-9.957-3.32C179.224,218.174,178.556,218.174,178.556,218.836z" /></g><g
         id="g146013"><path
           id="path146011"
           d="M202.458,218.836l-5.978,1.329l-0.662,1.99l1.322,1.329l5.979-1.99c1.32,0,1.32,0,1.32-1.329    S203.779,218.836,202.458,218.836z" /></g><g
         id="g146017"><path
           id="path146015"
           d="M265.521,99.346c3.979-17.257,5.972-36.511,3.979-57.087l17.919,26.553    c11.954,20.576,20.583,39.831,24.569,58.416l19.915,80.328c9.958,33.854,21.897,55.091,34.515,65.716    c-9.298-53.107-13.277-98.247-12.616-134.757c1.336-28.551-3.318-56.426-11.939-84.309C331.905,24.334,319.29,3.09,302.694-9.523    L185.861,2.429l6.639,13.938c7.3,11.287,15.928,21.244,26.555,30.534C236.311,62.174,252.246,79.431,265.521,99.346z"
           fill="#858585" /></g><g
         id="g146021"><path
           id="path146019"
           d="M280.782-6.203l-3.319-0.665c-1.982,1.329-1.982,2.658-0.661,3.984l21.912,30.537    c15.261,24.563,25.218,49.121,29.204,73.022l17.265,106.213c3.979,21.905,8.621,41.159,14.6,57.755    c0.66,1.323,1.996,1.99,3.318,1.323c1.997-0.661,1.997-1.984,1.997-3.98c-5.978-15.267-11.294-33.853-15.273-56.426    l-17.257-105.552c-3.98-24.557-13.938-49.788-29.211-75.673L280.782-6.203z" /></g><g
         id="g146025"><path
           id="path146023"
           d="M205.775-7.529c-0.668-1.33-2.656-1.33-3.317,0c-0.668,1.326-0.668,3.319,0,3.98l20.576,25.893    c15.934,21.905,27.214,43.81,35.182,66.383c0.668,1.99,1.329,2.658,3.319,1.99c1.329,0,2.65-1.99,1.329-3.319    c-7.97-23.235-19.915-45.801-35.188-68.374L205.775-7.529z" /></g><g
         id="g146029"><path
           id="path146027"
           d="M205.107-3.549c-1.988,15.935,0,30.534,3.319,45.808c0.669,1.322,1.33,1.322,2.652,1.322c1.336,0,1.336-0.662,1.336-2.651    c-3.319-14.605-4.655-28.544-3.319-43.813l-2.658-1.99L205.107-3.549z" /></g><g
         id="g146033"><path
           id="path146031"
           d="M223.034,18.363c-0.661,1.984-1.329,5.303-1.997,11.28c-1.322,8.635,0,17.256,3.318,25.892    c0,1.323,1.336,1.99,1.996,1.323c1.991-0.661,1.991-1.323,1.991-2.651c-2.651-7.967-3.987-15.928-3.319-24.563l1.328-9.958    c1.323-0.661,0.662-1.99-0.66-2.658C224.355,17.028,223.034,17.028,223.034,18.363z" /></g><g
         id="g146037"><path
           id="path146035"
           d="M238.301,42.259l-1.328,8.628c-1.324,6.638-1.324,11.947,0,16.596c0,1.329,0.66,1.329,1.995,1.329    c1.984,0,1.984-0.661,1.984-2.658V50.887l1.335-7.968c0-1.99-0.667-2.657-1.335-2.657    C239.63,40.262,238.968,40.262,238.301,42.259z" /></g><g
         id="g146041"><path
           id="path146039"
           d="M262.864,36.282c-6.64-7.3-13.938-11.948-23.896-15.267l-13.276-1.991c-0.668,0-1.334,0-1.334,1.323    c0,1.997,0.666,1.997,1.334,1.997l11.941,2.658c8.635,2.651,16.598,7.299,22.573,13.938h2.658    C264.188,38.278,264.188,36.943,262.864,36.282z" /></g><g
         id="g146045"><path
           id="path146043"
           d="M266.184,60.845c1.321-0.667,1.99-1.329,0.662-1.991c-4.643-7.967-11.279-13.276-17.919-16.595l-9.297-1.997    c-0.662,0-1.329,1.335-1.329,1.997c0,1.99,0.667,1.99,1.99,1.99l7.967,1.991c5.973,2.657,10.626,7.299,15.27,14.605    C264.188,62.174,264.854,62.174,266.184,60.845z" /></g><g
         id="g146049"><path
           id="path146047"
           d="M284.77,4.419c-3.318,21.244-3.986,40.498-2.651,57.755c0,1.989,0,1.989,1.983,1.989l1.336-1.989    c-0.668-17.925,0-36.511,3.318-56.426l-1.335-2.658C285.438,3.09,284.77,3.09,284.77,4.419z" /></g><g
         id="g146053"><path
           id="path146051"
           d="M276.141-9.523l-1.328-1.99l-2.651,1.326c-3.319,16.596-4.655,31.202-4.655,44.478c0,1.329,0.669,1.99,1.997,1.99    l1.991-1.99C271.493,21.682,272.16,7.073,276.141-9.523z" /></g><g
         id="g146057"><path
           id="path146055"
           d="M300.697,28.32l-3.319,23.896c-1.981,15.935-2.651,28.543-1.321,37.172l2.657,1.329l1.322-1.99    c-1.322-7.967-1.322-21.244,1.328-37.172c1.33-14.612,2.651-21.911,3.319-22.573l-1.989-1.997    C301.364,26.325,300.697,26.985,300.697,28.32z" /></g><g
         id="g146061"><path
           id="path146059"
           d="M317.961,62.174c-6.638,14.599-9.29,31.862-9.29,51.777c0,1.329,0,1.99,1.983,1.99l1.336-1.99    c0-19.248,3.318-35.843,9.29-49.788c0.667-1.989,0-2.651-0.668-3.319C318.628,60.177,317.961,60.845,317.961,62.174z" /></g><g
         id="g146065"><path
           id="path146063"
           d="M328.586,102.665l-5.314,14.606c-3.98,10.625-5.311,21.244-5.979,31.201c0,1.322,0.668,1.99,1.997,1.99l1.99-1.99    c0.667-9.957,1.989-19.915,5.971-30.534l5.315-13.277c0-1.335,0-2.658-0.661-2.658    C330.57,101.343,329.247,102.004,328.586,102.665z" /></g><g
         id="g146069"><path
           id="path146067"
           d="M335.225,140.505l-4.653,14.606c-3.319,9.958-4.643,19.915-4.643,28.543c0,1.329,1.322,1.991,2.657,1.991l1.984-1.991    c-0.662-8.629,0.667-17.925,3.985-28.543l3.987-13.277c0-0.662,0-1.329-0.669-1.997    C335.886,138.515,335.225,139.176,335.225,140.505z" /></g><g
         id="g146073"><path
           id="path146071"
           d="M340.527,179.006l-1.983,15.274c-1.336,10.619-1.997,19.915-1.336,26.553l1.996,1.322l1.99-1.99    c-0.667-6.638,0-15.267,0.669-25.225l2.649-14.605c0.669-1.99,0-1.99-1.989-1.99C341.863,177.684,341.194,178.345,340.527,179.006    z" /></g><g
         id="g146077"><path
           id="path146075"
           d="M298.714,24.334c-0.669,1.329,0,1.991,0.661,2.651l12.615,5.316c8.622,4.642,16.596,10.619,23.233,17.258l3.319,0.661    c0.66-1.322,0.66-1.984,0-3.319c-7.307-7.299-15.935-13.276-24.569-17.918l-13.276-5.978    C299.375,22.344,298.714,23.004,298.714,24.334z" /></g><g
         id="g146081"><path
           id="path146079"
           d="M315.972,58.854l1.989,1.991l5.971,3.319l16.597,12.61c1.336,0.667,1.336,0.667,2.657,0c1.328-1.323,1.328-1.984,0-2.652    c-5.978-5.971-11.947-10.625-17.918-13.277l-6.64-3.319L315.972,58.854z" /></g><g
         id="g146085"><path
           id="path146083"
           d="M328.586,100.007c-0.668,0.667,0,1.997,0.661,1.997l7.3,4.642c5.316,3.986,10.618,10.625,15.273,17.264l2.651,1.329    c1.329-1.329,1.99-1.996,0.667-3.319c-4.654-7.967-10.626-13.938-16.596-18.593l-7.307-4.642    C329.247,98.684,328.586,98.684,328.586,100.007z" /></g><g
         id="g146089"><path
           id="path146087"
           d="M334.557,133.867c-1.329,1.328-1.329,1.328,0,2.651l7.308,7.306c5.97,6.638,9.957,11.287,11.939,15.928    c0,1.335,1.336,1.997,2.659,0.668l0.659-2.651c-1.982-4.654-6.638-9.958-11.939-15.935l-7.975-7.967H334.557z" /></g><g
         id="g146093"><path
           id="path146091"
           d="M339.866,171.045c-1.322,0.661-0.662,1.323,0.661,2.652l4.654,4.648l8.621,10.619l3.318,1.329v-3.319l-9.957-11.948    l-4.642-4.648L339.866,171.045z" /></g></g><rect
       ry="30"
       rx="30"
       y="1"
       x="1"
       height="585"
       width="370"
       id="rect12023-5-0"
       style="color:#000000;clip-rule:nonzero;display:inline;overflow:visible;visibility:visible;opacity:1;isolation:auto;mix-blend-mode:normal;color-interpolation:sRGB;color-interpolation-filters:linearRGB;solid-color:#000000;solid-opacity:1;vector-effect:none;fill:none;fill-opacity:1;fill-rule:nonzero;stroke:#000000;stroke-width:10;stroke-linecap:butt;stroke-linejoin:miter;stroke-miterlimit:4;stroke-dasharray:none;stroke-dashoffset:0;stroke-opacity:1;color-rendering:auto;image-rendering:auto;shape-rendering:auto;text-rendering:auto;enable-background:accumulate" /><rect
       ry="30"
       rx="30"
       y="1"
       x="1"
       height="585"
       width="370"
       id="rect12023-5-3"
       style="color:#000000;clip-rule:nonzero;display:inline;overflow:visible;visibility:visible;opacity:1;isolation:auto;mix-blend-mode:normal;color-interpolation:sRGB;color-interpolation-filters:linearRGB;solid-color:#000000;solid-opacity:1;vector-effect:none;fill:#d2f3f4;fill-opacity:0;fill-rule:nonzero;stroke:none;stroke-width:1.50000012;stroke-linecap:butt;stroke-linejoin:miter;stroke-miterlimit:4;stroke-dasharray:none;stroke-dashoffset:0;stroke-opacity:1;color-rendering:auto;image-rendering:auto;shape-rendering:auto;text-rendering:auto;enable-background:accumulate" /></g></svg>