<?xml version="1.0" encoding="UTF-8" standalone="no"?>
<!-- Generator: Adobe Illustrator 13.0.0, SVG Export Plug-In . SVG Version: 6.00 Build 14948)  -->

<svg
   xmlns:dc="http://purl.org/dc/elements/1.1/"
   xmlns:cc="http://creativecommons.org/ns#"
   xmlns:rdf="http://www.w3.org/1999/02/22-rdf-syntax-ns#"
   xmlns:svg="http://www.w3.org/2000/svg"
   xmlns="http://www.w3.org/2000/svg"
   xmlns:sodipodi="http://sodipodi.sourceforge.net/DTD/sodipodi-0.dtd"
   xmlns:inkscape="http://www.inkscape.org/namespaces/inkscape"
   version="1.1"
   id="圖層_1"
   x="0px"
   y="0px"
   width="94.48819"
   height="147.94861"
   viewBox="0 0 94.488189 147.94861"
   enable-background="new 0 0 372 587"
   xml:space="preserve"
   sodipodi:docname="Hanafuda_1-3.svg"
   inkscape:version="0.92.2 5c3e80d, 2017-08-06"><metadata
     id="metadata11435"><rdf:RDF><cc:Work
         rdf:about=""><dc:format>image/svg+xml</dc:format><dc:type
           rdf:resource="http://purl.org/dc/dcmitype/StillImage" /><dc:title></dc:title></cc:Work></rdf:RDF></metadata><defs
     id="defs11433"><clipPath
       clipPathUnits="userSpaceOnUse"
       id="clipPath11452"><rect
         style="color:#000000;clip-rule:nonzero;display:inline;overflow:visible;visibility:visible;opacity:1;isolation:auto;mix-blend-mode:normal;color-interpolation:sRGB;color-interpolation-filters:linearRGB;solid-color:#000000;solid-opacity:1;vector-effect:none;fill:#214d68;fill-opacity:1;fill-rule:nonzero;stroke:none;stroke-width:1.50000012;stroke-linecap:butt;stroke-linejoin:miter;stroke-miterlimit:4;stroke-dasharray:none;stroke-dashoffset:0;stroke-opacity:1;color-rendering:auto;image-rendering:auto;shape-rendering:auto;text-rendering:auto;enable-background:accumulate"
         id="rect11454"
         width="370"
         height="585"
         x="1"
         y="1"
         rx="30"
         ry="30" /></clipPath></defs><sodipodi:namedview
     pagecolor="#ffffff"
     bordercolor="#666666"
     borderopacity="1"
     objecttolerance="10"
     gridtolerance="10"
     guidetolerance="10"
     inkscape:pageopacity="0"
     inkscape:pageshadow="2"
     inkscape:window-width="1280"
     inkscape:window-height="751"
     id="namedview11431"
     showgrid="false"
     inkscape:snap-global="false"
     inkscape:zoom="2.5921706"
     inkscape:cx="33.561271"
     inkscape:cy="56.221197"
     inkscape:window-x="0"
     inkscape:window-y="1"
     inkscape:window-maximized="1"
     inkscape:current-layer="圖層_1"
     fit-margin-top="0"
     fit-margin-left="0"
     fit-margin-right="0"
     fit-margin-bottom="0" /><g
     id="C03"><rect
       ry="7.4595938"
       rx="7.4595938"
       y="1.2432656"
       x="1.2432656"
       height="145.46208"
       width="92.001656"
       id="rect12023"
       style="color:#000000;clip-rule:nonzero;display:inline;overflow:visible;visibility:visible;opacity:1;isolation:auto;mix-blend-mode:normal;color-interpolation:sRGB;color-interpolation-filters:linearRGB;solid-color:#000000;solid-opacity:1;vector-effect:none;fill:#f4e9d2;fill-opacity:1;fill-rule:nonzero;stroke:none;stroke-width:0.3729797;stroke-linecap:butt;stroke-linejoin:miter;stroke-miterlimit:4;stroke-dasharray:none;stroke-dashoffset:0;stroke-opacity:1;color-rendering:auto;image-rendering:auto;shape-rendering:auto;text-rendering:auto;enable-background:accumulate" /><g
       transform="matrix(0.24865313,0,0,0.24865313,0.99461252,0.99461252)"
       clip-path="url(#clipPath11452)"
       id="g11427"><g
         id="g10711"><g
           id="g10709"><path
             id="path10707"
             d="M 72.677,38.776 71.316,35.374 C 69.953,34.011 69.273,33.331 67.914,33.331 66.552,33.331 65.192,34.011 64.511,35.374 L 62.468,38.776 C 62.468,42.181 64.511,43.54 67.915,43.54 71.316,43.54 72.677,42.181 72.677,38.776 Z"
             inkscape:connector-curvature="0"
             style="fill:#333333" /></g></g><g
         id="g10717"><g
           id="g10715"><path
             id="path10713"
             d="M 52.259,29.926 C 52.259,26.524 50.217,25.163 46.814,25.163 44.093,25.163 42.049,26.523 42.049,29.926 42.049,33.33 44.094,35.373 46.814,35.373 50.218,35.373 52.259,33.33 52.259,29.926 Z"
             inkscape:connector-curvature="0"
             style="fill:#333333" /></g></g><g
         id="g10723"><g
           id="g10721"><path
             id="path10719"
             d="M 44.093,85.057 C 44.093,81.654 42.049,80.291 38.646,80.291 35.925,80.291 33.884,81.653 33.884,85.057 33.884,88.459 35.926,90.501 38.646,90.501 42.049,90.5 44.093,88.459 44.093,85.057 Z"
             inkscape:connector-curvature="0"
             style="fill:#333333" /></g></g><g
         id="g10729"><g
           id="g10727"><path
             id="path10725"
             d="M 141.418,27.206 C 141.418,23.802 140.061,21.762 136.656,21.762 133.931,21.762 131.891,23.802 131.891,27.206 131.891,29.926 133.931,31.971 136.656,31.971 140.061,31.972 141.418,29.926 141.418,27.206 Z"
             inkscape:connector-curvature="0"
             style="fill:#333333" /></g></g><g
         id="g10735"><g
           id="g10733"><path
             id="path10731"
             d="M 108.069,29.246 C 108.069,25.843 106.705,23.802 103.305,23.802 99.901,23.802 98.541,25.843 98.541,29.246 98.541,31.972 99.901,34.011 103.305,34.011 106.706,34.011 108.069,31.972 108.069,29.246 Z"
             inkscape:connector-curvature="0"
             style="fill:#333333" /></g></g><g
         id="g10741"><g
           id="g10739"><path
             id="path10737"
             d="M 223.771,9.51 C 220.373,9.51 219.008,11.552 219.008,14.955 219.008,18.358 220.372,19.717 223.771,19.717 227.176,19.717 228.541,18.358 228.541,14.955 228.54,11.552 227.176,9.51 223.771,9.51 Z"
             inkscape:connector-curvature="0"
             style="fill:#333333" /></g></g><g
         id="g10747"><g
           id="g10745"><path
             id="path10743"
             d="M 185.66,31.29 C 185.66,27.887 183.617,25.843 180.214,25.843 177.493,25.843 176.131,27.886 176.131,31.29 176.131,34.011 177.495,36.051 180.214,36.051 183.617,36.051 185.66,34.011 185.66,31.29 Z"
             inkscape:connector-curvature="0"
             style="fill:#333333" /></g></g><g
         id="g10753"><g
           id="g10751"><path
             id="path10749"
             d="M 36.606,122.49 C 36.606,119.087 35.245,117.046 31.839,117.046 30.481,117.046 29.117,117.723 28.437,119.086 27.758,119.768 27.077,120.448 27.077,122.488 L 28.437,125.892 C 29.117,127.253 30.48,127.253 31.839,127.253 35.245,127.254 36.606,125.894 36.606,122.49 Z"
             inkscape:connector-curvature="0"
             style="fill:#333333" /></g></g><g
         id="g10759"><g
           id="g10757"><path
             id="path10755"
             d="M 59.063,154.48 C 59.063,151.077 57.706,149.714 54.302,149.714 52.939,149.714 52.259,150.395 50.898,151.076 49.538,152.435 49.538,153.117 49.538,154.479 L 50.898,158.559 54.302,159.923 C 57.707,159.923 59.063,157.882 59.063,154.48 Z"
             inkscape:connector-curvature="0"
             style="fill:#333333" /></g></g><g
         id="g10765"><g
           id="g10763"><path
             id="path10761"
             d="M 48.177,181.705 C 48.177,178.302 46.134,176.257 42.731,176.257 39.328,176.257 37.968,178.301 37.968,181.705 37.968,184.425 39.328,185.784 42.731,185.784 46.134,185.784 48.177,184.425 48.177,181.705 Z"
             inkscape:connector-curvature="0"
             style="fill:#333333" /></g></g><g
         id="g10771"><g
           id="g10769"><path
             id="path10767"
             d="M 35.924,51.708 C 35.924,48.305 33.882,46.261 30.481,46.261 27.758,46.261 25.713,48.305 25.713,51.708 25.713,55.11 27.757,56.47 30.481,56.47 33.883,56.47 35.924,55.11 35.924,51.708 Z"
             inkscape:connector-curvature="0"
             style="fill:#333333" /></g></g><g
         id="g10777"><g
           id="g10775"><path
             id="path10773"
             d="M 34.566,14.955 C 34.566,11.553 32.522,9.51 29.119,9.51 26.397,9.51 25.034,11.552 25.034,14.955 25.034,18.358 26.397,19.717 29.119,19.717 32.521,19.717 34.566,18.358 34.566,14.955 Z"
             inkscape:connector-curvature="0"
             style="fill:#333333" /></g></g><g
         id="g10783"><g
           id="g10781"><path
             id="path10779"
             d="M 314.292,19.037 312.929,15.633 308.846,13.593 C 306.123,13.593 304.768,15.633 304.768,19.037 304.768,22.441 306.123,23.803 308.846,23.803 L 312.929,22.441 Z"
             inkscape:connector-curvature="0"
             style="fill:#333333" /></g></g><g
         id="g10789"><g
           id="g10787"><path
             id="path10785"
             d="M 281.624,25.163 280.259,21.762 276.86,19.717 C 273.453,19.717 271.414,21.762 271.414,25.163 271.414,28.567 273.453,29.926 276.86,29.926 L 280.259,28.567 Z"
             inkscape:connector-curvature="0"
             style="fill:#333333" /></g></g><g
         id="g10795"><g
           id="g10793"><path
             id="path10791"
             d="M 343.558,38.776 C 343.558,35.374 342.2,34.011 338.797,34.011 335.394,34.011 333.346,35.374 333.346,38.776 333.346,42.181 335.394,44.219 338.797,44.219 342.199,44.219 343.558,42.181 343.558,38.776 Z"
             inkscape:connector-curvature="0"
             style="fill:#333333" /></g></g><g
         id="g10801"><g
           id="g10799"><path
             id="path10797"
             d="M 355.812,61.916 C 355.812,58.514 353.767,56.469 351.046,56.469 349.686,56.469 349.008,57.831 347.643,58.513 346.281,59.194 346.281,60.554 346.281,61.915 346.281,64.637 347.643,66.676 351.047,66.676 353.767,66.679 355.812,64.638 355.812,61.916 Z"
             inkscape:connector-curvature="0"
             style="fill:#333333" /></g></g><g
         id="g10807"><g
           id="g10805"><path
             id="path10803"
             d="M 240.785,28.568 C 240.785,25.165 239.423,23.121 236.019,23.121 233.301,23.121 231.256,25.164 231.256,28.568 231.256,31.29 233.302,32.649 236.019,32.649 239.426,32.649 240.785,31.29 240.785,28.568 Z"
             inkscape:connector-curvature="0"
             style="fill:#333333" /></g></g><g
         id="g10813"><g
           id="g10811"><path
             id="path10809"
             d="M 357.168,15.633 355.812,12.231 C 355.128,11.554 353.089,10.872 352.41,10.872 349.01,10.872 346.961,12.231 346.961,15.633 346.961,19.037 349.01,21.08 352.41,21.08 L 355.812,19.717 Z"
             inkscape:connector-curvature="0"
             style="fill:#333333" /></g></g><g
         id="g10819"><g
           id="g10817"><path
             id="path10815"
             d="M 322.458,40.817 321.096,36.734 317.696,35.373 C 314.293,35.373 312.253,36.734 312.253,40.817 312.253,44.219 314.293,45.583 317.696,45.583 319.056,45.583 319.738,45.583 321.096,44.219 Z"
             inkscape:connector-curvature="0"
             style="fill:#333333" /></g></g><g
         id="g10825"><g
           id="g10823"><path
             id="path10821"
             d="M 352.409,85.057 350.362,81.654 346.96,80.292 C 343.559,80.292 342.201,81.654 342.201,85.058 342.201,88.46 343.558,90.502 346.96,90.502 L 350.362,89.141 Z"
             inkscape:connector-curvature="0"
             style="fill:#333333" /></g></g><g
         id="g10831"><g
           id="g10829"><path
             id="path10827"
             d="M 328.587,87.098 327.224,83.693 C 325.865,83.016 325.186,82.335 323.137,82.335 320.419,82.335 319.056,83.693 319.056,87.098 319.056,90.501 320.42,92.543 323.137,92.543 L 327.224,91.181 Z"
             inkscape:connector-curvature="0"
             style="fill:#333333" /></g></g><g
         id="g10837"><g
           id="g10835"><path
             id="path10833"
             d="M 352.409,131.337 350.362,127.933 346.96,125.893 C 343.559,125.893 342.201,127.933 342.201,131.337 342.201,134.738 343.558,136.101 346.96,136.101 L 350.362,134.738 Z"
             inkscape:connector-curvature="0"
             style="fill:#333333" /></g></g><g
         id="g10843"><g
           id="g10841"><path
             id="path10839"
             d="M 339.474,110.241 338.797,106.838 C 337.434,105.475 336.073,104.792 334.71,104.792 331.991,104.792 329.942,106.838 329.942,110.241 329.942,113.642 331.991,115.003 334.71,115.003 L 338.797,113.643 Z"
             inkscape:connector-curvature="0"
             style="fill:#333333" /></g></g><g
         id="g10849"><g
           id="g10847"><path
             id="path10845"
             d="M 358.53,156.519 C 358.53,153.117 356.49,151.752 353.089,151.752 349.687,151.752 348.32,153.116 348.32,156.519 348.32,159.922 349.686,161.285 353.089,161.285 356.49,161.286 358.53,159.923 358.53,156.519 Z"
             inkscape:connector-curvature="0"
             style="fill:#333333" /></g></g><g
         id="g10855"><g
           id="g10853"><path
             id="path10851"
             d="M 264.608,14.273 C 264.608,10.872 263.244,8.827 259.844,8.827 257.123,8.827 255.076,10.871 255.076,14.273 255.076,16.995 257.123,19.036 259.844,19.036 263.244,19.037 264.608,16.995 264.608,14.273 Z"
             inkscape:connector-curvature="0"
             style="fill:#333333" /></g></g><g
         id="g10861"><g
           id="g10859"><path
             id="path10857"
             d="M 165.92,14.955 C 165.92,11.553 164.557,9.51 161.156,9.51 158.433,9.51 156.395,11.552 156.395,14.955 156.395,18.358 158.434,19.717 161.156,19.717 164.557,19.717 165.92,18.358 165.92,14.955 Z"
             inkscape:connector-curvature="0"
             style="fill:#333333" /></g></g><g
         id="g10867"><g
           id="g10865"><path
             id="path10863"
             d="M 86.971,15.633 C 86.971,12.231 84.929,10.872 81.526,10.872 78.127,10.872 76.762,12.231 76.762,15.633 76.762,19.037 78.125,21.08 81.526,21.08 84.929,21.08 86.971,19.037 86.971,15.633 Z"
             inkscape:connector-curvature="0"
             style="fill:#333333" /></g></g><g
         id="g10873"><g
           id="g10871"><path
             id="path10869"
             d="M 56.342,52.388 C 56.342,48.986 54.301,47.623 50.897,47.623 48.177,47.623 46.132,48.985 46.132,52.388 46.132,55.792 48.177,57.832 50.897,57.832 54.302,57.833 56.342,55.792 56.342,52.388 Z"
             inkscape:connector-curvature="0"
             style="fill:#333333" /></g></g><g
         id="g10879"><g
           id="g10877"><path
             id="path10875"
             d="M 35.924,145.629 C 35.924,142.225 33.882,140.866 30.481,140.866 27.758,140.866 25.713,142.225 25.713,145.629 25.713,149.032 27.757,151.075 30.481,151.075 33.883,151.076 35.924,149.033 35.924,145.629 Z"
             inkscape:connector-curvature="0"
             style="fill:#333333" /></g></g><g
         id="g10885"><g
           id="g10883"><path
             id="path10881"
             d="M 36.606,225.263 C 36.606,221.859 35.245,219.815 31.839,219.815 28.437,219.815 27.076,221.859 27.076,225.263 27.076,227.985 28.436,230.024 31.839,230.024 35.245,230.023 36.606,227.984 36.606,225.263 Z"
             inkscape:connector-curvature="0"
             style="fill:#333333" /></g></g><g
         id="g10891"><g
           id="g10889"><path
             id="path10887"
             d="M 65.191,113.643 C 65.191,110.242 63.149,108.877 60.427,108.877 57.024,108.877 55.659,110.241 55.659,113.643 55.659,117.046 57.024,119.087 60.427,119.087 63.149,119.086 65.191,117.046 65.191,113.643 Z"
             inkscape:connector-curvature="0"
             style="fill:#333333" /></g></g><g
         id="g10897"><g
           id="g10895"><path
             id="path10893"
             d="M 44.774,108.877 C 44.774,105.475 42.73,103.433 39.327,103.433 36.605,103.433 35.244,105.475 35.244,108.877 35.244,112.28 36.605,113.643 39.327,113.643 42.73,113.643 44.774,112.28 44.774,108.877 Z"
             inkscape:connector-curvature="0"
             style="fill:#333333" /></g></g><g
         id="g10903"><g
           id="g10901"><path
             id="path10899"
             d="M 33.883,74.849 C 33.883,71.445 31.84,70.083 28.438,70.083 25.715,70.083 23.675,71.445 23.675,74.849 23.675,78.25 25.715,79.615 28.438,79.615 31.84,79.614 33.883,78.249 33.883,74.849 Z"
             inkscape:connector-curvature="0"
             style="fill:#333333" /></g></g><g
         id="g10909"><g
           id="g10907"><path
             id="path10905"
             d="M 206.081,19.717 C 206.081,16.315 204.03,14.955 200.629,14.955 197.911,14.955 196.55,16.315 196.55,19.717 196.55,23.12 197.912,25.163 200.629,25.163 204.03,25.163 206.081,23.121 206.081,19.717 Z"
             inkscape:connector-curvature="0"
             style="fill:#333333" /></g></g><g
         id="g10915"><g
           id="g10913"><path
             id="path10911"
             d="M 229.899,46.261 C 229.899,42.858 227.853,41.499 224.448,41.499 221.049,41.499 219.691,42.857 219.691,46.261 219.691,49.663 221.048,51.026 224.448,51.026 227.854,51.026 229.899,49.663 229.899,46.261 Z"
             inkscape:connector-curvature="0"
             style="fill:#333333" /></g></g><g
         id="g10921"><g
           id="g10919"><path
             id="path10917"
             d="M 91.735,51.026 C 91.735,47.624 90.373,45.583 86.971,45.583 83.568,45.583 81.526,47.624 81.526,51.026 81.526,53.749 83.568,55.792 86.971,55.792 90.373,55.792 91.735,53.749 91.735,51.026 Z"
             inkscape:connector-curvature="0"
             style="fill:#333333" /></g></g><g
         id="g10927"><g
           id="g10925"><path
             id="path10923"
             d="M 122.363,12.912 C 122.363,9.51 120.999,8.151 117.597,8.151 114.193,8.151 112.152,9.51 112.152,12.912 112.152,15.633 114.194,17.677 117.597,17.677 121,17.677 122.363,15.633 122.363,12.912 Z"
             inkscape:connector-curvature="0"
             style="fill:#333333" /></g></g><g
         id="g10933"><g
           id="g10931"><path
             id="path10929"
             d="M 64.51,13.592 C 64.51,10.189 62.467,8.827 59.063,8.827 56.342,8.827 54.302,10.189 54.302,13.592 54.302,16.995 56.344,18.358 59.063,18.358 62.467,18.358 64.51,16.995 64.51,13.592 Z"
             inkscape:connector-curvature="0"
             style="fill:#333333" /></g></g><g
         id="g10939"><g
           id="g10937"><path
             id="path10935"
             d="M 297.276,11.552 295.235,8.151 291.832,6.786 C 288.434,6.786 287.068,8.151 287.068,11.552 287.068,14.954 288.433,16.995 291.832,16.995 L 295.235,15.632 Z"
             inkscape:connector-curvature="0"
             style="fill:#333333" /></g></g><g
         id="g10945"><g
           id="g10943"><path
             id="path10941"
             d="M 336.75,13.592 335.395,10.189 C 334.71,9.51 332.67,8.827 331.993,8.827 328.589,8.827 326.544,10.189 326.544,13.592 326.544,16.995 328.589,19.036 331.993,19.036 L 335.395,17.678 Z"
             inkscape:connector-curvature="0"
             style="fill:#333333" /></g></g><g
         id="g10951"><g
           id="g10949"><path
             id="path10947"
             d="M 265.286,79.614 C 248.956,90.501 231.941,111.601 215.603,142.908 181.574,204.843 164.557,285.835 164.557,384.524 L 139.376,585.303 H 366.697 V 384.524 C 366.697,285.836 349.684,204.843 316.332,142.908 299.318,111.601 282.302,90.5 265.286,79.614 Z"
             inkscape:connector-curvature="0"
             style="fill:#858585" /></g></g><g
         id="g10957"><g
           id="g10955"><path
             id="path10953"
             d="M 267.334,76.21 C 266.649,75.528 264.608,75.528 263.931,76.21 244.869,89.14 227.176,110.919 210.84,142.908 178.171,204.161 161.157,285.154 161.157,384.524 L 135.977,584.615 V 585.303 L 137.334,587.344 C 138.016,588.02 138.698,588.703 139.377,588.703 H 366.698 C 369.423,588.703 370.103,588.019 370.103,585.304 V 384.524 C 370.103,285.154 353.087,204.162 320.418,142.908 304.082,110.918 285.704,89.14 267.334,76.21 Z M 212.2,156.519 C 227.853,123.853 246.232,98.668 265.286,83.015 285.026,98.668 303.404,123.853 319.056,156.519 349.008,217.774 363.297,293.321 363.297,384.522 V 581.896 H 143.461 L 167.962,385.205 V 384.522 C 167.962,293.321 182.934,217.774 212.2,156.519 Z"
             inkscape:connector-curvature="0" /></g></g><g
         id="g10963"><g
           id="g10961"><path
             id="path10959"
             d="M 265.286,102.071 C 263.931,102.071 263.244,103.432 263.244,104.793 261.205,143.59 259.163,192.591 257.804,251.806 254.4,370.226 253.723,483.21 255.077,590.069 255.077,592.108 256.44,592.793 257.804,592.793 259.845,592.793 260.527,592.107 260.527,590.069 L 259.845,479.81 C 259.845,381.12 261.882,278.347 265.286,170.131 269.373,278.347 271.414,381.119 271.414,479.81 L 270.736,590.069 C 270.736,592.108 271.414,592.793 273.452,592.793 274.818,592.793 275.496,592.107 275.496,590.069 277.543,483.211 276.859,370.912 274.142,251.806 L 268.014,104.793 C 268.013,103.433 267.334,102.071 265.286,102.071 Z"
             inkscape:connector-curvature="0" /></g></g><g
         id="g10969"><g
           id="g10967"><path
             id="path10965"
             d="M 241.465,106.838 C 240.785,104.792 240.109,104.111 238.063,104.792 236.02,105.474 235.342,106.838 236.708,108.877 L 242.149,120.448 C 247.593,129.296 254.4,137.464 261.88,144.948 263.244,146.309 264.608,146.309 265.971,144.948 267.334,143.59 267.334,142.226 265.285,140.866 257.803,134.061 251.672,125.892 246.915,117.045 Z"
             inkscape:connector-curvature="0" /></g></g><g
         id="g10975"><g
           id="g10973"><path
             id="path10971"
             d="M 237.384,147.674 225.814,127.934 C 224.449,125.894 223.771,125.894 222.41,127.254 220.372,127.934 220.372,129.296 221.05,130.657 L 233.985,151.076 C 242.829,165.367 251.675,176.257 260.528,183.744 261.207,185.106 263.247,185.106 263.932,183.744 265.287,183.063 265.287,181.704 263.932,180.34 256.44,172.173 247.593,161.286 237.384,147.674 Z"
             inkscape:connector-curvature="0" /></g></g><g
         id="g10981"><g
           id="g10979"><path
             id="path10977"
             d="M 263.244,221.177 C 263.931,219.136 263.931,217.774 262.567,217.093 247.592,204.162 234.658,190.55 223.77,175.576 L 210.159,156.52 C 209.478,155.159 208.118,154.48 206.757,155.841 205.393,156.52 204.717,157.883 205.393,159.925 L 219.006,178.979 C 230.575,193.955 244.191,208.929 258.481,221.178 H 263.245 V 221.177 Z"
             inkscape:connector-curvature="0" /></g></g><g
         id="g10987"><g
           id="g10985"><path
             id="path10983"
             d="M 261.205,263.376 C 262.567,262.014 262.567,260.652 261.205,259.975 247.593,249.765 233.303,234.789 216.967,215.734 L 196.55,189.189 C 195.871,187.829 193.821,187.829 192.464,188.511 191.104,190.551 191.104,191.914 192.464,192.592 L 213.563,219.138 C 229.902,238.875 244.191,253.846 257.805,264.055 Z"
             inkscape:connector-curvature="0" /></g></g><g
         id="g10993"><g
           id="g10991"><path
             id="path10989"
             d="M 260.526,305.571 C 261.205,303.53 261.205,302.848 259.844,301.487 241.464,287.197 223.77,270.181 206.756,249.765 L 186.34,223.22 C 185.66,221.178 183.617,221.178 182.255,222.542 180.215,223.22 180.215,224.581 181.577,225.945 181.577,227.986 188.382,236.83 202.677,253.167 219.694,273.586 238.065,291.279 257.127,305.573 H 260.527 V 305.571 Z"
             inkscape:connector-curvature="0" /></g></g><g
         id="g10999"><g
           id="g10997"><path
             id="path10995"
             d="M 176.129,257.93 173.409,258.61 C 172.725,259.975 172.725,260.652 173.409,262.013 L 199.951,292.639 C 221.049,315.098 240.107,332.796 256.439,346.408 L 259.844,345.725 260.527,343.684 259.844,341.644 C 243.513,329.391 224.448,311.017 204.029,289.234 L 177.494,258.609 C 176.809,258.61 176.809,257.93 176.129,257.93 Z"
             inkscape:connector-curvature="0" /></g></g><g
         id="g11005"><g
           id="g11003"><path
             id="path11001"
             d="M 172.726,289.236 C 172.045,287.875 170.687,287.197 169.324,288.557 167.962,289.919 167.283,291.279 168.643,292.639 L 193.82,323.948 C 214.926,348.45 236.019,367.509 255.762,381.804 L 259.843,381.117 C 260.526,379.079 260.526,378.4 258.48,377.717 238.747,363.423 219.005,344.366 197.911,320.544 Z"
             inkscape:connector-curvature="0" /></g></g><g
         id="g11011"><g
           id="g11009"><path
             id="path11007"
             d="M 162.516,320.545 158.433,319.865 C 157.753,321.227 157.076,322.587 158.433,323.948 L 189.744,360.019 C 214.241,385.205 236.708,404.253 255.765,415.15 257.805,415.836 258.483,415.836 259.845,414.464 260.527,412.429 260.527,411.063 258.482,410.383 240.109,398.817 217.644,381.117 193.821,355.935 Z"
             inkscape:connector-curvature="0" /></g></g><g
         id="g11017"><g
           id="g11015"><path
             id="path11013"
             d="M 265.286,104.111 274.817,81.653 C 278.221,66.677 275.495,59.195 265.286,59.195 255.765,59.195 253.036,66.679 257.124,81.653 258.481,89.14 261.882,96.627 265.286,104.111 Z"
             inkscape:connector-curvature="0"
             style="fill:#ffe700" /></g></g><g
         id="g11023"><g
           id="g11021"><path
             id="path11019"
             d="M 275.495,87.098 C 279.584,75.529 279.584,67.36 276.859,62.597 274.817,58.514 271.413,56.471 265.286,56.471 260.526,56.471 257.124,58.515 254.399,62.597 250.996,67.361 251.673,75.529 255.077,87.098 257.804,93.903 260.526,100.032 263.244,105.475 263.931,106.838 264.608,106.838 265.286,106.838 267.334,106.838 268.013,106.838 268.013,105.475 Z M 265.286,61.916 C 268.688,61.916 270.736,62.596 272.092,64.638 L 273.452,71.443 C 273.452,77.568 270.736,86.419 265.287,97.987 260.528,86.419 257.805,77.569 257.805,71.443 L 259.164,64.638 C 260.526,62.597 262.567,61.916 265.286,61.916 Z"
             inkscape:connector-curvature="0" /></g></g><g
         id="g11029"><g
           id="g11027"><path
             id="path11025"
             d="M 163.88,364.104 C 162.515,363.424 161.156,363.424 159.796,364.104 158.432,365.467 158.432,367.51 159.796,368.194 L 189.743,397.451 C 212.885,418.554 234.658,434.885 255.764,446.462 257.804,447.141 258.482,447.141 259.844,445.775 260.526,443.738 260.526,442.376 258.481,442.376 238.062,430.125 216.289,414.467 193.142,392.69 Z"
             inkscape:connector-curvature="0" /></g></g><g
         id="g11035"><g
           id="g11033"><path
             id="path11031"
             d="M 148.906,391.325 C 148.222,390.644 146.184,390.644 144.823,391.325 144.139,392.689 144.139,394.73 144.823,395.416 L 178.851,426.722 C 206.08,449.179 231.941,466.196 256.44,477.09 257.804,477.767 259.844,477.09 260.526,476.403 260.526,474.363 260.526,472.999 258.481,472.318 233.981,462.107 209.479,445.091 182.254,422.64 Z"
             inkscape:connector-curvature="0" /></g></g><g
         id="g11041"><g
           id="g11039"><path
             id="path11037"
             d="M 138.016,417.868 C 137.334,416.513 135.977,416.513 134.614,417.868 132.573,419.239 132.573,420.595 134.614,421.958 L 157.076,442.375 C 174.767,457.348 189.743,468.915 203.353,476.404 L 206.757,475.718 C 208.12,473.686 207.436,472.318 206.081,471.64 193.144,464.154 178.171,452.583 160.479,438.286 Z"
             inkscape:connector-curvature="0" /></g></g><g
         id="g11047"><g
           id="g11045"><path
             id="path11043"
             d="M 293.196,104.793 C 291.832,104.112 290.468,104.793 289.791,106.839 285.027,117.725 277.543,129.297 265.287,140.868 264.609,142.91 264.609,144.272 265.287,144.95 266.651,146.311 268.013,146.311 268.69,144.95 281.625,132.7 290.468,120.45 295.236,108.879 295.235,106.838 295.235,105.475 293.196,104.793 Z"
             inkscape:connector-curvature="0" /></g></g><g
         id="g11053"><g
           id="g11051"><path
             id="path11049"
             d="M 308.846,127.254 C 307.487,125.894 305.448,125.894 305.448,127.934 292.511,151.077 280.26,168.092 267.338,180.34 265.288,181.705 265.288,182.382 267.338,183.744 268.014,185.106 270.057,185.106 270.737,183.744 284.349,171.494 297.277,153.799 309.527,130.658 310.888,129.296 310.888,127.254 308.846,127.254 Z"
             inkscape:connector-curvature="0" /></g></g><g
         id="g11059"><g
           id="g11057"><path
             id="path11055"
             d="M 325.187,155.84 C 323.138,154.48 321.785,155.158 321.097,156.519 L 308.169,175.575 C 295.915,190.549 282.986,204.161 268.689,217.092 267.335,218.456 267.335,219.814 268.013,221.176 H 272.092 C 295.236,200.758 313.613,180.339 325.864,159.922 326.543,158.56 325.865,157.201 325.187,155.84 Z"
             inkscape:connector-curvature="0" /></g></g><g
         id="g11065"><g
           id="g11063"><path
             id="path11061"
             d="M 338.797,188.51 334.71,189.188 314.292,215.733 C 297.961,234.789 282.986,249.765 270.055,259.974 268.69,260.651 268.69,262.013 270.055,263.375 L 273.452,264.052 C 294.558,247.719 316.333,223.897 339.473,192.589 340.152,191.913 340.152,190.55 338.797,188.51 Z"
             inkscape:connector-curvature="0" /></g></g><g
         id="g11071"><g
           id="g11069"><path
             id="path11067"
             d="M 349.008,222.541 C 346.959,221.177 346.28,221.177 345.601,223.219 L 324.5,249.764 C 307.486,270.181 289.108,287.197 271.413,301.486 270.055,302.848 270.055,303.53 270.736,305.571 H 274.817 C 293.196,291.279 311.574,273.583 329.263,253.165 L 349.685,225.942 C 350.362,224.58 350.362,223.219 349.008,222.541 Z"
             inkscape:connector-curvature="0" /></g></g><g
         id="g11077"><g
           id="g11075"><path
             id="path11073"
             d="M 357.168,258.61 H 353.089 C 325.187,293.321 297.961,321.228 271.414,341.647 L 270.736,343.686 271.414,345.727 274.817,346.409 C 291.832,332.799 310.209,315.101 331.306,292.64 L 357.851,262.015 C 359.216,260.652 358.53,259.291 357.168,258.61 Z"
             inkscape:connector-curvature="0" /></g></g><g
         id="g11083"><g
           id="g11081"><path
             id="path11079"
             d="M 361.935,288.558 358.531,289.237 332.671,320.546 C 312.253,344.369 291.834,363.425 272.093,377.719 270.738,378.403 270.738,379.081 271.414,381.119 L 275.496,381.806 C 295.236,367.51 316.334,348.452 336.751,323.95 L 362.62,292.641 C 363.297,291.279 363.297,289.92 361.935,288.558 Z"
             inkscape:connector-curvature="0" /></g></g><g
         id="g11089"><g
           id="g11087"><path
             id="path11085"
             d="M 272.774,410.385 C 271.412,411.747 270.735,412.432 271.412,414.466 272.092,415.837 274.14,415.837 275.494,415.152 295.234,404.256 316.332,385.208 341.514,360.021 L 372.826,323.95 C 373.506,323.268 373.506,321.228 372.826,319.866 L 368.74,320.548 337.434,355.938 C 312.929,381.119 291.832,398.818 272.774,410.385 Z"
             inkscape:connector-curvature="0" /></g></g><g
         id="g11095"><g
           id="g11093"><path
             id="path11091"
             d="M 271.413,445.774 C 272.092,447.139 273.452,447.139 274.817,446.461 295.915,434.884 318.379,418.553 342.199,397.45 L 371.465,368.193 C 372.826,366.823 372.826,365.466 370.778,364.103 370.103,363.423 368.739,363.423 367.379,364.103 L 338.797,392.689 C 314.977,414.465 293.194,430.124 272.092,442.375 270.736,442.375 270.736,443.738 271.413,445.774 Z"
             inkscape:connector-curvature="0" /></g></g><g
         id="g11101"><g
           id="g11099"><path
             id="path11097"
             d="M 271.413,476.404 C 271.413,477.091 273.452,477.767 274.817,477.091 299.318,466.196 325.186,449.18 352.409,426.723 L 385.756,395.416 C 387.119,394.732 387.119,392.69 385.756,391.328 385.078,390.644 383.715,390.644 382.354,391.328 L 349.009,422.641 C 322.459,445.092 296.6,462.108 272.092,472.318 270.736,472.999 270.055,474.364 271.413,476.404 Z"
             inkscape:connector-curvature="0" /></g></g><g
         id="g11107"><g
           id="g11105"><path
             id="path11103"
             d="M 426.59,394.047 C 425.913,392.69 424.552,392.69 423.189,394.047 L 380.313,432.167 C 348.321,460.075 319.056,481.171 295.237,495.459 293.876,496.824 293.197,497.507 294.561,499.543 L 297.961,500.226 C 322.459,485.929 351.725,464.155 384.393,436.251 L 426.59,398.136 C 427.953,397.45 427.953,395.416 426.59,394.047 Z"
             inkscape:connector-curvature="0" /></g></g><g
         id="g11113"><g
           id="g11111"><path
             id="path11109"
             d="M 426.59,434.884 C 425.913,433.529 424.552,433.529 423.189,434.884 L 380.313,472.999 C 348.321,500.909 319.056,521.329 295.237,535.617 293.876,536.974 293.197,538.342 294.561,539.697 L 297.961,540.374 C 322.459,526.766 351.725,504.991 384.393,477.09 L 426.59,438.972 C 427.953,437.607 427.953,436.251 426.59,434.884 Z"
             inkscape:connector-curvature="0" /></g></g><g
         id="g11119"><g
           id="g11117"><path
             id="path11115"
             d="M 426.59,475.719 423.189,475.041 380.313,513.153 C 348.321,541.059 319.056,562.165 295.237,576.452 293.876,577.811 293.197,578.494 294.561,579.857 L 297.961,581.212 C 322.459,566.922 351.725,545.825 384.393,517.923 L 426.59,479.122 C 427.953,477.767 427.953,476.404 426.59,475.719 Z"
             inkscape:connector-curvature="0" /></g></g><g
         id="g11125"><g
           id="g11123"><path
             id="path11121"
             d="M 246.23,386.563 C 176.128,412.43 106.705,466.195 37.286,545.149 L 199.271,685.349 C 268.012,606.404 310.887,530.167 326.542,456.669 331.99,433.526 334.03,412.429 332.669,393.367 L 329.941,370.909 C 308.846,368.193 280.944,373.63 246.23,386.563 Z"
             inkscape:connector-curvature="0"
             style="fill:#858585" /></g></g><g
         id="g11131"><g
           id="g11129"><path
             id="path11127"
             d="M 35.245,547.868 40.01,547.184 C 103.986,473.685 167.963,423.318 233.982,395.415 269.373,380.433 300.677,372.952 327.904,374.312 L 329.264,400.174 C 329.264,433.527 322.458,469.596 306.808,509.07 285.027,565.564 247.593,624.096 196.55,683.301 L 195.871,685.348 196.55,688.074 201.99,687.389 C 270.736,608.436 312.928,532.211 329.942,459.385 335.394,436.247 337.434,415.148 336.75,394.728 L 333.347,370.223 C 333.347,368.191 332.67,367.507 331.307,367.507 307.487,364.785 278.223,370.907 242.828,383.833 172.727,411.061 103.986,463.473 35.245,543.1 33.883,545.15 33.883,545.827 35.245,547.868 Z"
             inkscape:connector-curvature="0" /></g></g><g
         id="g11137"><g
           id="g11135"><path
             id="path11133"
             d="M 314.978,388.612 C 313.614,387.926 312.252,387.926 310.889,388.612 L 223.094,482.527 C 152.991,557.391 88.331,630.902 28.438,702.366 27.078,704.408 27.759,705.091 29.118,706.444 L 32.521,705.767 C 107.39,616.611 189.742,524.729 278.222,430.802 199.951,530.168 121.001,624.098 40.691,713.253 L 39.329,714.614 C 39.329,715.976 40.01,716.654 40.691,717.333 42.049,718.705 43.413,718.705 44.776,717.333 106.707,647.919 170.005,573.051 236.021,493.418 L 315.657,392.689 C 316.333,391.325 315.656,389.289 314.978,388.612 Z"
             inkscape:connector-curvature="0" /></g></g><g
         id="g11143"><g
           id="g11141"><path
             id="path11139"
             d="M 290.469,372.275 C 288.432,371.596 287.752,372.275 287.069,374.313 L 283.664,387.242 C 281.625,398.137 280.945,409.028 281.625,421.272 281.625,422.642 282.987,423.319 285.027,423.319 L 287.753,420.596 C 286.39,409.029 287.068,398.82 288.433,387.928 L 291.832,375.676 C 292.511,374.313 291.832,373.63 290.469,372.275 Z"
             inkscape:connector-curvature="0" /></g></g><g
         id="g11149"><g
           id="g11147"><path
             id="path11145"
             d="M 262.567,379.082 C 261.205,378.403 259.844,379.082 259.163,381.12 L 255.077,405.627 C 253.036,423.999 251.674,438.973 253.723,451.22 L 256.441,453.268 C 257.805,453.268 258.483,452.584 258.483,450.543 257.805,438.973 257.805,424.674 260.529,406.307 L 264.61,382.484 C 264.608,381.119 264.608,379.082 262.567,379.082 Z"
             inkscape:connector-curvature="0" /></g></g><g
         id="g11155"><g
           id="g11153"><path
             id="path11151"
             d="M 229.899,391.325 C 227.853,391.325 227.175,391.325 226.499,393.369 L 223.77,418.553 C 223.093,438.972 223.77,459.388 227.175,479.81 227.175,481.171 227.853,482.528 229.899,482.528 231.256,481.849 232.618,480.492 231.941,479.125 229.215,459.391 228.54,438.973 229.899,418.555 L 231.941,394.733 C 232.618,392.689 231.257,391.325 229.899,391.325 Z"
             inkscape:connector-curvature="0" /></g></g><g
         id="g11161"><g
           id="g11159"><path
             id="path11157"
             d="M 189.743,414.466 C 187.703,414.466 186.34,415.152 186.34,417.19 L 184.977,452.584 C 184.977,479.81 186.34,502.944 189.744,519.958 189.744,521.33 190.425,522.007 193.143,522.007 194.508,521.329 195.187,519.958 195.187,518.603 191.784,501.587 189.744,479.81 190.424,453.268 L 192.464,417.868 C 192.464,415.837 191.104,415.151 189.743,414.466 Z"
             inkscape:connector-curvature="0" /></g></g><g
         id="g11167"><g
           id="g11165"><path
             id="path11163"
             d="M 164.557,428.078 C 162.516,427.399 161.837,428.078 161.157,430.124 L 159.116,466.195 C 158.432,494.782 161.157,522.007 165.92,545.826 L 167.283,547.868 169.324,548.552 C 171.366,547.868 172.046,546.506 171.366,545.151 165.92,520.646 164.557,494.783 164.557,466.197 L 166.601,430.804 C 166.601,428.76 165.92,428.078 164.557,428.078 Z"
             inkscape:connector-curvature="0" /></g></g><g
         id="g11173"><g
           id="g11171"><path
             id="path11169"
             d="M 132.571,450.542 C 130.527,450.542 129.167,451.896 129.167,453.267 L 129.851,496.137 C 131.209,528.134 133.931,555.359 137.334,577.811 138.016,579.181 139.377,579.858 140.739,579.858 142.781,579.858 142.781,578.494 142.781,576.453 139.378,555.36 135.977,528.135 135.293,496.139 L 134.613,453.269 C 134.613,451.896 133.931,450.542 132.571,450.542 Z"
             inkscape:connector-curvature="0" /></g></g><g
         id="g11179"><g
           id="g11177"><path
             id="path11175"
             d="M 107.391,471.64 C 105.348,471.64 104.666,472.319 104.666,473.686 L 103.306,517.923 C 103.306,551.269 106.706,580.536 112.155,606.404 112.835,607.759 114.196,608.438 115.559,608.438 117.601,607.759 118.28,606.404 117.601,605.035 112.156,579.858 108.752,550.587 108.752,517.924 L 110.113,474.364 C 110.111,472.999 109.433,472.318 107.391,471.64 Z"
             inkscape:connector-curvature="0" /></g></g><g
         id="g11185"><g
           id="g11183"><path
             id="path11181"
             d="M 77.442,490.017 C 76.077,490.017 74.72,490.701 74.72,492.734 V 542.425 C 76.761,580.537 81.525,610.486 89.69,632.946 90.37,634.308 91.054,634.99 93.094,634.308 94.455,633.626 95.137,632.946 94.455,630.904 86.969,609.124 82.206,579.183 80.161,542.425 V 492.734 C 80.162,490.7 79.482,490.017 77.442,490.017 Z"
             inkscape:connector-curvature="0" /></g></g><g
         id="g11191"><g
           id="g11189"><path
             id="path11187"
             d="M 314.292,389.289 C 321.783,386.564 329.264,382.483 335.395,378.403 348.321,370.225 351.046,362.065 343.559,355.936 336.074,349.811 329.266,353.212 322.459,366.824 319.056,374.313 315.656,381.119 314.292,389.289 Z"
             inkscape:connector-curvature="0"
             style="fill:#ffe700" /></g></g><g
         id="g11197"><g
           id="g11195"><path
             id="path11193"
             d="M 349.686,364.789 C 350.363,360.7 349.008,357.299 345.601,353.894 341.515,350.493 338.114,349.811 333.346,350.493 327.904,351.855 322.458,358.662 317.696,370.225 315.656,373.629 314.293,379.756 311.575,388.61 L 312.253,391.325 314.978,392.013 C 336.75,383.837 348.32,374.313 349.686,364.789 Z M 344.92,363.424 V 364.104 C 343.558,370.912 334.71,377.719 318.379,384.525 323.137,367.51 329.264,357.981 335.395,355.937 336.75,355.257 339.474,355.937 341.515,357.981 Z"
             inkscape:connector-curvature="0" /></g></g><g
         id="g11203"><g
           id="g11201"><path
             id="path11199"
             d="M 50.897,528.134 C 50.897,526.766 49.538,525.407 48.177,526.088 46.132,526.088 45.454,526.766 45.454,528.812 L 48.854,572.372 C 52.937,606.406 59.063,634.309 67.914,658.129 68.595,660.169 69.954,660.854 71.316,659.484 73.358,659.484 73.358,658.129 72.677,656.081 64.51,632.946 57.706,605.036 54.301,571.694 Z"
             inkscape:connector-curvature="0" /></g></g><g
         id="g11209"><g
           id="g11207"><path
             id="path11205"
             d="M 334.71,411.064 C 333.346,409.027 332.67,408.342 331.307,409.706 319.738,415.837 305.448,419.238 287.069,419.916 285.027,420.595 285.027,421.958 285.027,423.318 285.027,425.357 285.705,426.041 287.753,425.357 306.123,424.672 321.784,421.271 333.347,414.465 335.395,413.107 335.395,412.431 334.71,411.064 Z"
             inkscape:connector-curvature="0" /></g></g><g
         id="g11215"><g
           id="g11213"><path
             id="path11211"
             d="M 258.481,455.986 C 259.163,457.347 260.526,458.705 261.879,458.705 281.622,457.348 304.08,452.584 329.941,442.375 331.99,441.687 332.669,440.332 331.99,438.973 331.304,436.931 329.941,436.251 328.586,437.608 302.719,447.14 280.258,452.585 261.205,452.585 259.845,452.584 258.481,453.947 258.481,455.986 Z"
             inkscape:connector-curvature="0" /></g></g><g
         id="g11221"><g
           id="g11219"><path
             id="path11217"
             d="M 233.983,486.614 C 233.983,487.976 235.343,489.333 237.383,489.333 270.054,489.333 298.637,484.574 322.457,476.404 324.499,476.404 325.185,475.041 324.499,473 323.822,471.641 322.457,470.964 321.096,471.641 297.276,479.81 269.373,483.21 237.383,483.21 235.342,483.209 233.983,484.573 233.983,486.614 Z"
             inkscape:connector-curvature="0" /></g></g><g
         id="g11227"><g
           id="g11225"><path
             id="path11223"
             d="M 206.081,521.329 C 206.081,523.363 206.757,524.047 208.798,524.047 236.708,525.407 270.736,522.007 310.889,512.475 312.252,511.796 312.93,511.119 312.252,509.749 312.252,507.718 310.889,507.031 308.847,507.718 L 274.819,514.524 208.798,518.603 C 206.757,518.603 206.081,519.958 206.081,521.329 Z"
             inkscape:connector-curvature="0" /></g></g><g
         id="g11233"><g
           id="g11231"><path
             id="path11229"
             d="M 177.494,555.359 C 177.494,557.39 178.851,558.075 180.215,558.075 L 260.527,553.992 295.237,546.506 C 297.278,545.827 297.962,545.151 297.962,543.782 297.277,541.747 295.916,541.059 294.562,541.747 L 259.166,548.552 180.218,552.634 C 178.851,552.633 178.171,553.991 177.494,555.359 Z"
             inkscape:connector-curvature="0" /></g></g><g
         id="g11239"><g
           id="g11237"><path
             id="path11235"
             d="M 79.482,275.625 63.149,260.651 C 44.774,272.223 27.077,294.681 9.38,327.35 -26.012,393.369 -44.387,479.122 -44.387,584.614 H 169.323 C 169.323,479.123 151.625,393.368 116.236,327.349 105.348,306.935 93.096,289.92 79.482,275.625 Z"
             inkscape:connector-curvature="0"
             style="fill:#858585" /></g></g><g
         id="g11245"><g
           id="g11243"><path
             id="path11241"
             d="M 64.51,257.249 C 63.149,256.572 62.467,256.572 61.107,257.249 41.371,270.861 22.313,294.682 4.615,327.351 -30.093,393.37 -47.789,479.123 -47.789,584.615 -47.789,586.663 -46.43,588.019 -44.386,588.019 -41.664,588.019 -40.981,586.662 -40.981,584.615 -40.981,487.3 -25.329,406.305 5.297,342.322 22.994,306.935 42.049,281.071 63.15,264.736 83.568,281.071 102.626,306.935 119.643,342.324 150.948,406.307 165.922,487.301 165.922,584.616 165.922,586.664 167.285,588.02 169.326,588.02 172.048,588.02 172.728,586.663 172.728,584.616 172.728,479.125 155.033,393.37 120.321,327.352 108.751,306.935 97.182,289.237 83.57,274.263 Z"
             inkscape:connector-curvature="0" /></g></g><g
         id="g11251"><g
           id="g11249"><path
             id="path11247"
             d="M 63.149,284.473 C 61.107,284.473 59.747,285.155 59.747,286.516 L 54.303,415.152 C 50.899,517.924 50.22,615.244 52.26,709.174 52.26,710.528 52.94,711.896 54.983,711.896 56.345,711.896 57.707,710.528 57.707,709.174 L 56.345,613.212 C 56.345,522.007 58.388,431.481 63.15,340.284 66.556,438.972 69.276,530.169 69.276,613.212 L 67.916,709.174 C 67.916,710.528 69.276,711.896 70.64,711.896 72.681,711.896 73.36,710.528 73.36,709.174 74.724,616.611 74.724,517.923 71.318,415.152 L 65.871,286.516 C 65.191,285.154 64.51,284.473 63.149,284.473 Z"
             inkscape:connector-curvature="0" /></g></g><g
         id="g11257"><g
           id="g11255"><path
             id="path11253"
             d="M 37.287,289.236 C 35.925,287.875 35.245,287.197 33.884,287.875 31.841,288.558 31.163,289.92 31.841,291.959 L 37.969,303.53 C 44.094,313.057 50.899,321.905 59.064,330.074 60.428,331.436 61.792,331.436 63.149,330.074 64.51,329.392 64.51,327.35 63.149,326.669 54.982,318.501 48.177,309.655 42.731,300.811 Z"
             inkscape:connector-curvature="0" /></g></g><g
         id="g11263"><g
           id="g11261"><path
             id="path11259"
             d="M 20.954,312.377 C 20.273,310.335 18.909,310.335 16.87,311.019 14.824,312.377 14.824,313.059 15.507,315.099 L 29.12,336.878 C 38.646,351.854 48.178,363.424 57.025,371.596 59.064,372.275 59.747,372.275 61.108,371.596 62.468,370.91 62.468,368.869 61.108,367.509 52.26,360.02 42.732,347.771 32.523,333.477 Z"
             inkscape:connector-curvature="0" /></g></g><g
         id="g11269"><g
           id="g11267"><path
             id="path11265"
             d="M 3.938,343.004 C 3.259,340.964 1.212,340.964 0.535,341.647 -1.507,343.004 -2.189,343.686 -0.827,345.726 L 13.466,366.145 C 25.716,381.806 40.01,397.451 55.66,411.065 L 59.747,410.385 C 61.107,409.028 61.107,408.343 59.747,406.307 44.093,393.369 30.481,379.082 18.228,363.424 Z"
             inkscape:connector-curvature="0" /></g></g><g
         id="g11275"><g
           id="g11273"><path
             id="path11271"
             d="M 57.707,452.584 C 44.093,441.687 28.438,426.042 11.422,405.627 L -11.037,377.719 -14.44,377.033 C -15.801,377.719 -15.801,379.082 -15.121,381.119 L 7.344,409.027 C 24.357,429.445 40.692,445.774 54.302,455.986 H 57.707 C 59.747,453.947 59.747,452.584 57.707,452.584 Z"
             inkscape:connector-curvature="0" /></g></g><g
         id="g11281"><g
           id="g11279"><path
             id="path11277"
             d="M 56.342,496.138 C 37.286,481.171 18.228,462.791 -0.147,441.687 L -21.928,413.108 C -22.61,411.747 -23.968,411.747 -25.329,412.431 -27.37,413.108 -27.37,414.466 -26.011,415.836 L -4.232,445.092 C 14.823,466.88 33.882,485.928 52.937,500.909 54.981,501.586 56.342,501.586 57.022,500.224 57.707,498.864 57.707,497.509 56.342,496.138 Z"
             inkscape:connector-curvature="0" /></g></g><g
         id="g11287"><g
           id="g11285"><path
             id="path11283"
             d="M 56.342,543.104 C 57.706,541.747 57.706,540.375 56.342,539.024 38.645,524.73 18.909,506.348 -2.189,483.21 L -30.775,450.543 H -34.858 C -35.538,451.897 -35.538,453.268 -34.858,454.622 L -6.27,486.615 C 15.507,510.436 35.245,529.49 52.94,543.782 Z"
             inkscape:connector-curvature="0" /></g></g><g
         id="g11293"><g
           id="g11291"><path
             id="path11289"
             d="M 56.342,580.536 C 57.024,579.181 57.024,577.811 55.659,576.452 34.565,562.165 13.465,541.746 -8.999,516.556 L -35.539,483.208 H -39.624 C -40.982,483.896 -40.982,484.572 -40.302,486.613 L -13.078,519.956 C 8.698,545.825 31.162,565.565 52.256,581.212 Z"
             inkscape:connector-curvature="0" /></g></g><g
         id="g11299"><g
           id="g11297"><path
             id="path11295"
             d="M 56.342,615.243 C 57.024,613.89 56.342,612.524 54.981,611.161 35.244,599.597 12.103,581.214 -13.758,553.992 L -46.43,516.557 H -50.512 C -52.556,517.24 -52.556,518.603 -51.192,519.957 L -17.843,557.39 C 8.7,584.615 31.839,604.358 52.259,616.611 54.302,617.291 54.981,616.611 56.342,615.243 Z"
             inkscape:connector-curvature="0" /></g></g><g
         id="g11305"><g
           id="g11303"><path
             id="path11301"
             d="M 63.149,285.836 C 66.552,277.666 69.954,270.182 71.316,263.377 75.401,248.402 72.677,240.234 63.149,240.234 52.94,240.234 49.538,248.401 54.302,263.377 56.342,270.182 59.063,277.665 63.149,285.836 Z"
             inkscape:connector-curvature="0"
             style="fill:#ffe700" /></g></g><g
         id="g11311"><g
           id="g11309"><path
             id="path11307"
             d="M 63.149,238.194 C 57.707,238.194 53.622,239.556 51.581,242.958 48.855,248.401 48.855,256.571 52.94,268.82 L 59.747,286.516 C 61.107,287.876 61.791,288.558 63.149,288.558 L 65.191,286.516 C 76.077,266.099 78.804,251.805 73.357,242.958 71.316,239.556 67.914,238.194 63.149,238.194 Z M 56.342,246.361 C 57.706,244.316 59.746,242.957 63.149,242.957 65.87,242.957 67.916,244.316 69.274,246.361 L 69.954,252.486 C 69.954,259.975 67.915,268.819 63.149,279.028 57.707,268.819 54.982,259.974 54.982,252.486 Z"
             inkscape:connector-curvature="0" /></g></g><g
         id="g11317"><g
           id="g11315"><path
             id="path11313"
             d="M 56.342,648.596 C 57.024,647.242 56.342,645.874 55.659,645.196 33.883,632.946 10.743,615.245 -14.441,593.472 L -45.749,562.843 H -49.152 C -50.512,564.2 -50.512,565.569 -49.833,566.924 L -17.844,596.872 C 7.342,620.018 30.482,637.031 52.938,649.959 Z"
             inkscape:connector-curvature="0" /></g></g><g
         id="g11323"><g
           id="g11321"><path
             id="path11319"
             d="M 91.735,287.875 C 90.373,287.197 89.015,287.875 88.331,289.236 83.568,301.488 74.722,313.74 62.467,326.669 61.107,327.352 61.107,329.393 62.467,330.075 63.832,331.437 65.192,331.437 66.552,330.075 79.482,317.141 88.33,304.213 93.776,291.959 93.776,289.92 93.776,289.236 91.735,287.875 Z"
             inkscape:connector-curvature="0" /></g></g><g
         id="g11329"><g
           id="g11327"><path
             id="path11325"
             d="M 108.749,311.019 C 106.706,310.335 105.348,310.335 104.666,312.377 91.734,336.878 78.125,354.577 64.511,367.51 63.15,368.871 63.15,370.911 64.511,371.597 65.869,372.276 67.233,372.276 67.914,371.597 82.208,357.981 96.497,339.602 109.432,315.101 110.791,313.059 110.111,312.377 108.749,311.019 Z"
             inkscape:connector-curvature="0" /></g></g><g
         id="g11335"><g
           id="g11333"><path
             id="path11331"
             d="M 125.083,341.646 C 123.724,340.965 122.363,340.965 121.684,343.005 L 107.391,363.423 C 95.139,379.081 81.526,393.368 65.87,406.306 64.512,408.343 64.512,409.027 65.87,410.384 L 69.954,411.064 C 94.457,389.289 113.514,367.509 125.767,345.726 127.124,343.686 127.124,343.004 125.083,341.646 Z"
             inkscape:connector-curvature="0" /></g></g><g
         id="g11341"><g
           id="g11339"><path
             id="path11337"
             d="M 139.377,377.033 135.976,377.719 C 112.151,410.385 89.692,435.568 67.915,452.584 66.552,453.268 66.552,453.947 67.233,455.986 H 71.316 C 84.928,445.774 100.581,429.445 118.278,409.027 L 140.739,381.118 C 141.418,379.082 141.418,377.719 139.377,377.033 Z"
             inkscape:connector-curvature="0" /></g></g><g
         id="g11347"><g
           id="g11345"><path
             id="path11343"
             d="M 150.947,412.431 C 149.588,411.746 148.224,411.746 147.544,413.108 L 125.768,441.687 C 107.391,462.791 88.331,481.17 68.596,496.138 67.232,497.509 67.232,498.865 67.916,500.226 69.275,501.587 69.955,501.587 72.001,500.91 91.735,485.93 110.791,466.881 129.168,445.094 L 151.628,415.838 C 152.991,414.466 152.991,413.107 150.947,412.431 Z"
             inkscape:connector-curvature="0" /></g></g><g
         id="g11353"><g
           id="g11351"><path
             id="path11349"
             d="M 159.796,450.542 H 156.396 C 125.768,487.299 97.182,516.557 69.275,539.023 67.916,540.375 67.916,541.746 69.275,543.103 L 72.678,543.781 C 100.581,521.329 129.852,491.377 159.797,454.622 161.157,452.584 161.157,451.896 159.796,450.542 Z"
             inkscape:connector-curvature="0" /></g></g><g
         id="g11359"><g
           id="g11357"><path
             id="path11355"
             d="M 165.239,483.209 C 163.198,481.848 161.837,481.848 161.156,483.209 L 134.613,516.557 C 112.153,541.746 90.371,562.165 69.954,576.453 67.914,577.812 67.914,579.182 69.273,580.537 L 73.358,581.214 C 94.457,565.568 116.238,545.827 138.016,519.958 L 165.239,486.615 C 166.601,484.573 165.92,483.896 165.239,483.209 Z"
             inkscape:connector-curvature="0" /></g></g><g
         id="g11365"><g
           id="g11363"><path
             id="path11361"
             d="M 169.324,524.047 165.241,524.73 C 129.852,566.246 97.861,595.512 69.954,611.162 68.596,612.526 67.915,613.891 69.274,615.244 69.954,616.613 71.316,617.292 73.357,616.613 102.624,598.914 134.613,569.65 169.324,528.134 171.366,526.766 171.366,524.729 169.324,524.047 Z"
             inkscape:connector-curvature="0" /></g></g><g
         id="g11371"><g
           id="g11369"><path
             id="path11367"
             d="M 171.366,566.245 C 170.004,565.567 169.324,565.567 167.962,566.245 133.931,601.632 101.264,627.498 69.954,645.194 68.596,645.873 67.915,647.24 69.274,648.594 69.954,650.642 71.316,651.32 72.677,649.957 105.347,630.901 138.696,605.033 171.366,570.325 172.726,568.971 172.726,567.602 171.366,566.245 Z"
             inkscape:connector-curvature="0" /></g></g><g
         id="g11377"><g
           id="g11375"><path
             id="path11373"
             d="M 93.096,74.167 C 88.331,117.046 88.331,166.729 94.458,222.541 106.706,336.198 139.377,426.723 193.821,496.824 L 328.588,491.377 C 271.414,424.674 234.66,334.158 219.008,221.859 210.841,165.367 208.798,115.685 212.201,72.806 Z"
             style="fill:#d53f3f;fill-opacity:1"
             inkscape:connector-curvature="0" /></g></g><g
         id="g11383"><g
           id="g11381"><path
             id="path11379"
             d="M 214.24,70.764 212.199,69.404 93.095,70.764 C 91.054,70.764 89.692,71.445 89.692,73.485 84.929,117.725 84.929,168.092 91.734,224.581 103.985,338.244 137.333,429.446 191.782,498.188 192.463,499.543 193.143,500.227 193.82,500.227 L 329.264,494.784 331.991,492.735 331.305,489.335 C 275.493,423.32 239.424,334.16 223.092,222.544 214.926,166.731 212.199,117.049 215.602,73.487 Z M 208.798,76.21 207.436,106.155 C 207.436,164.688 213.563,221.859 226.499,277.665 245.554,363.423 277.542,433.529 322.458,487.976 L 195.87,493.418 C 156.394,442.374 128.486,379.756 111.472,303.529 99.902,251.122 93.777,195.314 93.777,136.1 93.777,113.642 93.777,93.901 95.82,77.569 Z"
             inkscape:connector-curvature="0" /></g></g><g
         id="g11389"><g
           id="g11387"><path
             id="path11385"
             d="M 157.752,113.643 C 157.752,112.281 156.395,112.281 154.349,112.281 L 129.167,116.365 115.558,115.685 C 113.515,115.685 112.152,115.685 112.152,117.725 112.152,119.77 112.152,120.449 114.194,121.13 L 129.168,121.811 156.396,117.048 C 158.432,117.046 158.432,115.685 157.752,113.643 Z"
             inkscape:connector-curvature="0" /></g></g><g
         id="g11395"><g
           id="g11393"><path
             id="path11391"
             d="M 135.977,95.948 C 134.614,95.267 133.253,96.627 132.573,97.988 L 129.851,131.337 C 129.851,155.839 135.293,174.897 146.184,190.549 146.865,191.913 148.222,191.913 149.586,191.231 150.946,190.549 151.628,189.188 150.269,187.147 140.739,173.535 135.293,154.48 135.293,130.657 L 138.016,99.349 C 138.696,97.306 138.016,96.627 135.977,95.948 Z"
             inkscape:connector-curvature="0" /></g></g><g
         id="g11401"><g
           id="g11399"><path
             id="path11397"
             d="M 152.991,129.296 C 151.628,128.614 150.947,129.296 149.588,130.657 L 144.142,146.991 C 137.336,149.713 132.574,153.116 128.489,156.518 118.96,165.366 113.516,172.852 113.516,178.976 L 114.195,181.703 C 114.195,183.743 116.24,185.104 119.642,185.783 128.488,187.146 138.016,175.575 148.225,151.074 L 170.688,150.393 C 176.131,153.116 179.535,156.518 180.215,161.284 181.577,166.727 178.852,172.852 172.727,181.021 L 156.395,200.758 152.99,202.8 C 148.223,208.927 146.185,214.371 147.543,217.774 149.587,222.541 152.99,224.58 159.795,224.58 161.837,224.58 162.517,223.9 162.517,222.541 162.517,220.495 161.838,219.136 159.795,219.136 155.712,219.136 152.99,217.774 152.307,215.733 151.628,214.371 152.991,211.649 157.752,207.566 L 159.795,204.163 178.85,183.063 C 184.975,174.219 187.018,166.73 186.339,159.924 184.976,153.799 180.213,149.034 172.726,145.631 L 150.947,144.273 155.03,132.701 V 131.339 Z M 118.959,178.978 C 118.959,174.897 123.724,168.091 132.572,161.286 L 140.739,155.159 C 132.572,172.855 125.767,181.705 120.319,180.341 H 118.959 Z"
             inkscape:connector-curvature="0" /></g></g><g
         id="g11407"><g
           id="g11405"><path
             id="path11403"
             d="M 174.767,270.182 C 178.851,264.736 180.894,259.975 181.576,253.846 182.254,246.362 178.852,239.556 171.366,236.154 H 151.627 C 148.224,238.875 144.822,242.278 142.78,246.363 140.06,251.125 139.377,255.21 139.377,258.612 139.377,261.335 141.418,263.378 144.822,264.737 L 151.627,264.055 C 156.395,260.653 159.795,252.488 161.837,239.557 V 238.875 C 163.88,238.195 165.92,238.875 168.643,240.235 174.089,243.639 176.131,248.402 176.131,253.847 175.449,258.612 173.41,262.014 170.006,266.781 167.284,270.863 163.2,273.588 159.796,275.627 158.434,275.627 157.754,276.99 158.434,279.03 158.434,280.393 159.796,280.393 161.837,280.393 166.601,279.028 171.366,274.944 174.767,270.182 Z M 147.544,248.4 C 149.587,245.678 151.627,242.957 155.031,241.595 L 155.712,240.233 C 155.031,251.122 152.308,257.247 148.907,259.975 H 146.186 L 144.825,257.249 V 256.572 C 144.823,254.525 146.184,251.805 147.544,248.4 Z"
             inkscape:connector-curvature="0" /></g></g><g
         id="g11413"><g
           id="g11411"><path
             id="path11409"
             d="M 168.643,292.64 C 167.962,290.602 165.92,290.602 164.557,290.602 L 163.199,293.324 V 294.682 C 168.643,306.254 172.726,316.463 174.767,325.99 162.517,326.67 155.031,329.393 152.991,333.479 V 336.88 C 152.991,339.603 154.349,341.647 158.434,344.369 161.837,346.41 165.92,347.091 170.687,347.091 176.13,347.773 179.533,346.41 181.576,343.688 L 182.935,338.246 181.576,330.757 H 185.66 C 194.508,331.439 199.271,333.481 199.951,334.844 V 336.201 C 199.951,338.246 198.589,340.967 193.82,343.007 193.142,343.689 192.464,344.371 192.464,345.05 V 346.411 C 193.143,347.773 193.82,348.456 195.871,347.773 203.352,345.729 206.757,340.968 206.079,333.481 205.392,330.078 199.95,327.354 190.422,326.672 L 180.214,325.991 C 178.171,316.462 174.089,305.571 168.643,292.64 Z M 177.494,338.243 176.809,340.284 170.004,341.646 C 165.921,341.646 163.199,340.965 161.157,339.601 L 158.434,336.877 V 336.197 C 159.796,333.476 165.241,331.435 176.131,331.435 Z"
             inkscape:connector-curvature="0" /></g></g><g
         id="g11419"><g
           id="g11417"><path
             id="path11415"
             d="M 187.703,297.406 C 186.338,296.044 185.66,295.363 184.297,296.044 L 168.642,299.447 C 166.6,299.447 165.918,300.13 165.918,302.169 165.918,303.53 166.6,304.213 168.642,304.213 176.129,304.213 182.934,302.85 186.338,300.812 188.378,299.447 189.058,298.766 187.703,297.406 Z"
             inkscape:connector-curvature="0" /></g></g><g
         id="g11425"><g
           id="g11423"><path
             id="path11421"
             d="M 220.371,387.927 213.562,382.484 C 208.12,381.12 199.95,381.806 188.377,386.564 L 198.588,364.104 199.271,363.424 197.911,361.381 C 196.548,360.699 195.871,360.699 194.508,361.381 189.058,365.466 182.934,367.509 176.129,365.466 174.765,364.788 172.726,365.466 172.726,367.509 172.726,368.869 172.726,370.226 174.767,370.91 H 179.534 L 190.424,368.869 179.534,391.325 178.851,392.012 179.534,394.731 H 182.933 C 187.019,392.689 191.783,391.326 196.547,389.29 L 212.198,387.927 214.925,390.646 C 216.287,392.014 215.602,394.048 213.56,396.095 211.52,399.497 206.754,402.222 199.949,404.942 L 183.615,408.343 C 182.931,408.343 181.572,409.029 181.572,409.706 180.212,411.064 180.212,411.747 180.892,412.431 L 203.35,453.267 C 207.434,460.752 213.56,466.196 220.369,470.282 H 241.464 C 247.591,467.557 250.992,458.705 252.358,442.375 L 253.035,415.151 C 253.035,413.787 251.671,413.107 250.317,413.107 249.632,413.107 248.27,413.107 248.27,414.465 L 247.59,415.836 C 247.59,426.722 247.59,436.25 246.913,445.774 244.866,457.347 242.825,464.154 239.421,466.195 L 222.406,464.832 C 216.287,462.107 211.519,456.67 208.118,450.542 L 188.378,413.787 205.392,409.028 C 212.199,406.306 216.288,402.9 219.004,399.497 L 221.047,392.013 Z"
             inkscape:connector-curvature="0" /></g></g></g><rect
       ry="7.4595938"
       rx="7.4595938"
       y="1.2432656"
       x="1.2432656"
       height="145.46208"
       width="92.001656"
       id="rect12023-8"
       style="color:#000000;clip-rule:nonzero;display:inline;overflow:visible;visibility:visible;opacity:1;isolation:auto;mix-blend-mode:normal;color-interpolation:sRGB;color-interpolation-filters:linearRGB;solid-color:#000000;solid-opacity:1;vector-effect:none;fill:none;fill-opacity:1;fill-rule:nonzero;stroke:#000000;stroke-width:2.48653126;stroke-linecap:butt;stroke-linejoin:miter;stroke-miterlimit:4;stroke-dasharray:none;stroke-dashoffset:0;stroke-opacity:1;color-rendering:auto;image-rendering:auto;shape-rendering:auto;text-rendering:auto;enable-background:accumulate" /></g></svg>