<?xml version="1.0" encoding="UTF-8" standalone="no"?>
<!-- Generator: Adobe Illustrator 13.0.0, SVG Export Plug-In . SVG Version: 6.00 Build 14948)  -->

<svg
   xmlns:dc="http://purl.org/dc/elements/1.1/"
   xmlns:cc="http://creativecommons.org/ns#"
   xmlns:rdf="http://www.w3.org/1999/02/22-rdf-syntax-ns#"
   xmlns:svg="http://www.w3.org/2000/svg"
   xmlns="http://www.w3.org/2000/svg"
   xmlns:sodipodi="http://sodipodi.sourceforge.net/DTD/sodipodi-0.dtd"
   xmlns:inkscape="http://www.inkscape.org/namespaces/inkscape"
   version="1.1"
   id="圖層_1"
   x="0px"
   y="0px"
   width="372px"
   height="587px"
   viewBox="0 0 372 587"
   enable-background="new 0 0 372 587"
   xml:space="preserve"
   sodipodi:docname="Hanafuda_1-4.svg"
   inkscape:version="0.92.2 5c3e80d, 2017-08-06"><metadata
     id="metadata14820"><rdf:RDF><cc:Work
         rdf:about=""><dc:format>image/svg+xml</dc:format><dc:type
           rdf:resource="http://purl.org/dc/dcmitype/StillImage" /></cc:Work></rdf:RDF></metadata><defs
     id="defs14818"><clipPath
       clipPathUnits="userSpaceOnUse"
       id="clipPath1277"><rect
         style="color:#000000;clip-rule:nonzero;display:inline;overflow:visible;visibility:visible;opacity:1;isolation:auto;mix-blend-mode:normal;color-interpolation:sRGB;color-interpolation-filters:linearRGB;solid-color:#000000;solid-opacity:1;vector-effect:none;fill:none;fill-opacity:1;fill-rule:nonzero;stroke:#ffff00;stroke-width:10;stroke-linecap:butt;stroke-linejoin:miter;stroke-miterlimit:4;stroke-dasharray:none;stroke-dashoffset:0;stroke-opacity:1;color-rendering:auto;image-rendering:auto;shape-rendering:auto;text-rendering:auto;enable-background:accumulate"
         id="rect1279"
         width="370"
         height="585"
         x="1"
         y="1"
         rx="30"
         ry="30" /></clipPath></defs><sodipodi:namedview
     pagecolor="#ffffff"
     bordercolor="#666666"
     borderopacity="1"
     objecttolerance="10"
     gridtolerance="10"
     guidetolerance="10"
     inkscape:pageopacity="0"
     inkscape:pageshadow="2"
     inkscape:window-width="1280"
     inkscape:window-height="751"
     id="namedview14816"
     showgrid="false"
     inkscape:zoom="0.28428825"
     inkscape:cx="-261.71186"
     inkscape:cy="293.5"
     inkscape:window-x="0"
     inkscape:window-y="1"
     inkscape:window-maximized="1"
     inkscape:current-layer="圖層_1" /><g
     id="g1507"><rect
       ry="30"
       rx="30"
       y="1"
       x="1"
       height="585"
       width="370"
       id="rect12023-5"
       style="color:#000000;clip-rule:nonzero;display:inline;overflow:visible;visibility:visible;opacity:1;isolation:auto;mix-blend-mode:normal;color-interpolation:sRGB;color-interpolation-filters:linearRGB;solid-color:#000000;solid-opacity:1;vector-effect:none;fill:#f4e9d2;fill-opacity:1;fill-rule:nonzero;stroke:none;stroke-width:1.50000012;stroke-linecap:butt;stroke-linejoin:miter;stroke-miterlimit:4;stroke-dasharray:none;stroke-dashoffset:0;stroke-opacity:1;color-rendering:auto;image-rendering:auto;shape-rendering:auto;text-rendering:auto;enable-background:accumulate" /><g
       clip-path="url(#clipPath1277)"
       id="g14813"><g
         id="g14373"><g
           id="g14371"><path
             id="path14369"
             d="M 373.361,231.826 V 2.564 H 67.674 C 80.19,65.805 114.45,119.169 171.763,162.651 229.081,205.474 296.279,228.533 373.361,231.826 Z"
             style="fill:#d96038;fill-opacity:1"
             inkscape:connector-curvature="0" /></g></g><g
         id="g14379"><g
           id="g14377"><path
             id="path14375"
             d="M 67.674,-0.73 65.039,-0.074 64.381,2.564 C 76.898,67.125 112.472,121.149 170.448,164.627 228.425,208.768 295.616,231.826 372.697,235.119 L 375.336,234.461 376.655,231.826 V 2.564 C 376.655,-0.074 375.336,-0.73 373.361,-0.73 Z M 370.066,5.858 V 228.533 C 295.616,224.578 231.054,202.179 175.057,160.678 119.719,118.511 84.803,67.125 72.286,5.858 Z"
             inkscape:connector-curvature="0" /></g></g><g
         id="g14385"><g
           id="g14383"><path
             id="path14381"
             d="M 354.254,238.416 C 340.422,252.25 327.901,270.035 317.362,291.12 304.841,314.841 294.962,345.798 289.027,383.351 285.734,402.453 284.423,418.265 283.103,432.099 258.07,421.56 238.306,416.953 225.129,416.953 L 223.81,434.078 C 223.148,448.565 224.466,462.404 225.787,476.245 231.057,521.036 245.553,557.268 269.266,584.283 H 371.379 L 372.697,222.603 C 367.431,225.896 360.841,231.166 354.254,238.416 Z"
             inkscape:connector-curvature="0"
             style="fill:#858585" /></g></g><g
         id="g14391"><g
           id="g14389"><path
             id="path14387"
             d="M 374.018,219.969 C 373.363,219.309 371.379,219.309 370.723,219.969 364.792,223.263 358.867,228.533 351.617,235.779 337.785,250.27 324.608,268.06 314.069,289.143 296.938,324.059 285.082,369.514 280.467,426.835 256.089,417.607 237.645,413.658 225.131,413.658 222.492,413.658 221.837,414.971 221.837,416.954 L 220.518,434.735 C 219.856,448.566 221.174,463.069 222.494,477.555 228.427,523.017 242.914,559.251 267.292,586.915 L 269.267,587.577 H 371.38 L 374.675,584.282 375.993,222.602 Z M 319.993,292.438 C 334.489,264.766 350.302,243.028 369.404,229.192 L 368.085,580.992 H 271.247 C 254.113,561.227 242.256,536.849 235.014,507.86 229.739,487.438 227.106,465.703 227.106,442.642 227.106,432.099 227.762,424.197 228.425,420.246 240.94,420.903 258.727,425.509 281.785,435.391 L 285.08,434.736 286.396,432.099 C 287.714,417.609 289.027,401.795 292.324,382.689 298.911,346.454 308.137,315.496 319.993,292.438 Z"
             inkscape:connector-curvature="0" /></g></g><g
         id="g14397"><g
           id="g14395"><path
             id="path14393"
             d="M 357.548,252.908 C 359.524,245.001 360.841,237.755 360.841,229.849 360.841,215.356 356.228,208.768 347.01,211.401 337.783,213.381 336.464,221.283 344.371,234.461 347.666,241.048 352.278,247.638 357.548,252.908 Z"
             inkscape:connector-curvature="0"
             style="fill:#ffe700" /></g></g><g
         id="g14403"><g
           id="g14401"><path
             id="path14399"
             d="M 357.548,210.743 C 354.91,208.108 350.958,206.792 346.346,208.768 341.077,209.427 337.783,212.061 337.127,216.014 334.489,225.236 341.077,237.755 356.229,254.883 L 358.206,255.543 360.843,253.565 C 365.453,231.826 364.135,216.674 357.548,210.743 Z M 354.254,214.696 C 356.892,216.674 357.548,221.944 357.548,229.849 L 356.228,247.637 C 347.01,235.118 341.735,225.896 341.735,219.969 V 217.99 C 343.053,215.356 344.373,214.696 347.668,213.381 350.302,212.722 352.935,212.722 354.254,214.696 Z"
             inkscape:connector-curvature="0" /></g></g><g
         id="g14409"><g
           id="g14407"><path
             id="path14405"
             d="M 241.6,443.304 C 240.284,434.737 238.964,426.835 236.327,420.247 231.722,405.745 225.133,401.141 216.561,407.072 208.662,412.335 210.635,419.584 222.494,430.129 227.762,434.735 234.352,438.687 241.6,443.304 Z"
             inkscape:connector-curvature="0"
             style="fill:#ffe700" /></g></g><g
         id="g14415"><g
           id="g14413"><path
             id="path14411"
             d="M 227.762,403.114 C 223.813,401.138 219.856,401.796 215.905,404.431 211.957,407.072 209.319,410.365 209.319,414.97 209.975,424.196 219.856,434.077 239.622,445.274 H 242.914 L 244.233,442.641 C 241.6,420.247 235.669,407.072 227.762,403.114 Z M 238.309,438.03 C 222.494,428.802 215.248,420.904 215.248,414.97 V 414.314 C 215.248,412.335 215.904,410.365 218.542,409.04 L 225.131,407.727 C 231.057,410.365 235.669,420.247 238.309,438.03 Z"
             inkscape:connector-curvature="0" /></g></g><g
         id="g14421"><g
           id="g14419"><path
             id="path14417"
             d="M 353.597,248.956 C 351.617,248.956 350.958,249.614 350.958,251.591 L 347.01,376.762 341.735,549.37 C 300.231,513.792 267.292,477.557 242.256,440.012 241.6,438.687 240.282,438.032 238.964,438.687 237.645,440.012 236.986,440.668 237.645,441.982 L 261.366,484.803 C 281.787,519.069 307.481,550.682 336.466,580.328 337.785,582.308 339.104,582.308 340.424,580.328 L 341.079,578.36 340.424,577.035 C 308.795,544.757 281.787,509.842 259.385,472.288 275.198,492.715 294.308,512.478 315.384,532.9 L 343.055,556.614 345.691,557.269 347.012,554.638 C 347.012,530.917 348.325,472.95 351.617,382.687 L 356.228,251.589 C 356.228,250.27 354.91,248.956 353.597,248.956 Z"
             inkscape:connector-curvature="0" /></g></g><g
         id="g14427"><g
           id="g14425"><path
             id="path14423"
             d="M 285.734,430.785 C 285.08,429.466 283.758,428.804 281.785,429.466 280.467,430.129 279.81,431.444 281.128,433.423 L 295.616,458.449 C 308.137,478.214 324.606,495.345 343.715,509.842 344.371,511.155 346.346,511.155 347.666,509.186 348.322,508.525 348.322,507.205 347.01,505.891 327.903,491.391 312.088,474.92 299.574,455.158 Z"
             inkscape:connector-curvature="0" /></g></g><g
         id="g14433"><g
           id="g14431"><path
             id="path14429"
             d="M 288.372,400.482 C 287.716,399.157 287.055,397.845 285.08,399.157 283.76,399.818 283.103,401.138 284.424,402.452 L 303.526,434.735 C 318.02,456.481 331.851,471.626 344.373,480.196 346.348,481.508 347.668,481.508 348.324,479.54 349.641,478.877 348.986,477.557 347.668,476.246 335.147,467.675 321.973,452.525 307.482,430.785 Z"
             inkscape:connector-curvature="0" /></g></g><g
         id="g14439"><g
           id="g14437"><path
             id="path14435"
             d="M 294.305,367.544 C 293.643,366.216 292.326,365.563 291.011,366.88 289.03,367.544 288.372,368.2 289.03,370.175 L 306.164,401.141 C 319.339,423.54 331.852,440.668 345.029,451.865 346.346,453.187 347.668,453.187 348.324,451.865 350.303,450.552 350.303,449.896 348.324,448.568 336.466,436.717 323.291,420.249 310.777,397.848 299.574,380.059 294.305,370.175 294.305,367.544 Z"
             inkscape:connector-curvature="0" /></g></g><g
         id="g14445"><g
           id="g14443"><path
             id="path14441"
             d="M 300.229,341.189 C 300.229,339.866 298.254,338.552 296.936,339.866 294.961,340.527 294.961,341.845 295.617,343.823 L 310.776,370.836 C 323.29,390.602 334.49,404.432 346.345,414.971 L 350.301,414.315 C 350.957,413.66 350.957,412.336 349.64,411.022 338.44,401.141 327.244,387.309 314.723,367.544 Z"
             inkscape:connector-curvature="0" /></g></g><g
         id="g14451"><g
           id="g14449"><path
             id="path14447"
             d="M 306.818,319.445 C 306.162,317.468 304.841,317.468 303.524,318.132 301.547,319.445 301.547,320.764 302.205,322.08 L 316.701,346.453 C 327.244,363.586 337.783,377.425 347.01,387.307 H 350.958 C 352.278,385.979 352.278,384.668 350.958,384.012 341.077,374.13 331.196,360.29 320.657,343.158 Z"
             inkscape:connector-curvature="0" /></g></g><g
         id="g14457"><g
           id="g14455"><path
             id="path14453"
             d="M 314.724,299.682 C 314.069,297.707 312.75,297.707 311.432,298.369 309.455,299.025 308.793,300.339 310.114,301.664 L 320.659,321.426 C 329.878,336.573 338.441,349.094 347.668,359.632 349.643,360.293 350.96,360.293 351.617,359.632 352.935,357.662 352.935,356.999 351.617,355.682 343.054,345.143 334.491,333.28 325.263,318.79 Z"
             inkscape:connector-curvature="0" /></g></g><g
         id="g14463"><g
           id="g14461"><path
             id="path14459"
             d="M 323.95,281.896 C 323.289,280.577 321.971,279.26 320.657,280.577 318.676,281.236 318.018,281.896 318.676,283.869 L 325.927,299.023 C 331.851,310.882 339.758,321.423 348.323,331.962 L 352.934,332.618 C 354.253,331.305 354.253,330.643 352.934,328.67 344.371,318.787 337.126,307.585 330.538,296.386 Z"
             inkscape:connector-curvature="0" /></g></g><g
         id="g14469"><g
           id="g14467"><path
             id="path14465"
             d="M 333.833,266.085 C 334.489,267.402 333.833,268.06 331.851,268.718 331.198,270.034 329.876,269.378 328.559,268.06 L 349.641,303.63 C 350.302,304.958 351.617,304.958 353.597,304.294 354.254,303.63 354.254,301.663 354.254,300.338 Z"
             inkscape:connector-curvature="0" /></g></g><g
         id="g14475"><g
           id="g14473"><path
             id="path14471"
             d="M 343.053,252.908 C 342.398,251.59 341.077,250.93 339.758,251.59 337.783,251.59 337.783,252.908 337.783,254.883 L 341.077,262.79 350.302,279.26 354.254,280.576 C 354.91,279.26 355.571,277.941 354.91,275.966 351.615,271.353 348.322,266.084 346.346,260.811 Z"
             inkscape:connector-curvature="0" /></g></g><g
         id="g14481"><g
           id="g14479"><path
             id="path14477"
             d="M 249.5,552.664 C 248.189,552.664 246.869,553.32 246.208,554.64 246.208,556.616 247.525,557.933 248.846,557.933 L 318.676,561.228 C 320.657,561.228 321.316,559.911 321.316,557.933 321.316,556.616 320.659,555.958 318.676,555.958 Z"
             inkscape:connector-curvature="0" /></g></g><g
         id="g14487"><g
           id="g14485"><path
             id="path14483"
             d="M 239.62,530.919 C 237.642,530.263 236.325,530.919 236.325,532.9 236.325,534.876 236.986,536.193 238.964,536.193 L 301.549,540.145 304.188,539.488 304.843,538.168 C 304.843,536.193 303.526,535.537 301.549,534.876 Z"
             inkscape:connector-curvature="0" /></g></g><g
         id="g14493"><g
           id="g14491"><path
             id="path14489"
             d="M 233.031,511.154 C 231.718,511.154 230.398,512.479 230.398,513.792 229.736,515.772 231.054,516.43 232.375,516.43 L 287.055,521.037 289.694,519.067 C 289.694,516.428 288.374,515.772 287.055,515.772 Z"
             inkscape:connector-curvature="0" /></g></g><g
         id="g14499"><g
           id="g14497"><path
             id="path14495"
             d="M 229.081,491.391 C 227.762,490.736 225.787,491.391 225.787,492.715 225.131,494.685 225.787,496.009 227.762,496.009 238.964,500.615 254.778,502.598 274.541,503.254 275.854,503.254 277.173,502.598 277.173,500.615 277.173,499.302 276.518,497.976 274.541,497.976 255.434,497.321 239.62,495.347 229.081,491.391 Z"
             inkscape:connector-curvature="0" /></g></g><g
         id="g14505"><g
           id="g14503"><path
             id="path14501"
             d="M 225.787,471.626 C 224.468,471.626 223.148,471.626 222.492,473.607 222.492,474.92 223.148,476.246 225.131,476.9 L 260.702,482.834 C 262.678,482.834 263.996,482.834 263.996,480.852 263.996,479.54 263.339,478.214 262.019,478.214 Z"
             inkscape:connector-curvature="0" /></g></g><g
         id="g14511"><g
           id="g14509"><path
             id="path14507"
             d="M 225.131,452.525 C 223.149,451.863 221.837,452.525 221.837,453.841 220.518,455.819 221.174,457.137 223.149,457.137 L 249.502,464.38 252.797,462.403 C 252.797,460.429 252.142,459.774 250.821,459.11 Z"
             inkscape:connector-curvature="0" /></g></g><g
         id="g14517"><g
           id="g14515"><path
             id="path14513"
             d="M 258.07,422.217 C 258.07,420.247 257.407,420.247 255.431,420.247 254.113,420.247 252.793,420.904 252.793,422.217 V 436.717 L 250.817,459.113 C 250.161,460.432 250.817,461.744 252.135,462.406 254.11,463.07 255.43,461.744 255.43,460.432 L 258.069,436.716 V 422.217 Z"
             inkscape:connector-curvature="0" /></g></g><g
         id="g14523"><g
           id="g14521"><path
             id="path14519"
             d="M 275.854,426.835 C 274.541,426.835 273.221,426.835 273.221,428.804 L 271.247,446.6 265.973,479.54 C 265.973,481.508 266.634,482.169 268.61,482.834 269.928,482.834 271.249,482.169 271.905,480.196 L 276.518,447.256 278.492,429.466 C 278.49,427.491 277.834,426.835 275.854,426.835 Z"
             inkscape:connector-curvature="0" /></g></g><g
         id="g14529"><g
           id="g14527"><path
             id="path14525"
             d="M 292.324,446.6 C 291.011,446.6 290.349,447.256 290.349,449.232 L 288.37,466.365 283.1,497.978 C 282.438,499.959 283.756,500.617 285.078,501.273 287.054,501.935 287.714,501.273 288.37,499.303 L 294.304,467.675 294.96,449.896 C 294.962,447.912 294.305,446.6 292.324,446.6 Z"
             inkscape:connector-curvature="0" /></g></g><g
         id="g14535"><g
           id="g14533"><path
             id="path14531"
             d="M 310.112,470.315 C 308.135,469.658 307.48,470.315 306.818,472.951 L 304.841,487.438 298.909,514.447 C 298.253,516.428 298.909,517.086 300.889,517.742 302.202,518.405 303.522,517.742 304.184,515.772 L 310.11,489.421 312.086,472.949 C 312.088,471.626 311.432,470.315 310.112,470.315 Z"
             inkscape:connector-curvature="0" /></g></g><g
         id="g14541"><g
           id="g14539"><path
             id="path14537"
             d="M 326.583,488.095 C 324.606,488.095 323.289,488.76 323.289,490.736 L 321.314,506.549 317.362,532.246 C 316.701,533.557 317.362,534.878 318.675,535.539 320.656,536.195 321.315,535.539 321.97,533.557 L 327.243,507.863 328.556,490.738 C 328.559,489.423 327.901,488.095 326.583,488.095 Z"
             inkscape:connector-curvature="0" /></g></g><g
         id="g14547"><g
           id="g14545"><path
             id="path14543"
             d="M 341.077,501.271 C 339.1,501.271 337.783,502.597 337.783,503.912 L 337.127,519.068 331.196,544.756 C 331.196,546.075 331.196,548.05 333.17,548.05 334.489,549.369 335.809,548.05 336.464,546.075 L 341.735,519.721 343.715,504.566 C 343.715,502.598 342.396,501.271 341.077,501.271 Z"
             inkscape:connector-curvature="0" /></g></g><g
         id="g14553"><g
           id="g14551"><path
             id="path14549"
             d="M 74.263,584.284 C 98.64,549.37 112.472,509.842 114.45,465.038 115.766,450.551 115.11,437.374 113.132,423.54 L 111.155,407.727 C 96.66,411.022 83.486,415.626 70.308,422.877 63.72,391.256 51.864,362.923 34.075,336.57 L 9.041,305.614 1.794,584.284 Z"
             inkscape:connector-curvature="0"
             style="fill:#858585" /></g></g><g
         id="g14559"><g
           id="g14557"><path
             id="path14555"
             d="M 114.45,407.072 C 114.45,405.745 113.132,404.431 110.497,405.088 98.64,407.072 85.463,411.678 72.286,418.266 65.699,387.965 53.838,360.292 36.709,333.942 L 11.676,303.63 7.722,302.975 5.747,305.616 -1.5,584.284 -0.841,586.917 1.794,587.579 H 74.263 C 75.581,587.579 76.238,586.917 76.898,586.261 101.275,551.345 114.45,511.156 117.745,466.365 119.06,451.865 118.404,437.376 117.085,424.198 Z M 67.015,423.54 68.994,425.51 H 71.629 C 83.486,419.584 96.002,414.971 108.521,412.335 110.498,423.54 111.156,436.717 111.156,449.896 111.156,499.303 98.641,542.783 72.287,580.993 H 5.088 L 12.335,314.178 C 40.003,344.484 58.452,381.375 67.015,423.54 Z"
             inkscape:connector-curvature="0" /></g></g><g
         id="g14565"><g
           id="g14563"><path
             id="path14561"
             d="M 106.542,417.607 C 104.567,417.607 103.907,417.607 103.249,418.921 L 67.015,478.212 C 40.003,520.38 18.923,550.682 3.77,568.479 3.114,570.446 3.114,571.11 4.429,572.427 H 8.383 C 26.172,551.344 55.159,508.524 94.028,445.275 83.486,470.316 67.016,500.616 44.617,536.194 L 13.653,582.965 12.996,584.283 14.311,586.916 18.265,585.603 56.474,526.967 C 83.486,482.832 99.956,447.254 107.863,420.904 107.862,419.584 107.862,418.923 106.542,417.607 Z"
             inkscape:connector-curvature="0" /></g></g><g
         id="g14571"><g
           id="g14569"><path
             id="path14567"
             d="M 98.64,434.079 115.11,417.607 C 124.332,405.745 124.332,397.845 116.424,393.894 107.862,390.599 101.932,395.863 99.294,410.365 98.64,418.266 97.98,425.51 98.64,434.079 Z"
             inkscape:connector-curvature="0"
             style="fill:#ffe700" /></g></g><g
         id="g14577"><g
           id="g14575"><path
             id="path14573"
             d="M 117.084,391.913 105.227,392.568 C 100.614,395.863 97.979,403.775 96.66,414.97 L 96.001,434.077 97.32,436.715 99.955,436.053 C 104.567,433.421 109.177,428.802 114.45,422.876 122.354,413.656 125.649,407.069 124.332,401.138 124.332,397.189 121.697,393.896 117.084,391.913 Z M 119.719,401.796 V 402.452 C 119.719,409.04 113.132,417.607 101.274,428.804 V 426.835 C 101.274,410.365 103.249,400.482 107.862,397.189 109.837,395.863 112.471,395.863 115.11,397.189 117.744,397.848 119.719,399.157 119.719,401.796 Z"
             inkscape:connector-curvature="0" /></g></g><g
         id="g14583"><g
           id="g14581"><path
             id="path14579"
             d="M 71.628,420.247 C 69.649,419.584 68.993,420.247 67.673,422.217 L 49.885,449.896 C 35.393,470.317 19.582,485.465 3.113,494.685 1.134,496.009 0.475,497.323 1.794,498.642 2.454,499.959 3.77,500.617 5.748,499.303 22.217,489.423 38.688,474.264 53.839,453.188 L 72.287,424.198 C 73.603,422.217 72.943,420.904 71.628,420.247 Z"
             inkscape:connector-curvature="0" /></g></g><g
         id="g14589"><g
           id="g14587"><path
             id="path14585"
             d="M 63.72,393.234 C 63.06,392.568 61.746,392.568 60.426,394.549 L 43.298,422.215 C 28.806,441.98 15.629,456.481 3.77,465.038 1.794,466.363 1.794,467.017 3.114,468.331 3.77,469.658 4.429,469.658 6.407,468.994 18.924,459.776 32.76,445.936 46.591,425.51 L 65.699,397.19 C 66.355,395.863 65.699,393.896 63.72,393.234 Z"
             inkscape:connector-curvature="0" /></g></g><g
         id="g14595"><g
           id="g14593"><path
             id="path14591"
             d="M 54.499,368.2 C 53.179,367.544 51.864,368.2 51.204,370.175 L 36.054,395.863 C 23.533,414.314 12.996,427.491 3.77,435.39 3.114,436.715 2.454,437.372 3.77,438.685 L 7.723,439.347 C 16.946,430.784 27.487,417.607 40.004,399.157 L 55.817,372.148 C 56.473,370.836 56.473,369.514 54.499,368.2 Z"
             inkscape:connector-curvature="0" /></g></g><g
         id="g14601"><g
           id="g14599"><path
             id="path14597"
             d="M 43.297,347.779 C 41.982,347.115 41.322,347.779 40.003,349.092 L 29.464,370.174 C 20.898,384.669 12.334,395.862 4.428,403.776 3.769,405.746 3.769,407.073 4.428,407.727 5.747,409.04 7.063,409.04 8.382,407.727 16.945,399.819 24.851,387.964 34.074,372.805 L 44.616,351.073 C 45.936,349.749 45.275,348.436 43.297,347.779 Z"
             inkscape:connector-curvature="0" /></g></g><g
         id="g14607"><g
           id="g14605"><path
             id="path14603"
             d="M 32.76,330.646 C 30.781,329.984 29.465,330.646 29.465,331.962 L 23.533,345.14 C 18.264,355.023 12.335,363.585 5.748,369.511 4.429,370.173 4.429,371.491 5.748,373.468 7.064,374.786 8.383,374.786 9.041,373.468 16.945,366.878 22.877,357.659 28.146,347.779 L 34.074,333.939 C 34.734,331.964 34.075,330.646 32.76,330.646 Z"
             inkscape:connector-curvature="0" /></g></g><g
         id="g14613"><g
           id="g14611"><path
             id="path14609"
             d="M 46.591,456.481 C 44.616,456.481 43.957,457.137 43.957,458.449 L 44.616,513.792 C 44.616,515.772 45.935,516.43 47.251,516.43 L 49.886,513.792 49.229,458.449 C 49.229,457.139 47.91,456.481 46.591,456.481 Z"
             inkscape:connector-curvature="0" /></g></g><g
         id="g14619"><g
           id="g14617"><path
             id="path14615"
             d="M 63.72,432.1 C 62.406,432.1 61.086,432.761 61.086,434.079 L 60.426,455.156 V 489.423 C 60.426,491.391 61.746,492.052 63.061,492.052 65.04,492.052 65.699,490.736 65.699,489.423 V 455.156 L 66.355,434.079 C 66.355,432.761 65.699,432.1 63.72,432.1 Z"
             inkscape:connector-curvature="0" /></g></g><g
         id="g14625"><g
           id="g14623"><path
             id="path14621"
             d="M 82.168,418.923 C 82.168,416.954 80.85,415.627 79.531,415.627 77.555,415.627 76.897,416.954 76.897,418.923 L 78.215,461.743 C 78.215,463.069 79.531,463.724 81.509,463.724 82.823,463.724 83.484,463.069 83.484,461.087 Z"
             inkscape:connector-curvature="0" /></g></g><g
         id="g14631"><g
           id="g14629"><path
             id="path14627"
             d="M 113.132,441.98 85.463,463.724 C 84.803,465.037 84.145,466.363 85.463,467.017 L 89.414,467.673 116.424,446.598 C 115.11,447.254 113.789,446.598 113.132,445.274 111.815,444.618 111.815,443.304 113.132,441.98 Z"
             inkscape:connector-curvature="0" /></g></g><g
         id="g14637"><g
           id="g14635"><path
             id="path14633"
             d="M 114.45,463.726 113.132,464.382 C 98.64,476.246 84.803,486.126 70.968,492.715 69.65,493.372 68.993,494.685 69.65,496.009 70.308,497.322 71.629,497.978 73.603,497.322 87.438,490.078 101.933,480.851 116.425,468.332 117.745,467.676 117.745,466.364 116.425,465.039 Z"
             inkscape:connector-curvature="0" /></g></g><g
         id="g14643"><g
           id="g14641"><path
             id="path14639"
             d="M 113.132,491.391 109.837,490.736 C 88.758,505.891 70.308,515.774 55.817,519.724 53.838,519.724 53.178,521.037 53.838,523.019 L 57.132,524.331 C 72.942,520.382 91.392,510.5 113.131,495.349 114.45,494.028 114.45,493.372 113.132,491.391 Z"
             inkscape:connector-curvature="0" /></g></g><g
         id="g14649"><g
           id="g14647"><path
             id="path14645"
             d="M 107.862,515.772 C 106.542,514.447 105.884,514.447 104.567,515.772 L 84.803,526.31 C 68.333,534.211 53.838,539.489 40.662,543.437 38.687,543.437 38.027,544.756 39.347,546.733 39.347,548.05 40.003,549.371 41.982,548.05 63.72,542.78 85.463,532.901 107.202,519.723 109.177,519.067 109.177,517.742 107.862,515.772 Z"
             inkscape:connector-curvature="0" /></g></g><g
         id="g14655"><g
           id="g14653"><path
             id="path14651"
             d="M 97.98,545.419 C 97.98,543.439 96.66,543.439 94.686,543.439 69.65,553.322 45.936,561.228 24.852,567.155 23.533,567.155 23.533,568.48 23.533,570.447 24.193,571.773 24.852,572.428 26.828,571.773 47.91,565.841 70.969,557.933 96.661,548.714 98.64,548.051 99.294,546.732 97.98,545.419 Z"
             inkscape:connector-curvature="0" /></g></g><g
         id="g14661"><g
           id="g14659"><path
             id="path14657"
             d="M 86.12,160.018 C 93.368,154.746 99.295,148.156 101.275,138.934 127.627,117.855 152.659,98.091 177.036,79.642 L 88.098,119.829 75.581,120.489 C 66.355,121.805 59.111,124.442 55.159,128.393 49.886,133.664 46.591,138.934 45.936,144.862 45.276,150.795 46.591,158.697 49.229,169.239 L 57.133,196.25 62.406,217.99 59.768,244.342 C 59.112,256.202 59.112,265.425 61.086,270.694 63.72,278.6 69.65,287.163 76.898,294.411 86.78,304.293 99.295,311.544 113.132,317.469 L 137.509,337.233 C 159.248,349.75 186.258,353.705 217.879,350.411 L 219.856,358.974 C 221.174,364.907 220.518,370.175 219.201,373.47 L 225.789,366.88 C 231.058,360.955 233.696,353.704 235.015,345.797 L 236.328,354.367 C 237.645,361.61 236.989,366.88 235.672,369.513 L 242.259,363.587 C 247.529,358.317 249.503,351.072 250.823,341.847 L 253.462,351.074 C 255.437,358.974 255.437,364.907 255.437,370.178 262.025,362.926 265.976,353.706 265.976,342.505 L 268.613,349.751 271.252,360.294 277.839,353.043 C 281.79,347.117 283.11,340.529 282.445,334.605 281.79,318.133 275.202,307.587 262.025,303.63 247.529,293.752 237.648,285.85 233.036,280.577 228.43,274.647 221.18,268.06 212.617,261.473 200.758,252.25 190.214,247.638 180.335,245.661 L 148.71,247.638 128.29,250.27 106.545,245 C 92.71,241.047 85.465,237.754 85.465,234.46 V 219.968 C 85.465,213.38 84.805,206.131 82.827,199.546 L 73.605,177.145 C 70.971,170.558 71.631,165.944 75.584,164.626 78.875,163.971 82.825,162.651 86.12,160.018 Z"
             inkscape:connector-curvature="0"
             style="fill:#ffffff" /></g></g><g
         id="g14667"><g
           id="g14665"><path
             id="path14663"
             d="M 228.425,317.471 C 231.057,319.446 231.721,321.425 230.401,324.059 229.083,328.016 225.131,329.985 218.544,328.672 L 188.896,324.059 C 198.12,327.352 205.369,333.278 211.293,340.528 L 217.881,350.412 219.859,358.975 C 221.176,364.907 220.521,370.175 219.203,373.47 L 225.791,366.88 C 231.061,360.955 233.697,353.704 235.018,345.797 L 236.331,354.367 C 237.649,361.611 236.991,366.88 235.675,369.513 L 242.262,363.586 C 247.533,358.315 249.506,351.071 250.826,341.847 L 253.465,351.073 C 255.439,358.974 255.439,364.906 255.439,370.176 262.027,362.925 265.978,353.705 265.978,342.504 L 268.615,349.75 271.255,360.293 277.842,353.042 C 281.793,347.116 283.112,340.527 282.449,334.605 281.793,318.132 275.205,307.586 262.027,303.629 L 250.171,295.069 C 248.854,299.022 246.216,301 241.608,301.662 L 235.022,301 237.653,304.957 C 238.972,308.249 238.972,310.883 237.653,312.199 235.022,315.495 231.065,316.149 224.477,314.175 Z"
             inkscape:connector-curvature="0"
             style="fill:#858585" /></g></g><g
         id="g14673"><g
           id="g14671"><path
             id="path14669"
             d="M 78.216,119.829 C 67.015,121.149 59.768,124.442 55.159,128.393 49.229,134.324 45.936,140.913 45.936,148.155 L 56.474,144.862 C 61.747,144.206 65.7,142.228 68.334,140.253 70.969,137.618 72.943,134.324 74.921,129.711 Z"
             inkscape:connector-curvature="0"
             style="fill:#da8e55" /></g></g><g
         id="g14679"><g
           id="g14677"><path
             id="path14675"
             d="M 179.67,78.328 C 179.01,76.348 177.035,75.688 175.717,77.008 L 86.78,116.536 C 70.968,116.536 59.768,119.829 52.524,126.418 45.936,133.005 42.641,140.253 42.641,149.475 42.641,154.088 43.298,160.678 45.936,169.899 L 52.524,192.957 C 56.473,205.473 59.111,214.038 59.111,218.65 L 57.793,234.46 55.816,256.858 C 55.816,262.789 56.472,268.059 58.451,272.013 61.085,280.576 67.014,288.481 74.92,297.045 84.802,306.27 96.659,314.174 111.154,320.1 117.084,328.014 126.306,334.604 137.508,341.19 159.247,353.041 185.599,356.998 215.247,354.367 L 217.225,365.561 215.905,371.493 V 373.47 L 216.561,376.099 H 220.518 C 225.788,372.806 229.737,367.544 233.694,360.292 V 360.955 L 232.376,368.2 V 369.513 L 233.032,371.493 236.987,372.806 C 242.913,369.513 247.526,363.587 250.821,355.68 L 252.139,367.544 V 370.175 C 252.139,371.493 252.794,372.806 254.114,373.47 L 258.071,372.806 C 262.02,368.202 265.315,362.924 267.291,355.681 L 267.954,359.631 V 360.292 L 269.267,363.587 273.222,362.924 C 282.443,354.367 287.056,344.486 285.736,334.605 285.083,316.808 277.174,305.616 263.34,301.001 248.847,291.119 239.621,283.869 235.67,278.601 231.058,272.673 224.469,266.085 215.905,258.838 203.385,249.614 191.528,244.343 180.991,242.368 L 139.484,245.661 128.942,246.977 101.933,239.731 C 93.368,237.755 89.414,235.119 88.758,233.8 V 219.969 C 88.758,212.721 88.098,205.473 86.12,198.886 L 79.532,182.415 75.582,169.901 V 169.241 L 76.898,167.264 89.415,161.993 C 96.661,157.382 101.275,149.476 103.909,140.913 130.921,118.511 155.954,99.406 179.012,82.277 L 180.332,79.642 Z M 49.229,144.862 C 49.886,139.593 52.524,134.98 56.473,131.031 60.426,127.736 67.015,124.442 76.237,123.124 H 88.097 L 89.413,122.463 152,94.795 99.294,136.3 97.98,137.618 C 96.001,146.182 91.393,152.768 84.803,157.381 81.51,159.358 78.216,160.678 74.921,161.332 H 74.263 C 71.629,162.65 70.308,163.97 69.65,165.945 L 68.994,169.9 C 68.994,172.533 70.308,177.146 73.603,185.051 L 80.191,200.204 C 81.511,206.792 82.169,212.721 82.169,219.969 V 234.461 C 82.169,241.708 97.321,248.296 127.627,253.565 L 140.802,252.25 180.331,248.956 C 188.893,250.27 198.779,254.884 209.975,263.448 218.542,269.379 225.788,275.968 230.401,282.555 235.014,287.825 244.895,295.732 260.047,306.271 L 260.703,306.924 C 271.903,310.883 278.491,320.101 279.147,335.258 V 336.571 C 279.147,341.844 277.834,347.114 273.221,353.04 L 269.264,341.188 C 268.608,339.864 267.289,338.551 265.315,339.209 263.997,339.864 262.676,340.526 262.676,342.502 262.676,347.778 261.363,353.703 258.071,360.291 L 255.432,347.114 254.114,341.188 C 252.796,339.864 252.139,338.551 250.164,338.551 248.847,339.207 247.526,340.526 247.526,341.844 246.87,350.407 244.895,356.333 240.283,360.952 240.283,355.019 239.621,349.746 238.307,345.139 237.643,343.821 236.326,342.5 235.012,342.5 232.374,343.156 231.719,343.82 231.719,345.139 231.055,352.382 228.424,358.315 223.811,364.246 L 221.173,349.746 C 219.856,347.775 219.197,347.111 217.225,347.111 186.917,350.407 161.882,346.451 139.483,334.601 L 115.766,315.493 114.45,314.173 C 100.615,308.902 89.414,301.66 80.191,292.435 72.287,285.188 67.016,277.279 63.721,269.375 62.407,264.103 62.407,252.247 64.382,235.116 L 65.7,217.99 C 65.7,212.061 63.062,203.499 59.113,191.636 L 51.865,168.579 C 49.886,158.038 48.57,150.795 49.229,144.862 Z"
             inkscape:connector-curvature="0" /></g></g><g
         id="g14685"><g
           id="g14683"><path
             id="path14681"
             d="M 185.6,347.779 C 183.623,347.115 182.305,347.779 181.645,350.41 L 167.154,417.607 160.566,440.668 149.366,484.147 C 149.366,486.783 150.024,488.094 152.658,488.094 153.978,488.759 155.953,488.094 155.953,486.125 158.588,474.919 162.54,459.775 167.154,442.642 L 173.743,418.922 188.234,351.728 C 188.234,349.749 187.578,348.436 185.6,347.779 Z"
             inkscape:connector-curvature="0" /></g></g><g
         id="g14691"><g
           id="g14689"><path
             id="path14687"
             d="M 155.953,483.49 C 155.293,482.834 153.978,482.169 152.658,482.169 L 136.189,482.834 134.874,483.49 124.332,491.389 C 123.014,492.713 123.014,494.028 124.332,495.345 124.993,496.663 126.307,496.663 127.627,496.007 L 137.509,488.093 146.071,487.437 124.332,506.545 C 123.014,507.201 123.014,509.184 124.332,510.496 H 127.627 L 155.294,486.78 C 155.953,486.126 155.953,484.803 155.953,483.49 Z"
             inkscape:connector-curvature="0" /></g></g><g
         id="g14697"><g
           id="g14695"><path
             id="path14693"
             d="M 153.979,482.169 C 152.659,481.508 150.685,482.169 150.685,483.49 150.685,485.465 150.685,486.782 152.659,486.782 L 158.589,488.76 171.764,489.423 C 173.744,489.423 173.744,488.76 173.744,486.782 173.744,485.465 172.424,484.146 171.109,484.146 L 159.249,483.49 Z"
             inkscape:connector-curvature="0" /></g></g><g
         id="g14703"><g
           id="g14701"><path
             id="path14699"
             d="M 191.527,420.904 C 179.009,409.04 167.152,390.599 154.635,366.88 L 139.482,334.606 C 138.166,333.278 136.188,332.622 134.212,333.278 132.894,333.942 132.894,335.259 132.894,336.574 V 337.235 L 148.704,370.175 C 161.225,393.897 173.741,411.678 185.599,424.196 L 186.917,509.184 188.233,511.154 C 188.891,512.479 188.891,512.479 190.208,512.479 192.188,512.479 193.502,511.154 193.502,509.184 L 192.189,423.538 Z"
             inkscape:connector-curvature="0" /></g></g><g
         id="g14709"><g
           id="g14707"><path
             id="path14705"
             d="M 192.848,507.859 C 192.192,506.546 190.871,505.889 190.209,506.546 L 162.541,509.841 161.883,510.497 149.366,520.379 C 148.05,521.698 148.05,523.018 149.366,524.328 150.684,526.308 152.001,526.308 152.658,524.328 157.271,520.379 160.566,517.085 163.861,515.77 L 180.331,513.133 168.47,521.034 154.637,533.552 153.979,535.534 154.637,537.503 C 155.953,538.828 157.272,538.828 158.588,537.503 L 170.448,525.651 192.189,511.151 192.845,509.181 V 507.858 H 192.848 Z"
             inkscape:connector-curvature="0" /></g></g><g
         id="g14715"><g
           id="g14713"><path
             id="path14711"
             d="M 192.189,511.816 209.316,514.447 C 211.291,514.447 212.611,513.792 212.611,512.479 212.611,509.84 211.955,509.184 209.972,509.184 L 190.207,506.545 C 189.551,505.889 188.892,506.545 188.231,507.858 L 171.759,538.167 C 170.445,539.487 170.445,540.801 172.419,541.462 173.739,542.78 175.054,542.78 175.713,540.801 Z"
             inkscape:connector-curvature="0" /></g></g><g
         id="g14721"><g
           id="g14719"><path
             id="path14717"
             d="M 84.803,139.593 82.824,136.301 79.531,134.324 C 77.555,134.324 76.897,134.98 75.58,136.301 74.92,137.619 73.601,138.274 73.601,140.254 73.601,141.57 74.919,142.887 75.58,144.207 L 79.531,144.863 C 82.825,144.862 84.803,143.546 84.803,139.593 Z"
             inkscape:connector-curvature="0" /></g></g><g
         id="g14727"><g
           id="g14725"><path
             id="path14723"
             d="M 85.463,219.969 C 85.463,213.381 84.803,206.132 82.825,199.547 L 73.603,177.146 C 70.969,170.559 71.629,165.945 75.582,164.627 75.582,162.65 74.922,162.65 73.603,161.992 72.287,161.332 69.65,164.627 67.016,171.214 65.7,173.192 67.016,177.801 70.309,185.05 74.922,192.956 77.557,200.203 78.217,206.131 80.192,221.943 80.192,233.145 78.217,241.047 76.238,245.66 70.309,252.249 59.769,260.151 59.769,264.104 59.769,267.401 61.087,270.693 L 62.407,272.671 C 63.721,268.058 67.016,262.13 70.309,257.518 76.898,247.636 85.464,241.706 94.686,241.047 88.758,238.414 85.463,235.777 85.463,234.46 Z"
             inkscape:connector-curvature="0" /></g></g><g
         id="g14733"><g
           id="g14731"><path
             id="path14729"
             d="M 88.098,116.536 C 86.78,116.536 85.463,117.196 85.463,118.511 85.463,121.149 86.12,121.805 87.438,121.805 L 91.393,123.124 96.661,127.736 C 99.295,131.031 99.956,134.324 98.64,138.273 98.64,139.593 99.295,140.913 100.615,141.569 102.59,141.569 103.25,140.912 103.25,139.592 104.568,133.663 104.568,128.392 101.933,124.441 99.955,121.804 96.661,119.828 93.368,118.51 Z"
             inkscape:connector-curvature="0" /></g></g><g
         id="g14739"><g
           id="g14737"><path
             id="path14735"
             d="M 129.601,248.296 C 128.285,246.977 126.966,247.638 126.307,248.956 L 119.72,264.766 C 116.425,275.968 118.404,285.85 124.332,294.413 130.262,302.32 138.824,308.907 150.024,314.178 165.836,322.082 188.893,327.352 217.879,331.309 225.787,331.965 231.057,330.649 232.375,325.378 L 233.031,322.082 231.718,317.471 C 235.667,317.471 238.306,315.497 239.618,314.178 L 241.597,308.907 239.618,304.295 C 246.867,304.295 251.479,301.664 252.793,295.732 V 295.072 L 250.817,292.438 C 248.842,292.438 248.186,292.438 247.522,294.413 246.206,298.369 242.252,300.339 235.01,298.369 233.692,298.369 232.371,298.369 232.371,300.339 231.716,301.002 231.716,302.32 232.371,303.631 L 235.01,306.272 C 235.665,308.251 236.323,310.223 235.665,310.885 L 225.127,311.546 C 223.809,311.546 222.488,312.201 221.833,313.514 221.833,314.841 221.833,316.809 223.145,316.809 L 225.785,318.79 C 227.761,320.766 228.423,321.426 227.761,323.396 226.443,325.376 223.81,326.689 218.54,326.689 190.207,322.74 168.468,317.47 152.656,310.22 142.116,304.957 134.212,298.367 128.283,291.118 123.012,284.529 122.352,275.306 124.99,265.424 L 130.917,251.589 C 131.58,250.931 131.58,249.614 129.601,248.296 Z"
             inkscape:connector-curvature="0" /></g></g><g
         id="g14745"><g
           id="g14743"><path
             id="path14741"
             d="M 125.648,259.496 121.697,258.838 C 121.037,260.813 121.037,261.473 121.697,262.791 137.509,280.578 159.247,294.413 185.6,305.615 199.433,310.885 212.611,314.841 223.81,317.47 225.787,317.47 226.443,316.808 227.105,314.839 227.105,313.513 226.443,312.199 225.129,311.544 214.584,310.22 202.071,306.271 188.892,301 162.541,289.799 140.802,275.967 125.648,259.496 Z"
             inkscape:connector-curvature="0" /></g></g><g
         id="g14751"><g
           id="g14749"><path
             id="path14747"
             d="M 152.658,245.001 H 148.705 C 147.389,246.321 147.389,248.296 148.705,248.956 163.86,261.473 182.304,274.648 204.704,287.825 215.904,294.413 225.131,299.681 233.031,303.631 235.011,304.295 235.669,304.295 236.986,302.32 237.642,301.002 237.642,300.339 235.669,299.025 227.762,295.072 217.879,289.798 206.68,283.212 184.939,270.695 167.154,257.52 152.658,245.001 Z"
             inkscape:connector-curvature="0" /></g></g><g
         id="g14757"><g
           id="g14755"><path
             id="path14753"
             d="M 129.601,293.752 C 127.626,292.438 126.307,293.094 126.307,295.07 126.307,297.047 126.307,297.707 127.627,298.368 L 139.484,301.001 C 146.071,301.001 152.001,300.338 155.294,297.707 158.589,295.07 159.249,291.777 159.249,287.824 L 158.589,285.849 155.954,285.19 C 154.638,285.19 153.979,285.849 153.979,287.824 153.979,290.46 153.979,292.437 152.001,293.752 148.049,296.389 140.802,296.389 129.601,293.752 Z"
             inkscape:connector-curvature="0" /></g></g><g
         id="g14763"><g
           id="g14761"><path
             id="path14759"
             d="M 142.118,279.261 C 142.118,281.237 142.776,281.897 144.097,282.555 162.541,287.825 175.718,287.825 183.623,282.555 186.918,281.237 188.893,277.942 189.553,274.648 190.209,272.673 188.893,272.015 187.578,271.355 185.6,271.355 184.939,272.015 184.939,273.988 L 180.99,277.943 162.54,280.578 145.411,277.283 C 144.097,277.282 142.776,277.942 142.118,279.261 Z"
             inkscape:connector-curvature="0" /></g></g><g
         id="g14769"><g
           id="g14767"><path
             id="path14765"
             d="M 213.268,258.838 C 211.955,258.178 209.975,258.178 209.975,260.152 208.662,262.79 206.68,265.425 204.048,266.742 197.46,269.378 188.893,268.718 177.036,264.765 175.718,263.447 175.058,264.105 173.743,265.425 173.743,267.402 173.743,268.718 175.718,269.378 188.235,274.648 198.78,275.308 206.68,271.355 209.975,269.378 213.268,266.085 215.248,262.133 215.248,260.813 215.248,258.838 213.268,258.838 Z"
             inkscape:connector-curvature="0" /></g></g><g
         id="g14775"><g
           id="g14773"><path
             id="path14771"
             d="M 196.797,304.958 C 196.797,303.63 195.484,302.975 193.503,302.975 192.19,302.975 191.527,304.294 191.527,305.616 191.527,308.252 190.871,310.221 188.892,310.886 185.6,314.842 178.35,316.81 167.152,315.498 165.173,314.842 163.859,315.498 163.859,317.472 163.859,319.449 164.517,320.767 166.494,320.767 179.009,321.427 188.233,320.105 193.501,314.842 195.482,312.2 196.797,308.906 196.797,304.958 Z"
             inkscape:connector-curvature="0" /></g></g><g
         id="g14781"><g
           id="g14779"><path
             id="path14777"
             d="M 213.268,287.824 C 211.955,287.164 211.291,287.824 210.635,289.799 209.975,294.412 205.365,297.707 196.797,298.368 L 184.283,299.023 C 182.304,299.023 181.645,299.681 181.645,301.001 181.645,303.63 182.305,304.294 183.623,304.294 H 199.436 C 209.319,301.663 215.249,297.707 215.905,290.46 215.904,288.482 215.248,287.824 213.268,287.824 Z"
             inkscape:connector-curvature="0" /></g></g><g
         id="g14787"><g
           id="g14785"><path
             id="path14783"
             d="M 237.645,281.236 C 236.327,280.577 235.669,279.917 233.696,281.236 225.789,287.164 216.561,287.824 207.343,283.869 205.365,282.555 204.704,283.211 203.386,284.53 202.731,286.506 203.386,287.824 205.365,287.824 L 215.904,291.119 C 223.81,291.777 231.054,289.799 236.986,285.19 238.309,284.53 238.964,282.555 237.645,281.236 Z"
             inkscape:connector-curvature="0" /></g></g><g
         id="g14793"><g
           id="g14791"><path
             id="path14789"
             d="M 190.209,321.425 C 188.893,320.764 186.918,321.425 186.918,323.397 186.258,324.059 186.918,325.377 188.234,326.69 196.797,329.985 203.384,335.259 209.316,341.848 L 215.248,351.729 C 215.904,353.706 216.561,353.706 218.542,353.706 219.855,353.043 220.518,351.074 219.855,349.751 L 213.265,338.556 C 206.68,331.309 198.777,325.377 190.209,321.425 Z"
             inkscape:connector-curvature="0" /></g></g><g
         id="g14799"><g
           id="g14797"><path
             id="path14795"
             d="M 227.762,326.033 223.813,326.689 C 222.494,327.349 222.494,328.67 224.468,329.984 229.081,334.603 232.375,339.866 232.375,345.797 232.375,347.115 233.031,348.436 235.014,348.436 236.987,348.436 237.645,347.117 237.645,345.797 237.645,337.896 234.352,331.309 227.762,326.033 Z"
             inkscape:connector-curvature="0" /></g></g><g
         id="g14805"><g
           id="g14803"><path
             id="path14801"
             d="M 238.964,310.884 C 237.645,309.563 236.325,309.563 235.669,310.884 L 235.014,312.2 235.669,314.176 C 242.912,320.764 247.525,330.647 248.19,342.503 248.19,344.484 248.846,345.141 250.821,344.484 252.139,344.484 253.461,343.823 253.461,341.845 L 251.483,330.646 C 248.846,322.081 244.895,315.496 238.964,310.884 Z"
             inkscape:connector-curvature="0" /></g></g><g
         id="g14811"><g
           id="g14809"><path
             id="path14807"
             d="M 244.232,299.023 240.937,300.336 C 239.62,301.661 239.62,302.972 241.599,303.628 250.162,308.248 256.087,316.806 260.702,327.349 262.019,333.277 263.339,337.896 263.996,342.501 263.996,343.821 264.659,345.14 265.973,345.14 267.953,345.14 268.61,343.823 268.61,342.501 268.61,337.231 267.292,331.306 265.317,325.375 260.702,314.176 254.113,304.958 244.232,299.023 Z"
             inkscape:connector-curvature="0" /></g></g></g><rect
       ry="30"
       rx="30"
       y="1"
       x="1"
       height="585"
       width="370"
       id="rect12023-5-0"
       style="color:#000000;clip-rule:nonzero;display:inline;overflow:visible;visibility:visible;opacity:1;isolation:auto;mix-blend-mode:normal;color-interpolation:sRGB;color-interpolation-filters:linearRGB;solid-color:#000000;solid-opacity:1;vector-effect:none;fill:none;fill-opacity:1;fill-rule:nonzero;stroke:#000000;stroke-width:10;stroke-linecap:butt;stroke-linejoin:miter;stroke-miterlimit:4;stroke-dasharray:none;stroke-dashoffset:0;stroke-opacity:1;color-rendering:auto;image-rendering:auto;shape-rendering:auto;text-rendering:auto;enable-background:accumulate" /><rect
       ry="30"
       rx="30"
       y="1"
       x="1"
       height="585"
       width="370"
       id="rect12023-5-3"
       style="color:#000000;clip-rule:nonzero;display:inline;overflow:visible;visibility:visible;opacity:1;isolation:auto;mix-blend-mode:normal;color-interpolation:sRGB;color-interpolation-filters:linearRGB;solid-color:#000000;solid-opacity:1;vector-effect:none;fill:#d2f3f4;fill-opacity:0;fill-rule:nonzero;stroke:none;stroke-width:1.50000012;stroke-linecap:butt;stroke-linejoin:miter;stroke-miterlimit:4;stroke-dasharray:none;stroke-dashoffset:0;stroke-opacity:1;color-rendering:auto;image-rendering:auto;shape-rendering:auto;text-rendering:auto;enable-background:accumulate" /></g></svg>