<?xml version="1.0" encoding="UTF-8" standalone="no"?>
<!-- Generator: Adobe Illustrator 13.0.0, SVG Export Plug-In . SVG Version: 6.00 Build 14948)  -->

<svg
   xmlns:dc="http://purl.org/dc/elements/1.1/"
   xmlns:cc="http://creativecommons.org/ns#"
   xmlns:rdf="http://www.w3.org/1999/02/22-rdf-syntax-ns#"
   xmlns:svg="http://www.w3.org/2000/svg"
   xmlns="http://www.w3.org/2000/svg"
   xmlns:sodipodi="http://sodipodi.sourceforge.net/DTD/sodipodi-0.dtd"
   xmlns:inkscape="http://www.inkscape.org/namespaces/inkscape"
   version="1.1"
   id="圖層_1"
   x="0px"
   y="0px"
   width="372px"
   height="587px"
   viewBox="0 0 372 587"
   enable-background="new 0 0 372 587"
   xml:space="preserve"
   sodipodi:docname="Hanafuda_1-2.svg"
   inkscape:version="0.92.2 5c3e80d, 2017-08-06"><metadata
     id="metadata8048"><rdf:RDF><cc:Work
         rdf:about=""><dc:format>image/svg+xml</dc:format><dc:type
           rdf:resource="http://purl.org/dc/dcmitype/StillImage" /></cc:Work></rdf:RDF></metadata><defs
     id="defs8046"><clipPath
       clipPathUnits="userSpaceOnUse"
       id="clipPath1273"><rect
         style="color:#000000;clip-rule:nonzero;display:inline;overflow:visible;visibility:visible;opacity:1;isolation:auto;mix-blend-mode:normal;color-interpolation:sRGB;color-interpolation-filters:linearRGB;solid-color:#000000;solid-opacity:1;vector-effect:none;fill:none;fill-opacity:1;fill-rule:nonzero;stroke:#ffff00;stroke-width:10;stroke-linecap:butt;stroke-linejoin:miter;stroke-miterlimit:4;stroke-dasharray:none;stroke-dashoffset:0;stroke-opacity:1;color-rendering:auto;image-rendering:auto;shape-rendering:auto;text-rendering:auto;enable-background:accumulate"
         id="rect1275"
         width="370"
         height="585"
         x="1"
         y="1"
         rx="30"
         ry="30" /></clipPath></defs><sodipodi:namedview
     pagecolor="#ffffff"
     bordercolor="#666666"
     borderopacity="1"
     objecttolerance="10"
     gridtolerance="10"
     guidetolerance="10"
     inkscape:pageopacity="0"
     inkscape:pageshadow="2"
     inkscape:window-width="1280"
     inkscape:window-height="751"
     id="namedview8044"
     showgrid="false"
     inkscape:zoom="0.56857649"
     inkscape:cx="388.70402"
     inkscape:cy="297.01756"
     inkscape:window-x="0"
     inkscape:window-y="1"
     inkscape:window-maximized="1"
     inkscape:current-layer="圖層_1" /><g
     id="g1501"><rect
       ry="30"
       rx="30"
       y="1"
       x="1"
       height="585"
       width="370"
       id="rect12023-5"
       style="color:#000000;clip-rule:nonzero;display:inline;overflow:visible;visibility:visible;opacity:1;isolation:auto;mix-blend-mode:normal;color-interpolation:sRGB;color-interpolation-filters:linearRGB;solid-color:#000000;solid-opacity:1;vector-effect:none;fill:#f4e9d2;fill-opacity:1;fill-rule:nonzero;stroke:none;stroke-width:1.50000012;stroke-linecap:butt;stroke-linejoin:miter;stroke-miterlimit:4;stroke-dasharray:none;stroke-dashoffset:0;stroke-opacity:1;color-rendering:auto;image-rendering:auto;shape-rendering:auto;text-rendering:auto;enable-background:accumulate" /><g
       clip-path="url(#clipPath1273)"
       id="g8040"><g
         id="g8038"><g
           id="g7604"><g
             id="g7602"><path
               id="path7600"
               d="M 167.557,286.461 158.938,303.704 C 153.631,318.959 149.652,337.525 147.664,356.757 141.032,420.421 154.96,492.705 190.104,574.935 L 357.886,504.644 C 322.737,422.41 280.294,361.401 231.222,321.612 215.967,309.013 200.716,299.065 184.801,292.433 Z"
               inkscape:connector-curvature="0"
               style="fill:#858585" /></g></g><g
           id="g7610"><g
             id="g7608"><path
               id="path7606"
               d="M 167.557,283.146 C 166.895,283.146 165.57,283.146 164.243,284.474 161.591,288.453 158.275,295.085 154.96,304.368 149.652,320.284 145.675,337.525 143.685,358.085 137.716,421.085 152.308,493.368 186.789,576.263 187.453,578.915 189.441,578.915 190.769,578.251 L 193.42,574.935 V 573.612 C 164.242,504.644 149.651,441.644 149.651,385.936 149.651,361.401 152.306,340.179 157.61,320.285 160.925,307.685 164.242,297.738 168.885,290.442 190.768,297.074 213.978,311.001 239.176,332.884 284.274,372.672 322.736,430.368 354.569,505.967 355.23,507.96 356.557,508.619 358.546,507.296 361.201,506.631 361.862,505.304 360.537,503.317 326.052,420.421 283.61,360.075 234.537,320.285 219.282,307.02 204.031,297.738 188.117,290.442 179.493,286.461 172.861,284.474 167.557,283.146 Z"
               inkscape:connector-curvature="0" /></g></g><g
           id="g7616"><g
             id="g7614"><path
               id="path7612"
               d="M 178.168,312.327 C 178.832,305.032 178.832,297.737 177.505,291.105 176.178,277.178 170.874,271.874 162.914,275.854 154.295,279.169 154.295,285.802 162.914,297.073 Z"
               inkscape:connector-curvature="0"
               style="fill:#ffe700" /></g></g><g
           id="g7622"><g
             id="g7620"><path
               id="path7618"
               d="M 161.59,272.538 C 157.611,274.527 154.959,277.842 154.295,281.158 153.631,287.125 156.947,293.757 163.578,301.717 L 176.842,314.316 179.493,314.98 180.821,312.989 V 294.423 C 180.156,283.811 177.505,276.515 172.861,273.2 Z M 159.598,282.485 C 159.598,279.83 160.926,279.169 163.578,277.842 166.23,276.514 167.557,276.514 169.546,277.842 174.19,281.158 176.178,289.778 176.178,304.368 V 307.019 C 164.907,296.409 159.598,288.453 159.598,283.145 Z"
               inkscape:connector-curvature="0" /></g></g><g
           id="g7628"><g
             id="g7626"><path
               id="path7624"
               d="M 180.821,311.663 C 179.493,310.337 178.168,309.672 177.505,310.337 175.516,311 174.853,311.663 175.516,313.652 L 202.704,386.599 C 224.59,446.283 247.138,503.979 271.011,560.347 272.335,561.672 272.999,562.335 274.327,561.012 L 276.315,559.02 V 557.695 C 249.125,493.368 223.262,427.716 198.063,360.737 226.578,420.421 255.755,484.085 284.274,552.388 285.598,554.379 286.262,555.04 287.589,553.716 289.577,553.052 290.241,552.388 289.577,550.4 251.116,460.874 214.643,380.631 180.821,311.663 Z"
               inkscape:connector-curvature="0" /></g></g><g
           id="g7634"><g
             id="g7632"><path
               id="path7630"
               d="M 156.282,316.304 C 154.959,314.98 154.295,314.98 152.967,316.304 151.643,317.632 151.643,318.959 152.967,320.284 L 161.59,327.578 C 169.546,333.547 177.505,337.525 186.788,341.506 188.117,342.169 189.44,341.506 190.103,340.179 190.768,338.191 190.103,337.526 188.117,336.863 180.156,332.884 171.537,328.244 164.242,323.6 Z"
               inkscape:connector-curvature="0" /></g></g><g
           id="g7640"><g
             id="g7638"><path
               id="path7636"
               d="M 150.979,339.515 147.664,340.179 C 146.337,340.843 146.337,342.169 147.664,344.158 L 164.907,356.757 C 177.506,364.717 189.441,370.684 198.728,374.665 200.716,374.665 201.379,374.665 202.705,373.336 202.705,371.349 202.705,370.021 200.717,370.021 190.77,366.041 180.157,360.075 167.558,351.454 Z"
               inkscape:connector-curvature="0" /></g></g><g
           id="g7646"><g
             id="g7644"><path
               id="path7642"
               d="M 147.663,368.696 C 147,368.032 145.011,368.032 144.348,370.02 143.684,370.683 143.684,372.012 144.348,373.335 L 163.578,384.61 C 178.168,393.229 194.084,400.525 210.663,405.829 212.651,406.493 213.978,405.169 213.978,403.842 213.978,401.854 213.978,401.189 212.651,400.526 196.072,395.221 180.821,388.589 165.569,380.63 Z"
               inkscape:connector-curvature="0" /></g></g><g
           id="g7652"><g
             id="g7650"><path
               id="path7648"
               d="M 201.379,299.725 C 201.379,297.738 200.716,297.074 198.064,297.074 196.736,297.074 196.073,297.738 196.073,299.725 L 195.413,311 C 194.084,319.619 191.432,328.243 187.452,336.862 187.452,338.19 187.452,340.178 189.44,340.842 190.768,340.842 192.094,340.842 192.755,338.853 196.734,330.231 199.387,320.947 200.715,310.999 Z"
               inkscape:connector-curvature="0" /></g></g><g
           id="g7658"><g
             id="g7656"><path
               id="path7654"
               d="M 219.282,310.337 C 217.294,309.672 216.631,311 216.631,312.327 L 213.316,332.222 C 210.664,347.475 207.347,360.075 203.368,368.697 202.044,370.684 202.705,371.349 204.032,372.013 206.02,373.336 207.347,372.013 207.347,370.684 211.991,360.738 215.967,348.802 218.622,334.21 L 221.274,312.327 C 221.274,311 220.61,310.337 219.282,310.337 Z"
               inkscape:connector-curvature="0" /></g></g><g
           id="g7664"><g
             id="g7662"><path
               id="path7660"
               d="M 242.494,328.243 C 240.506,328.243 239.842,328.906 239.842,330.894 L 235.201,350.79 C 230.557,367.369 224.59,383.283 217.294,398.537 215.967,400.526 216.631,401.189 217.959,401.854 219.947,403.177 220.61,402.514 221.938,400.526 229.895,385.274 235.863,368.696 240.506,352.117 L 244.485,330.894 C 244.485,329.567 243.821,328.243 242.494,328.243 Z"
               inkscape:connector-curvature="0" /></g></g><g
           id="g7670"><g
             id="g7668"><path
               id="path7666"
               d="M 373.137,256.62 C 362.526,238.053 351.254,222.138 338.652,209.538 L 323.4,194.948 C 306.822,206.223 290.243,226.778 274.328,256.62 241.17,317.632 224.591,396.547 224.591,492.705 L 173.527,603.453 H 421.548 V 492.705 C 421.546,396.547 405.63,317.632 373.137,256.62 Z"
               inkscape:connector-curvature="0"
               style="fill:#858585" /></g></g><g
           id="g7676"><g
             id="g7674"><path
               id="path7672"
               d="M 325.388,192.295 C 324.064,191.631 322.737,191.631 321.412,192.295 303.506,204.895 286.263,226.117 270.347,256.62 237.854,316.968 221.938,395.222 221.275,492.042 L 170.875,602.125 170.21,603.453 170.875,605.441 173.526,606.768 H 421.547 C 424.202,606.768 424.862,606.105 424.862,603.453 V 492.705 C 424.862,395.883 408.947,317.632 376.453,256.62 366.506,237.389 355.231,221.474 342.632,208.211 Z M 323.399,199.59 C 342.63,214.842 359.874,238.052 375.789,271.21 404.307,329.567 418.23,403.842 418.23,492.705 V 600.138 H 178.832 L 227.906,494.033 V 492.706 C 227.906,403.844 242.494,329.568 271.01,271.211 286.926,238.053 304.169,214.842 323.399,199.59 Z"
               inkscape:connector-curvature="0" /></g></g><g
           id="g7682"><g
             id="g7680"><path
               id="path7678"
               d="M 323.399,216.83 C 322.071,216.83 320.749,218.158 320.749,219.486 L 316.104,337.526 C 312.788,431.697 312.124,522.547 313.453,607.433 313.453,608.757 314.116,610.085 316.104,610.085 317.431,610.085 318.755,608.757 318.755,607.433 L 317.431,519.231 C 317.431,440.981 320.082,358.085 323.399,271.211 326.714,358.086 329.367,440.981 329.367,519.231 L 328.044,607.433 C 328.044,608.757 329.367,610.085 330.695,610.085 332.683,610.085 333.346,608.757 333.346,607.433 335.335,522.547 334.01,431.697 331.358,337.526 L 326.051,219.486 C 326.052,218.158 325.388,216.83 323.399,216.83 Z"
               inkscape:connector-curvature="0" /></g></g><g
           id="g7688"><g
             id="g7686"><path
               id="path7684"
               d="M 300.189,221.474 C 299.525,220.146 298.201,219.486 296.874,220.146 294.885,221.474 294.222,222.138 294.885,223.462 L 300.19,234.737 C 305.494,243.357 312.125,251.317 320.084,259.276 321.413,259.936 322.737,259.936 323.4,259.276 325.388,257.948 325.388,256.62 323.4,255.96 316.769,248.665 310.137,240.706 305.494,232.75 Z"
               inkscape:connector-curvature="0" /></g></g><g
           id="g7694"><g
             id="g7692"><path
               id="path7690"
               d="M 284.938,242.696 C 283.611,241.368 282.947,241.368 280.959,241.368 279.632,242.696 278.969,243.356 280.295,245.348 L 292.232,264.578 C 300.855,279.169 310.138,289.777 318.098,297.737 320.084,298.4 320.75,298.4 322.073,297.737 323.401,295.748 323.401,294.422 322.073,293.757 313.455,285.802 305.495,275.854 296.212,261.263 Z"
               inkscape:connector-curvature="0" /></g></g><g
           id="g7700"><g
             id="g7698"><path
               id="path7696"
               d="M 282.283,289.117 269.683,271.21 C 269.019,269.222 267.031,269.222 265.703,269.883 263.715,270.547 263.715,271.874 264.379,273.198 L 277.643,292.432 C 289.579,307.684 302.841,320.947 316.769,333.546 318.756,334.209 320.083,334.209 320.749,333.546 322.071,331.558 322.071,330.894 320.083,328.905 306.157,317.632 293.559,304.368 282.283,289.117 Z"
               inkscape:connector-curvature="0" /></g></g><g
           id="g7706"><g
             id="g7704"><path
               id="path7702"
               d="M 256.419,302.381 C 254.433,301.053 253.768,301.053 252.44,301.717 250.453,303.041 250.453,304.368 251.781,305.696 L 272.335,331.558 C 288.915,350.789 302.841,365.38 316.105,375.328 L 319.42,374.665 C 320.083,373.999 320.083,372.013 319.42,370.684 306.821,361.401 292.231,347.475 276.316,328.244 Z"
               inkscape:connector-curvature="0" /></g></g><g
           id="g7712"><g
             id="g7710"><path
               id="path7708"
               d="M 245.809,334.874 C 244.486,334.21 243.822,333.547 242.495,334.21 240.507,335.538 240.507,336.862 241.17,338.19 L 261.73,364.716 C 278.969,384.611 296.876,401.854 314.782,415.777 L 318.758,415.117 C 319.422,413.79 319.422,413.125 318.099,411.138 300.192,397.874 282.949,381.295 266.37,361.401 Z"
               inkscape:connector-curvature="0" /></g></g><g
           id="g7718"><g
             id="g7716"><path
               id="path7714"
               d="M 237.19,370.021 H 233.873 C 232.547,370.684 232.547,372.013 233.873,374 L 259.736,403.179 C 280.294,425.066 298.201,442.305 314.116,454.908 H 317.431 C 318.755,453.581 318.755,452.253 317.431,450.929 301.517,438.33 283.61,421.087 263.714,399.201 Z"
               inkscape:connector-curvature="0" /></g></g><g
           id="g7724"><g
             id="g7722"><path
               id="path7720"
               d="M 233.21,399.862 C 232.547,398.537 230.558,397.874 229.231,399.199 227.907,400.526 227.243,401.854 228.57,403.178 L 253.768,433.685 C 273.663,457.558 294.222,476.126 313.454,490.053 L 317.433,489.389 C 318.757,487.402 318.757,486.737 316.77,486.074 297.539,472.146 277.644,453.58 257.749,430.369 Z"
               inkscape:connector-curvature="0" /></g></g><g
           id="g7730"><g
             id="g7728"><path
               id="path7726"
               d="M 223.263,430.368 H 219.283 C 217.295,430.368 217.295,431.696 219.283,433.684 L 249.789,468.169 C 273.663,493.367 294.886,511.274 313.454,522.546 315.441,523.209 316.769,522.546 317.433,521.221 318.757,519.894 318.098,518.566 316.77,517.242 298.203,507.296 276.98,489.388 253.769,464.189 Z"
               inkscape:connector-curvature="0" /></g></g><g
           id="g7736"><g
             id="g7734"><path
               id="path7732"
               d="M 323.399,219.486 C 326.714,212.191 330.03,204.895 332.019,197.6 335.998,183.013 333.346,175.717 323.399,175.717 313.453,175.717 310.8,183.012 314.78,197.6 316.769,204.895 320.083,212.19 323.399,219.486 Z"
               inkscape:connector-curvature="0"
               style="fill:#ffe700" /></g></g><g
           id="g7742"><g
             id="g7740"><path
               id="path7738"
               d="M 334.011,178.369 C 332.02,175.053 328.703,173.065 323.4,173.065 318.756,173.065 314.781,175.053 312.789,178.369 309.474,183.013 310.138,191.632 313.454,202.907 316.105,209.539 318.098,216.171 320.75,220.811 321.413,221.475 322.072,222.139 323.4,222.139 L 326.052,220.811 333.347,202.907 C 336.662,191.631 337.326,183.012 334.011,178.369 Z M 316.769,181.685 C 318.097,179.697 320.083,178.369 323.4,178.369 326.715,178.369 328.704,179.697 330.031,181.685 330.696,182.349 330.696,184.336 330.696,186.989 330.696,192.96 328.704,201.58 323.4,213.515 318.756,201.579 316.105,192.96 316.105,186.989 Z"
               inkscape:connector-curvature="0" /></g></g><g
           id="g7748"><g
             id="g7746"><path
               id="path7744"
               d="M 223.926,473.474 C 223.263,472.146 221.938,472.146 220.611,473.474 219.283,474.137 219.283,476.126 220.611,476.789 L 249.126,504.643 C 272.336,525.862 293.56,541.778 314.117,553.052 315.441,554.379 316.769,553.716 317.432,552.388 318.756,550.4 318.097,549.073 316.769,548.409 296.874,537.137 275.651,521.221 252.441,500.663 Z"
               inkscape:connector-curvature="0" /></g></g><g
           id="g7754"><g
             id="g7752"><path
               id="path7750"
               d="M 210,500.001 206.02,499.337 C 204.695,500.664 204.695,501.327 206.02,503.316 L 239.177,533.822 C 265.703,555.705 290.242,572.283 314.116,582.894 316.104,583.558 316.768,583.558 318.096,581.566 318.755,580.243 318.096,578.915 316.768,578.251 293.558,567.644 269.019,551.726 242.494,529.842 Z"
               inkscape:connector-curvature="0" /></g></g><g
           id="g7760"><g
             id="g7758"><path
               id="path7756"
               d="M 199.388,525.198 C 198.064,523.874 196.736,523.874 195.413,525.198 194.084,526.526 194.084,527.853 195.413,529.178 L 217.294,549.073 C 234.537,563.664 249.788,574.275 263.052,582.23 264.379,582.894 265.703,582.23 266.368,580.907 267.031,579.578 267.031,578.915 265.703,577.591 253.103,570.295 237.853,559.021 220.61,545.094 Z"
               inkscape:connector-curvature="0" /></g></g><g
           id="g7766"><g
             id="g7764"><path
               id="path7762"
               d="M 349.927,220.146 C 348.599,219.486 347.275,220.146 346.611,221.474 342.632,232.749 334.674,244.021 323.4,255.959 322.072,256.62 322.072,257.947 323.4,259.275 324.064,260.599 326.052,260.599 326.715,259.275 339.315,247.336 347.275,235.4 351.914,223.462 351.914,221.474 351.914,220.81 349.927,220.146 Z"
               inkscape:connector-curvature="0" /></g></g><g
           id="g7772"><g
             id="g7770"><path
               id="path7768"
               d="M 365.178,241.368 C 363.853,240.704 362.526,241.368 361.863,242.696 349.927,264.579 337.327,281.822 325.388,293.757 323.4,294.422 323.4,295.748 324.728,297.737 326.052,298.4 326.715,298.4 328.704,297.737 341.968,285.137 354.57,267.894 366.506,245.348 367.833,243.356 367.169,242.696 365.178,241.368 Z"
               inkscape:connector-curvature="0" /></g></g><g
           id="g7778"><g
             id="g7776"><path
               id="path7774"
               d="M 381.096,269.883 C 379.769,269.222 378.44,269.222 377.781,271.21 L 364.518,289.117 C 353.243,304.368 340.643,317.632 326.715,328.906 325.388,330.894 325.388,331.558 326.052,333.547 326.715,334.21 328.703,334.21 330.031,333.547 343.959,320.947 357.222,307.685 368.494,292.433 L 381.757,273.199 C 383.084,271.874 382.421,271.21 381.096,269.883 Z"
               inkscape:connector-curvature="0" /></g></g><g
           id="g7784"><g
             id="g7782"><path
               id="path7780"
               d="M 394.359,301.717 391.043,302.381 370.484,328.243 C 354.569,347.474 339.978,361.4 327.379,370.683 326.715,372.012 326.715,373.998 327.379,374.664 L 330.695,375.327 C 343.958,365.38 358.546,350.789 374.465,331.557 L 395.02,305.695 C 396.348,304.368 396.348,303.041 394.359,301.717 Z"
               inkscape:connector-curvature="0" /></g></g><g
           id="g7790"><g
             id="g7788"><path
               id="path7786"
               d="M 404.967,334.21 400.989,334.874 381.096,361.4 C 364.518,381.295 346.611,397.874 328.703,411.137 327.379,413.124 327.379,413.789 328.703,415.116 L 332.019,415.776 C 349.926,401.853 367.832,384.61 385.072,364.715 L 404.967,338.189 C 406.295,336.862 406.295,335.538 404.967,334.21 Z"
               inkscape:connector-curvature="0" /></g></g><g
           id="g7796"><g
             id="g7794"><path
               id="path7792"
               d="M 412.926,370.021 H 408.947 C 381.757,403.843 355.231,430.369 329.368,450.927 328.045,452.251 328.045,453.579 329.368,454.906 H 332.684 C 348.599,442.303 366.505,425.064 387.065,403.177 L 412.926,373.998 C 414.254,372.013 414.254,370.684 412.926,370.021 Z"
               inkscape:connector-curvature="0" /></g></g><g
           id="g7802"><g
             id="g7800"><path
               id="path7798"
               d="M 417.569,399.199 C 416.242,397.874 414.914,398.537 413.59,399.862 L 389.052,430.368 C 369.157,453.579 349.927,472.145 330.031,486.073 328.704,486.736 328.704,487.401 329.368,489.388 L 333.347,490.052 C 352.578,476.125 373.137,457.557 393.031,433.684 L 418.231,403.177 C 418.895,401.854 418.895,400.526 417.569,399.199 Z"
               inkscape:connector-curvature="0" /></g></g><g
           id="g7808"><g
             id="g7806"><path
               id="path7804"
               d="M 427.517,430.368 H 424.202 L 393.031,464.189 C 369.822,489.388 348.599,507.295 330.031,517.242 328.704,518.566 328.704,519.894 329.368,521.221 330.031,522.546 331.359,523.209 333.347,522.546 351.914,511.275 373.137,493.367 397.011,468.169 L 428.178,433.684 C 429.505,431.696 429.505,430.368 427.517,430.368 Z"
               inkscape:connector-curvature="0" /></g></g><g
           id="g7814"><g
             id="g7812"><path
               id="path7810"
               d="M 426.189,473.474 C 424.861,472.146 423.537,472.146 422.873,473.474 L 394.359,500.664 C 371.809,521.222 349.926,537.138 330.03,548.41 328.703,549.736 328.703,551.064 329.367,552.389 330.03,553.717 331.358,553.717 332.683,553.053 353.242,541.779 375.124,525.863 397.673,504.644 L 426.189,476.79 C 428.178,476.126 428.178,474.137 426.189,473.474 Z"
               inkscape:connector-curvature="0" /></g></g><g
           id="g7820"><g
             id="g7818"><path
               id="path7816"
               d="M 440.78,499.337 437.464,500.001 404.967,529.842 C 378.44,551.726 353.242,567.644 330.03,578.251 328.703,578.915 328.044,580.243 328.703,581.566 330.03,583.558 330.695,583.558 332.683,582.894 356.557,572.283 381.755,555.705 408.282,533.822 421.546,522.547 432.157,512.598 440.78,503.316 441.441,501.327 441.441,500.664 440.78,499.337 Z"
               inkscape:connector-curvature="0" /></g></g><g
           id="g7826"><g
             id="g7824"><path
               id="path7822"
               d="M 451.388,525.198 C 450.728,523.874 449.401,523.874 447.411,525.198 423.537,548.41 401.651,565.652 381.756,577.591 379.769,578.915 379.769,579.578 380.433,580.907 381.756,582.23 382.421,582.894 384.412,582.23 404.967,570.294 427.516,552.388 451.388,529.178 452.717,527.854 452.717,526.526 451.388,525.198 Z"
               inkscape:connector-curvature="0" /></g></g><g
           id="g7832"><g
             id="g7830"><path
               id="path7828"
               d="M 91.295,199.59 C 75.379,173.064 60.789,155.157 46.201,145.211 31.609,155.158 17.019,173.065 1.103,199.59 -29.402,253.303 -47.305,321.611 -51.285,406.494 L -40.011,633.959 H 171.536 C 208.01,576.263 231.221,515.251 240.505,450.927 243.82,431.033 244.484,411.802 244.484,393.895 L 243.82,372.013 C 218.621,372.672 194.083,378.643 170.873,389.915 L 143.683,406.494 C 139.704,321.611 121.801,253.304 91.295,199.59 Z"
               inkscape:connector-curvature="0"
               style="fill:#858585" /></g></g><g
           id="g7838"><g
             id="g7836"><path
               id="path7834"
               d="M 47.525,142.559 C 46.861,141.895 45.537,141.895 44.21,142.559 27.631,153.17 12.379,173.064 -2.875,199.59 -33.378,252.644 -50.621,321.611 -54.6,406.494 L -43.326,633.959 C -43.326,636.612 -42.665,637.275 -40.011,637.275 H 171.536 C 172.86,637.275 173.524,636.612 174.188,635.947 210.662,578.915 233.872,517.242 243.82,452.915 246.47,432.355 247.799,413.125 247.799,393.894 L 246.47,371.348 C 246.47,370.02 245.807,368.696 243.156,368.696 221.936,369.355 201.378,373.999 180.82,381.295 167.555,387.263 156.281,393.231 146.999,400.526 141.694,317.631 124.452,250.651 93.945,198.263 79.359,172.4 64.104,153.17 47.525,142.559 Z M 46.201,149.854 C 63.44,163.117 80.019,184.336 94.611,212.854 121.8,264.579 137.05,328.906 140.367,406.494 140.367,407.821 141.031,408.485 142.359,409.809 L 145.673,409.146 172.2,393.23 C 194.083,381.959 216.63,376.651 240.505,375.328 L 241.168,396.547 C 241.168,427.053 237.189,458.223 229.23,491.38 217.293,540.453 197.399,586.874 169.545,630.644 H -36.693 L -47.968,406.495 C -44.652,328.907 -29.401,264.579 -2.21,212.855 13.043,184.336 28.959,163.117 46.201,149.854 Z"
               inkscape:connector-curvature="0" /></g></g><g
           id="g7844"><g
             id="g7842"><path
               id="path7840"
               d="M 46.201,175.053 C 50.178,168.422 52.833,160.462 54.82,153.17 58.8,138.579 55.484,131.947 46.201,131.947 36.914,131.947 34.263,138.579 37.578,153.17 39.57,160.462 42.221,168.421 46.201,175.053 Z"
               inkscape:connector-curvature="0"
               style="fill:#ffe700" /></g></g><g
           id="g7850"><g
             id="g7848"><path
               id="path7846"
               d="M 46.201,128.631 C 40.894,128.631 37.578,130.619 35.59,133.936 30.946,141.895 33.599,156.486 44.21,176.38 44.21,177.704 45.537,178.369 46.201,178.369 47.525,178.369 48.189,177.704 48.853,176.38 58.8,156.486 61.453,141.895 56.808,133.936 54.82,130.62 50.842,128.631 46.201,128.631 Z M 52.169,136.591 54.157,143.222 C 54.157,149.19 50.842,157.809 46.201,169.084 40.894,157.809 38.905,149.19 38.905,143.222 L 40.23,136.591 C 40.894,135.263 43.545,133.936 46.201,133.936 48.854,133.936 50.842,135.263 52.169,136.591 Z"
               inkscape:connector-curvature="0" /></g></g><g
           id="g7856"><g
             id="g7854"><path
               id="path7852"
               d="M 46.201,173.064 C 44.21,173.064 43.546,173.724 43.546,175.052 37.578,264.578 35.59,364.052 35.59,474.8 V 557.695 L -2.211,529.178 H -5.527 L -6.191,531.168 -7.515,548.409 -6.851,550.399 44.211,591.512 45.538,592.176 H 46.862 L 48.19,591.512 C 103.231,555.039 149.652,512.597 187.453,462.861 206.02,438.327 219.283,417.104 227.243,399.198 227.907,397.21 227.243,396.546 226.579,395.882 224.591,394.558 223.927,395.221 223.264,396.546 208.012,415.116 190.105,436.335 169.547,458.222 127.105,503.979 89.968,537.137 56.15,558.357 L 57.474,474.8 C 57.474,364.052 54.159,264.578 48.855,175.052 48.854,173.725 47.525,173.064 46.201,173.064 Z M 52.169,565.652 H 54.82 C 81.347,549.073 110.525,524.538 143.019,493.368 164.906,470.821 187.452,447.61 208.674,421.749 194.083,446.947 175.515,470.821 153.63,494.696 122.463,529.178 86.651,559.02 46.86,586.21 32.273,575.6 15.694,563.001 -2.212,547.085 L -1.549,536.474 C 14.366,549.074 27.63,559.021 37.577,565.653 H 40.229 L 41.556,563.665 40.893,474.802 C 40.893,396.548 42.219,314.317 46.2,227.443 50.177,314.317 52.168,396.548 52.168,474.802 L 50.841,563.665 Z"
               inkscape:connector-curvature="0" /></g></g><g
           id="g7862"><g
             id="g7860"><path
               id="path7858"
               d="M 22.99,169.749 C 22.327,168.422 21,168.422 19.675,168.422 17.684,169.085 17.02,170.41 17.684,171.738 L 23.651,183.013 C 28.96,191.632 34.926,199.591 42.221,207.548 44.21,208.212 45.537,208.212 46.862,207.548 47.526,206.224 47.526,204.896 46.862,203.569 38.906,196.277 32.938,188.982 27.632,180.358 Z"
               inkscape:connector-curvature="0" /></g></g><g
           id="g7868"><g
             id="g7866"><path
               id="path7864"
               d="M 7.736,190.968 C 7.072,189.644 5.748,189.644 4.42,189.644 2.433,190.968 1.768,191.632 3.096,193.621 L 15.032,212.855 C 24.315,227.442 32.275,238.054 40.895,246.013 42.221,246.674 43.546,246.674 44.874,246.013 45.538,244.685 45.538,242.697 44.211,241.369 36.915,234.738 28.296,223.463 19.013,209.539 Z"
               inkscape:connector-curvature="0" /></g></g><g
           id="g7874"><g
             id="g7872"><path
               id="path7870"
               d="M 43.546,277.842 C 28.959,265.906 16.359,252.643 5.084,238.052 L -7.516,219.485 C -8.844,217.493 -9.507,216.829 -11.495,218.157 -12.823,218.821 -13.484,220.145 -12.823,221.472 L 1.103,240.703 C 12.378,255.957 25.642,269.221 39.57,281.82 L 43.546,281.156 C 44.21,279.83 44.21,278.506 43.546,277.842 Z"
               inkscape:connector-curvature="0" /></g></g><g
           id="g7880"><g
             id="g7878"><path
               id="path7876"
               d="M 42.221,322.936 C 43.546,321.612 43.546,320.948 42.221,318.959 29.623,309.672 15.032,295.085 -0.883,276.514 L -20.779,251.316 -24.758,249.988 C -26.086,251.316 -26.086,252.643 -25.422,253.967 L -4.863,279.829 C 11.053,299.063 25.643,313.651 38.906,323.599 39.57,324.263 40.895,324.263 42.221,322.936 Z"
               inkscape:connector-curvature="0" /></g></g><g
           id="g7886"><g
             id="g7884"><path
               id="path7882"
               d="M 40.895,364.053 C 42.221,362.065 42.221,360.738 40.895,360.074 22.99,346.81 5.748,329.567 -10.831,309.672 L -31.39,283.146 C -32.717,282.485 -33.378,281.822 -34.705,282.485 -36.693,284.474 -36.693,285.801 -36.033,286.461 L -15.474,312.988 C 1.104,333.547 19.675,350.126 37.579,364.052 H 40.895 Z"
               inkscape:connector-curvature="0" /></g></g><g
           id="g7892"><g
             id="g7890"><path
               id="path7888"
               d="M 40.895,403.178 C 41.558,401.19 41.558,400.527 40.231,399.863 14.368,379.304 -12.158,352.118 -39.349,318.297 L -43.325,317.633 C -44.652,318.96 -44.652,320.948 -43.325,321.612 -15.474,355.434 11.053,383.284 36.914,403.843 Z"
               inkscape:connector-curvature="0" /></g></g><g
           id="g7898"><g
             id="g7896"><path
               id="path7894"
               d="M 40.23,437.664 C 40.894,436.336 40.894,435.012 39.57,433.685 20.336,420.421 1.103,401.855 -19.453,378.643 L -44.652,348.138 C -45.316,346.81 -45.98,346.81 -47.968,347.475 -49.295,348.802 -49.295,350.126 -48.632,350.79 L -23.43,381.96 C -2.874,405.83 17.02,424.401 36.915,438.328 Z"
               inkscape:connector-curvature="0" /></g></g><g
           id="g7904"><g
             id="g7902"><path
               id="path7900"
               d="M 40.23,470.158 C 40.894,468.17 40.894,466.842 38.905,466.178 21,454.906 1.104,437.664 -20.115,413.79 L -47.969,380.631 C -48.633,378.643 -50.621,378.643 -51.284,379.968 -52.611,381.295 -52.611,382.62 -51.948,383.947 L -24.094,417.769 C -2.211,441.644 17.683,459.546 36.914,470.159 37.578,471.485 38.905,471.485 40.23,470.158 Z"
               inkscape:connector-curvature="0" /></g></g><g
           id="g7910"><g
             id="g7908"><path
               id="path7906"
               d="M 73.389,168.421 C 71.401,168.421 70.073,168.421 70.073,169.748 65.432,181.019 57.473,192.294 45.538,203.567 44.874,204.895 44.874,206.222 45.538,207.546 47.526,208.874 48.854,208.874 49.518,207.546 62.117,195.61 70.737,183.671 74.716,171.736 75.379,170.41 74.716,169.084 73.389,168.421 Z"
               inkscape:connector-curvature="0" /></g></g><g
           id="g7916"><g
             id="g7914"><path
               id="path7912"
               d="M 88.643,189.644 C 86.652,188.98 85.327,189.644 84.664,190.968 72.064,212.854 60.126,230.093 47.526,241.368 46.862,242.696 46.862,244.021 47.526,246.012 48.854,246.673 50.178,246.673 50.842,246.012 64.105,233.409 77.367,216.17 89.307,193.62 90.631,191.631 89.967,190.304 88.643,189.644 Z"
               inkscape:connector-curvature="0" /></g></g><g
           id="g7922"><g
             id="g7920"><path
               id="path7918"
               d="M 103.894,218.158 C 101.907,217.494 100.579,218.158 99.915,219.486 88.644,238.716 71.401,257.947 48.854,277.842 47.526,278.506 47.526,279.83 48.854,281.158 L 52.169,281.822 C 75.379,261.927 93.283,242.032 104.558,221.474 105.221,220.146 105.221,218.822 103.894,218.158 Z"
               inkscape:connector-curvature="0" /></g></g><g
           id="g7928"><g
             id="g7926"><path
               id="path7924"
               d="M 117.157,249.988 C 115.169,249.327 114.505,249.327 113.842,251.316 L 93.283,276.514 C 77.367,295.085 63.44,309.672 50.842,318.959 48.854,320.284 48.854,321.611 50.178,322.936 50.842,324.263 52.169,324.263 54.157,323.6 66.756,313.653 80.683,299.065 97.261,279.83 L 117.821,253.968 C 118.484,252.644 118.484,251.316 117.157,249.988 Z"
               inkscape:connector-curvature="0" /></g></g><g
           id="g7934"><g
             id="g7932"><path
               id="path7930"
               d="M 127.104,282.485 123.79,283.146 C 103.894,312.327 80.685,338.19 51.507,360.074 50.179,360.737 50.179,362.064 50.843,364.053 H 54.822 C 73.39,350.126 90.633,333.547 107.211,312.989 L 128.434,286.462 C 129.096,285.138 128.432,283.81 127.104,282.485 Z"
               inkscape:connector-curvature="0" /></g></g><g
           id="g7940"><g
             id="g7938"><path
               id="path7936"
               d="M 135.064,317.632 131.748,318.296 C 103.894,352.117 77.367,379.304 52.169,399.862 50.842,400.526 50.842,401.189 52.169,403.177 L 55.484,403.842 C 80.683,383.282 107.209,355.433 135.727,321.611 137.051,320.284 137.051,318.959 135.064,317.632 Z"
               inkscape:connector-curvature="0" /></g></g><g
           id="g7946"><g
             id="g7944"><path
               id="path7942"
               d="M 140.367,347.475 136.388,348.138 111.853,378.643 C 91.958,401.855 72.063,420.421 52.168,433.685 50.841,435.012 50.841,436.336 52.168,437.664 L 55.483,438.328 C 75.378,424.401 95.272,405.83 115.831,381.96 L 141.03,350.79 C 141.695,350.126 141.695,348.802 140.367,347.475 Z"
               inkscape:connector-curvature="0" /></g></g><g
           id="g7952"><g
             id="g7950"><path
               id="path7948"
               d="M 143.684,379.968 C 141.696,378.643 141.032,378.643 140.368,380.631 L 113.179,413.79 C 91.296,437.664 70.738,454.906 52.834,466.178 50.843,466.842 50.843,468.17 52.17,470.158 53.494,471.485 54.158,471.485 55.485,470.158 74.052,459.546 94.612,441.643 116.495,417.768 L 144.349,383.946 C 145.011,382.62 145.011,381.295 143.684,379.968 Z"
               inkscape:connector-curvature="0" /></g></g><g
           id="g7958"><g
             id="g7956"><path
               id="path7954"
               d="M 224.59,397.874 243.821,384.611 C 255.756,374.665 257.084,367.369 249.125,361.4 241.169,356.756 234.537,360.737 229.895,375.328 227.242,381.96 225.914,389.915 224.59,397.874 Z"
               inkscape:connector-curvature="0"
               style="fill:#ffe700" /></g></g><g
           id="g7964"><g
             id="g7962"><path
               id="path7960"
               d="M 250.453,359.408 C 246.472,356.757 242.494,356.094 238.516,357.422 233.209,360.074 229.23,367.369 225.913,378.643 223.925,384.612 223.262,391.243 222.598,397.874 L 223.925,400.526 H 226.577 L 242.493,389.915 C 251.115,381.96 256.418,375.328 256.418,370.02 257.084,365.381 254.433,362.064 250.453,359.408 Z M 240.506,362.725 247.138,364.053 C 249.788,365.381 251.117,367.369 251.117,369.356 V 370.021 C 251.117,375.988 243.822,383.947 227.907,393.231 231.222,375.328 235.201,365.381 240.506,362.725 Z"
               inkscape:connector-curvature="0" /></g></g><g
           id="g7970"><g
             id="g7968"><path
               id="path7966"
               d="M 197.399,377.315 C 196.072,376.651 194.747,377.315 194.747,379.303 L 192.756,394.558 189.441,437.663 C 189.441,439.65 190.104,440.313 191.432,440.313 193.42,440.313 194.084,439.65 194.084,437.663 L 197.399,395.221 200.05,380.63 C 200.051,378.643 199.388,377.315 197.399,377.315 Z"
               inkscape:connector-curvature="0" /></g></g><g
           id="g7976"><g
             id="g7974"><path
               id="path7972"
               d="M 168.221,388.59 C 166.895,388.59 166.231,389.252 165.57,390.578 L 164.243,415.117 163.579,466.178 C 163.579,467.506 164.243,468.83 166.231,468.83 167.557,468.83 168.221,467.506 168.221,466.178 L 170.209,415.117 170.874,391.242 170.209,389.915 Z"
               inkscape:connector-curvature="0" /></g></g><g
           id="g7982"><g
             id="g7980"><path
               id="path7978"
               d="M 139.704,490.053 C 139.704,488.065 141.031,487.402 142.359,487.402 144.347,487.402 145.01,488.065 145.01,490.053 L 146.335,406.494 C 146.335,404.506 145.01,403.843 143.683,403.843 141.695,403.843 141.031,404.506 141.031,406.494 Z"
               inkscape:connector-curvature="0" /></g></g><g
           id="g7988"><g
             id="g7986"><path
               id="path7984"
               d="M 121.137,405.83 C 119.809,405.83 118.485,407.158 118.485,408.485 L 117.822,440.314 C 117.158,465.514 117.158,489.388 118.485,510.61 118.485,512.598 119.149,513.925 120.473,513.925 122.464,513.262 123.789,512.598 123.789,510.61 123.125,489.388 123.125,465.514 123.125,440.314 L 123.789,408.485 C 123.789,407.158 123.125,405.83 121.137,405.83 Z"
               inkscape:connector-curvature="0" /></g></g><g
           id="g7994"><g
             id="g7992"><path
               id="path7990"
               d="M 99.914,429.041 C 97.926,429.041 97.262,430.368 97.262,431.696 L 96.598,466.177 C 95.938,492.041 96.598,512.598 97.262,529.178 97.262,530.505 98.59,531.168 100.578,531.168 101.906,531.168 103.23,530.505 103.23,529.178 101.906,512.598 101.242,492.041 101.906,466.177 V 431.696 C 101.906,430.368 101.242,429.705 99.914,429.041 Z"
               inkscape:connector-curvature="0" /></g></g><g
           id="g8000"><g
             id="g7998"><path
               id="path7996"
               d="M 75.379,450.927 C 74.052,450.927 72.728,451.59 72.728,453.579 V 486.736 L 74.716,547.085 77.367,549.736 C 78.695,549.736 80.019,549.073 80.019,547.085 L 78.031,486.736 V 453.579 C 78.031,451.59 77.367,450.927 75.379,450.927 Z"
               inkscape:connector-curvature="0" /></g></g><g
           id="g8006"><g
             id="g8004"><path
               id="path8002"
               d="M 194.747,444.959 C 196.072,446.947 197.399,447.61 198.727,446.947 L 243.821,428.381 C 242.494,429.041 241.169,428.381 240.506,427.053 240.506,425.726 240.506,424.402 241.169,424.402 L 196.735,441.644 C 194.747,442.304 194.747,443.631 194.747,444.959 Z"
               inkscape:connector-curvature="0" /></g></g><g
           id="g8012"><g
             id="g8010"><path
               id="path8008"
               d="M 174.853,477.454 203.368,468.83 C 221.938,462.862 234.538,458.223 241.17,454.906 243.158,454.242 243.822,453.579 242.495,451.59 242.495,450.263 240.507,449.599 239.178,450.263 L 200.717,463.527 173.527,472.811 C 171.539,472.811 170.876,474.137 171.539,476.126 172.201,477.454 173.525,478.117 174.853,477.454 Z"
               inkscape:connector-curvature="0" /></g></g><g
           id="g8018"><g
             id="g8016"><path
               id="path8014"
               d="M 150.979,503.979 183.473,498.671 C 206.02,494.031 223.263,490.052 235.863,484.748 237.191,484.748 237.854,483.42 237.191,481.432 236.526,480.105 235.863,480.105 233.874,480.105 221.275,484.749 204.032,489.388 181.485,493.368 L 150.979,499.337 C 148.328,499.337 147.664,500.664 148.328,501.988 148.327,503.979 149.651,504.644 150.979,503.979 Z"
               inkscape:connector-curvature="0" /></g></g><g
           id="g8024"><g
             id="g8022"><path
               id="path8020"
               d="M 125.117,525.862 C 125.117,527.189 125.779,527.853 127.103,527.853 166.894,526.526 200.05,522.546 227.242,515.25 229.23,514.591 229.894,513.925 229.894,511.935 229.23,510.61 227.906,509.283 226.578,509.947 198.727,517.242 166.23,521.221 127.103,522.547 125.117,522.547 125.117,523.874 125.117,525.862 Z"
               inkscape:connector-curvature="0" /></g></g><g
           id="g8030"><g
             id="g8028"><path
               id="path8026"
               d="M 97.262,549.736 C 97.262,551.064 98.59,552.388 99.914,552.388 L 218.622,542.441 C 220.61,541.778 220.61,540.453 220.61,539.126 220.61,537.138 219.947,536.474 217.294,537.138 L 99.914,547.085 C 98.59,547.085 97.262,547.748 97.262,549.736 Z"
               inkscape:connector-curvature="0" /></g></g><g
           id="g8036"><g
             id="g8034"><path
               id="path8032"
               d="M 210.663,563.664 C 210.663,561.673 210,561.013 208.011,561.013 L 120.473,570.295 67.42,572.283 C 65.432,572.283 64.768,573.611 64.768,574.934 65.432,576.926 66.096,577.59 67.42,577.59 L 121.137,575.599 209.335,566.979 C 210.663,566.316 211.326,564.987 210.663,563.664 Z"
               inkscape:connector-curvature="0" /></g></g></g></g><rect
       ry="30"
       rx="30"
       y="1"
       x="1"
       height="585"
       width="370"
       id="rect12023-5-0"
       style="color:#000000;clip-rule:nonzero;display:inline;overflow:visible;visibility:visible;opacity:1;isolation:auto;mix-blend-mode:normal;color-interpolation:sRGB;color-interpolation-filters:linearRGB;solid-color:#000000;solid-opacity:1;vector-effect:none;fill:none;fill-opacity:1;fill-rule:nonzero;stroke:#000000;stroke-width:10;stroke-linecap:butt;stroke-linejoin:miter;stroke-miterlimit:4;stroke-dasharray:none;stroke-dashoffset:0;stroke-opacity:1;color-rendering:auto;image-rendering:auto;shape-rendering:auto;text-rendering:auto;enable-background:accumulate" /><rect
       ry="30"
       rx="30"
       y="1"
       x="1"
       height="585"
       width="370"
       id="rect12023-5-3"
       style="color:#000000;clip-rule:nonzero;display:inline;overflow:visible;visibility:visible;opacity:1;isolation:auto;mix-blend-mode:normal;color-interpolation:sRGB;color-interpolation-filters:linearRGB;solid-color:#000000;solid-opacity:1;vector-effect:none;fill:#d2f3f4;fill-opacity:0;fill-rule:nonzero;stroke:none;stroke-width:1.50000012;stroke-linecap:butt;stroke-linejoin:miter;stroke-miterlimit:4;stroke-dasharray:none;stroke-dashoffset:0;stroke-opacity:1;color-rendering:auto;image-rendering:auto;shape-rendering:auto;text-rendering:auto;enable-background:accumulate" /></g></svg>