<?xml version="1.0" encoding="UTF-8" standalone="no"?>
<!-- Generator: Adobe Illustrator 13.0.0, SVG Export Plug-In . SVG Version: 6.00 Build 14948)  -->

<svg
   xmlns:dc="http://purl.org/dc/elements/1.1/"
   xmlns:cc="http://creativecommons.org/ns#"
   xmlns:rdf="http://www.w3.org/1999/02/22-rdf-syntax-ns#"
   xmlns:svg="http://www.w3.org/2000/svg"
   xmlns="http://www.w3.org/2000/svg"
   xmlns:sodipodi="http://sodipodi.sourceforge.net/DTD/sodipodi-0.dtd"
   xmlns:inkscape="http://www.inkscape.org/namespaces/inkscape"
   version="1.1"
   id="圖層_1"
   x="0px"
   y="0px"
   width="372px"
   height="587px"
   viewBox="0 0 372 587"
   enable-background="new 0 0 372 587"
   xml:space="preserve"
   sodipodi:docname="Hanafuda_1-1.svg"
   inkscape:version="0.92.2 5c3e80d, 2017-08-06"><metadata
     id="metadata4304"><rdf:RDF><cc:Work
         rdf:about=""><dc:format>image/svg+xml</dc:format><dc:type
           rdf:resource="http://purl.org/dc/dcmitype/StillImage" /></cc:Work></rdf:RDF></metadata><defs
     id="defs4302"><clipPath
       clipPathUnits="userSpaceOnUse"
       id="clipPath1065"><rect
         style="color:#000000;clip-rule:nonzero;display:inline;overflow:visible;visibility:visible;opacity:1;isolation:auto;mix-blend-mode:normal;color-interpolation:sRGB;color-interpolation-filters:linearRGB;solid-color:#000000;solid-opacity:1;vector-effect:none;fill:none;fill-opacity:1;fill-rule:nonzero;stroke:#ffff00;stroke-width:10;stroke-linecap:butt;stroke-linejoin:miter;stroke-miterlimit:4;stroke-dasharray:none;stroke-dashoffset:0;stroke-opacity:1;color-rendering:auto;image-rendering:auto;shape-rendering:auto;text-rendering:auto;enable-background:accumulate"
         id="rect1067"
         width="370"
         height="585"
         x="1"
         y="1"
         rx="30"
         ry="30" /></clipPath></defs><sodipodi:namedview
     pagecolor="#ffffff"
     bordercolor="#666666"
     borderopacity="1"
     objecttolerance="10"
     gridtolerance="10"
     guidetolerance="10"
     inkscape:pageopacity="0"
     inkscape:pageshadow="2"
     inkscape:window-width="1280"
     inkscape:window-height="751"
     id="namedview4300"
     showgrid="false"
     inkscape:zoom="0.80408859"
     inkscape:cx="243.20763"
     inkscape:cy="247.48517"
     inkscape:window-x="0"
     inkscape:window-y="1"
     inkscape:window-maximized="1"
     inkscape:current-layer="圖層_1" /><g
     id="g1189"><rect
       ry="30"
       rx="30"
       y="1"
       x="1"
       height="585"
       width="370"
       id="rect12023-5"
       style="color:#000000;clip-rule:nonzero;display:inline;overflow:visible;visibility:visible;opacity:1;isolation:auto;mix-blend-mode:normal;color-interpolation:sRGB;color-interpolation-filters:linearRGB;solid-color:#000000;solid-opacity:1;vector-effect:none;fill:#f4e9d2;fill-opacity:1;fill-rule:nonzero;stroke:none;stroke-width:1.50000012;stroke-linecap:butt;stroke-linejoin:miter;stroke-miterlimit:4;stroke-dasharray:none;stroke-dashoffset:0;stroke-opacity:1;color-rendering:auto;image-rendering:auto;shape-rendering:auto;text-rendering:auto;enable-background:accumulate" /><g
       clip-path="url(#clipPath1065)"
       id="g4296"><g
         id="g4066"><path
           id="path4064"
           d="M 150.419,624.701 C 171.653,548.011 175.196,482.533 162.216,427.077 158.679,409.967 152.78,394.631 145.7,382.244 L 136.851,368.085 C 120.922,372.803 103.812,385.783 84.346,406.431 45.412,447.136 15.326,506.128 -5.32,582.225 Z"
           inkscape:connector-curvature="0"
           style="fill:#858585" /></g><g
         id="g4070"><path
           id="path4068"
           d="M 138.621,365.723 C 138.033,365.135 136.851,364.549 135.671,365.135 119.153,371.033 100.275,384.013 81.397,404.662 42.464,445.955 12.378,504.947 -8.27,581.637 -8.861,583.407 -7.679,584.589 -6.499,585.174 -4.144,585.768 -3.549,585.174 -2.371,583.405 17.098,512.615 43.644,457.16 79.039,417.048 98.505,394.044 117.971,378.702 135.669,371.033 142.156,379.884 148.054,391.681 153.366,406.429 162.215,432.387 166.345,461.883 166.345,495.503 166.345,534.441 160.446,577.505 147.467,623.517 V 624.699 C 147.467,625.88 148.648,627.06 149.829,627.649 151.597,628.237 153.366,627.06 153.366,625.879 174.013,548.598 178.144,483.117 165.752,427.664 162.214,410.559 156.315,394.63 149.236,381.649 145.7,373.984 142.158,368.672 138.621,365.723 Z"
           inkscape:connector-curvature="0" /></g><g
         id="g4074"><path
           id="path4072"
           d="M 129.771,391.682 141.57,376.347 C 147.469,365.723 146.882,359.237 139.8,356.873 132.133,355.104 128.002,360.417 128.002,372.803 128.002,379.295 128.59,385.783 129.771,391.682 Z"
           inkscape:connector-curvature="0"
           style="fill:#ffe700" /></g><g
         id="g4078"><path
           id="path4076"
           d="M 147.469,361.598 C 146.881,358.649 144.519,356.285 139.8,355.105 136.258,353.923 132.72,354.517 129.771,356.874 125.052,362.187 123.872,373.985 128.002,392.27 L 129.771,394.631 132.133,393.45 C 144.519,379.884 149.832,368.672 147.469,361.598 Z M 133.309,360.417 138.621,359.236 142.752,362.773 143.34,364.547 C 143.34,369.265 139.801,376.933 131.541,386.367 L 130.359,373.395 C 130.358,366.317 130.952,362.186 133.309,360.417 Z"
           inkscape:connector-curvature="0" /></g><g
         id="g4082"><path
           id="path4080"
           d="M 130.952,389.319 C 129.183,389.319 128.002,389.319 128.002,391.092 105.586,457.159 82.577,531.492 60.161,615.849 59.57,617.619 60.161,618.211 61.342,618.798 L 64.292,617.03 C 79.627,562.168 97.325,501.996 117.972,437.104 104.406,495.501 89.657,555.675 73.141,618.21 V 618.797 C 73.141,619.979 73.728,621.159 74.909,621.159 76.678,621.159 77.267,621.159 77.858,619.387 100.274,535.622 118.559,460.109 132.72,392.268 132.72,391.094 132.133,389.913 130.952,389.319 Z"
           inkscape:connector-curvature="0" /></g><g
         id="g4086"><path
           id="path4084"
           d="M 110.306,380.471 C 108.536,380.471 107.944,381.652 107.944,382.833 L 110.306,393.45 C 112.075,401.119 115.611,409.381 120.336,416.461 120.923,418.23 122.104,418.23 123.285,417.641 125.054,416.461 125.054,415.868 123.873,414.691 120.336,407.018 116.793,399.943 115.024,392.27 L 112.662,382.833 C 112.662,381.064 112.074,380.471 110.306,380.471 Z"
           inkscape:connector-curvature="0" /></g><g
         id="g4090"><path
           id="path4088"
           d="M 93.788,394.631 C 92.014,394.631 91.426,395.221 91.426,396.993 92.607,401.119 94.376,407.018 97.325,415.28 101.456,428.258 105.586,438.875 110.305,446.545 L 113.842,447.136 C 115.023,447.136 115.61,445.364 115.023,444.187 110.305,436.513 105.586,426.49 101.456,413.51 L 96.144,395.813 C 95.557,394.631 94.964,394.044 93.788,394.631 Z"
           inkscape:connector-curvature="0" /></g><g
         id="g4094"><path
           id="path4092"
           d="M 75.497,412.916 C 73.729,413.51 73.142,414.69 73.729,415.867 L 79.628,434.158 C 85.527,448.312 93.195,461.887 101.457,474.859 L 105.588,475.452 C 106.175,474.859 106.763,473.682 106.175,471.909 97.326,460.111 90.246,446.545 84.347,432.389 L 77.859,415.279 C 77.859,413.51 76.679,412.916 75.497,412.916 Z"
           inkscape:connector-curvature="0" /></g><g
         id="g4098"><path
           id="path4096"
           d="M 57.8,435.925 C 56.032,435.925 56.032,437.107 56.032,438.875 L 67.242,464.834 C 75.498,482.532 84.347,497.279 92.014,507.897 H 95.556 C 96.737,507.303 96.737,506.127 95.556,504.947 87.889,494.331 79.627,480.756 70.778,461.884 L 60.75,437.106 C 60.162,435.925 58.982,435.338 57.8,435.925 Z"
           inkscape:connector-curvature="0" /></g><g
         id="g4102"><path
           id="path4100"
           d="M 51.901,487.837 C 60.75,507.303 70.779,525.001 82.577,539.749 L 85.527,540.343 C 86.708,539.162 86.708,537.982 86.118,536.799 74.91,522.051 64.881,504.947 56.032,485.482 L 45.414,460.705 C 45.414,459.522 43.645,458.935 42.464,459.522 40.696,460.112 40.696,460.705 40.696,462.473 Z"
           inkscape:connector-curvature="0" /></g><g
         id="g4106"><path
           id="path4104"
           d="M 73.729,570.427 76.679,571.019 C 77.86,570.427 78.447,569.839 77.27,568.069 67.83,554.497 57.213,536.798 46.003,515.564 L 31.849,486.656 C 30.668,485.481 30.078,484.887 28.307,485.481 27.129,486.069 25.952,487.25 27.129,488.432 L 41.287,517.927 C 53.082,539.749 63.699,557.447 73.729,570.427 Z"
           inkscape:connector-curvature="0" /></g><g
         id="g4110"><path
           id="path4108"
           d="M 66.062,598.154 69.012,598.742 C 70.78,598.154 70.78,596.387 69.6,595.206 57.213,580.456 45.414,561.578 34.798,539.163 L 21.228,509.078 C 21.228,507.897 20.048,507.304 18.277,507.897 17.098,508.486 16.506,509.667 17.098,510.847 L 30.075,540.931 C 41.284,563.939 53.082,583.405 66.062,598.154 Z"
           inkscape:connector-curvature="0" /></g><g
         id="g4114"><path
           id="path4112"
           d="M 149.832,392.27 C 143.932,400.531 135.083,407.612 123.873,414.1 122.104,415.281 122.104,415.868 122.692,417.641 123.873,418.816 124.462,418.816 126.234,418.23 138.033,411.742 147.469,403.481 153.368,395.221 154.548,394.046 154.548,392.864 152.78,392.27 Z"
           inkscape:connector-curvature="0" /></g><g
         id="g4118"><path
           id="path4116"
           d="M 156.905,412.329 C 142.751,427.077 129.771,438.287 116.791,444.774 115.022,445.363 115.022,446.545 116.204,448.311 116.204,449.493 117.972,450.086 119.153,448.904 132.133,442.411 145.7,430.613 160.448,415.866 161.629,414.69 161.629,412.915 160.448,412.329 Z"
           inkscape:connector-curvature="0" /></g><g
         id="g4122"><path
           id="path4120"
           d="M 163.397,438.287 C 149.831,451.26 132.133,463.059 110.305,473.682 109.124,474.271 108.535,474.858 109.124,476.632 110.305,477.808 110.892,478.401 112.074,477.808 135.083,466.602 152.781,454.803 166.347,441.236 168.116,440.644 168.116,439.464 166.347,438.287 Z"
           inkscape:connector-curvature="0" /></g><g
         id="g4126"><path
           id="path4124"
           d="M 166.935,466.01 C 143.339,485.482 122.103,498.454 102.637,506.716 100.863,507.303 100.275,508.486 101.456,510.252 102.043,511.435 103.225,512.026 104.406,510.846 123.872,503.178 145.701,489.605 169.885,469.551 171.065,468.958 171.065,467.781 170.478,466.601 169.296,465.421 168.116,464.834 166.935,466.01 Z"
           inkscape:connector-curvature="0" /></g><g
         id="g4130"><path
           id="path4128"
           d="M 168.116,494.33 146.881,510.252 C 129.183,522.646 112.074,532.674 94.376,539.162 92.607,539.749 92.607,540.931 93.194,542.698 94.376,543.88 94.964,543.88 96.145,543.291 113.256,536.798 130.952,526.775 149.238,514.383 L 171.066,497.865 C 172.247,497.278 172.247,495.504 171.066,494.33 170.478,493.149 169.296,493.149 168.116,494.33 Z"
           inkscape:connector-curvature="0" /></g><g
         id="g4134"><path
           id="path4132"
           d="M 166.935,523.826 C 138.032,543.88 110.893,559.808 86.707,570.427 84.938,571.019 84.346,572.195 85.526,573.376 86.117,575.145 86.707,575.737 88.477,575.145 113.255,563.941 139.801,548.6 169.297,527.364 171.066,526.777 171.066,525.596 170.478,523.828 169.296,522.646 168.116,522.646 166.935,523.826 Z"
           inkscape:connector-curvature="0" /></g><g
         id="g4138"><path
           id="path4136"
           d="M 164.579,548.599 138.62,567.476 C 117.386,581.635 97.325,591.073 79.627,598.154 77.858,598.154 77.267,599.334 78.445,601.104 78.445,602.284 79.627,602.873 81.396,602.284 99.687,595.791 119.74,585.174 140.981,571.019 L 167.527,551.547 C 168.702,550.959 168.702,549.778 167.527,548.598 Z"
           inkscape:connector-curvature="0" /></g><g
         id="g4142"><path
           id="path4140"
           d="M 323.857,250.102 C 314.416,233.585 304.383,218.837 293.179,207.626 L 279.612,195.24 C 265.452,204.677 250.705,223.555 235.956,250.102 207.047,304.375 192.3,373.984 192.3,460.11 L 145.7,457.753 V 496.686 C 147.469,529.726 154.548,565.709 167.528,602.873 H 366.921 V 460.11 C 366.92,373.984 352.76,304.375 323.857,250.102 Z"
           inkscape:connector-curvature="0"
           style="fill:#858585" /></g><g
         id="g4146"><path
           id="path4144"
           d="M 327.394,250.102 C 317.958,232.991 307.927,218.837 296.718,207.038 L 281.381,192.879 C 280.201,192.29 279.021,192.29 277.838,192.879 262.504,204.088 247.167,222.373 233.007,249.514 204.098,302.607 189.35,371.623 189.35,456.574 L 171.065,454.214 145.7,454.805 C 144.518,454.805 143.338,455.987 142.75,457.162 V 497.867 C 144.518,530.901 152.187,566.296 165.166,604.055 165.166,605.235 166.347,606.416 167.527,606.416 H 366.92 L 369.274,605.234 370.456,602.873 V 460.11 C 370.457,373.984 355.709,303.782 327.394,250.102 Z M 233.007,262.487 C 247.165,233.585 262.502,212.937 279.612,198.777 296.717,212.937 312.644,233.584 326.213,262.487 351.578,314.992 363.97,380.471 363.97,460.111 V 599.923 H 169.884 C 155.135,556.273 147.468,516.153 147.468,479.581 147.468,473.089 148.055,466.602 148.648,460.11 L 191.712,463.06 194.073,461.884 195.247,460.111 C 195.249,380.471 207.642,314.992 233.007,262.487 Z"
           inkscape:connector-curvature="0" /></g><g
         id="g4150"><path
           id="path4148"
           d="M 271.939,202.907 C 273.712,209.987 276.663,215.886 279.613,222.374 283.15,215.886 285.512,209.987 287.281,202.907 290.232,189.928 288.463,183.441 279.613,183.441 271.353,183.442 268.99,189.929 271.939,202.907 Z"
           inkscape:connector-curvature="0"
           style="fill:#ffe700" /></g><g
         id="g4154"><path
           id="path4152"
           d="M 279.612,181.079 C 274.888,181.079 271.938,182.848 270.171,186.392 267.815,190.522 267.815,197.596 270.763,207.626 272.533,213.525 274.889,218.837 277.837,223.555 277.837,224.736 278.43,224.736 279.61,224.736 L 281.38,223.555 288.461,207.626 C 291.997,197.595 291.997,190.521 289.637,186.392 287.28,182.848 283.738,181.079 279.612,181.079 Z M 285.513,188.159 286.688,194.058 C 286.688,199.371 283.738,207.037 279.613,217.068 274.889,207.037 272.533,199.371 272.533,194.058 L 274.303,188.159 C 274.89,186.978 277.254,186.391 279.615,186.391 282.563,186.392 284.33,186.979 285.513,188.159 Z"
           inkscape:connector-curvature="0" /></g><g
         id="g4158"><path
           id="path4156"
           d="M 143.931,466.603 C 149.238,470.735 155.73,473.683 162.216,476.04 160.448,468.96 158.679,462.473 155.135,456.573 148.648,444.775 142.75,441.827 136.258,447.136 129.771,453.036 132.72,459.521 143.931,466.603 Z"
           inkscape:connector-curvature="0"
           style="fill:#ffe700" /></g><g
         id="g4162"><path
           id="path4160"
           d="M 134.489,445.362 C 131.539,448.311 130.358,451.853 130.951,455.984 132.132,463.059 142.75,470.733 161.627,478.399 L 163.984,477.807 165.165,475.451 C 159.265,455.984 152.186,444.774 144.518,442.412 141.57,441.236 138.032,442.412 134.489,445.362 Z M 143.931,447.136 C 146.881,448.312 149.831,451.261 152.78,457.161 L 158.679,471.909 C 144.518,466.011 136.258,460.111 135.67,454.804 V 454.213 C 135.67,451.855 136.257,450.674 138.031,448.905 139.801,447.136 141.57,446.544 143.931,447.136 Z"
           inkscape:connector-curvature="0" /></g><g
         id="g4166"><path
           id="path4164"
           d="M 281.97,222.374 C 281.97,220.605 280.787,220.605 279.613,220.605 277.839,220.605 277.253,220.605 277.253,222.374 271.94,301.425 269.583,390.501 269.583,489.018 L 270.764,563.346 C 248.343,547.424 224.16,527.95 197.613,504.354 L 163.987,474.859 161.037,474.271 C 160.449,474.859 159.855,476.632 160.449,477.808 L 191.715,514.978 C 218.26,544.473 247.167,570.427 277.839,592.255 L 279.022,593.435 H 280.203 L 281.383,592.255 C 312.648,570.427 341.556,544.474 368.104,514.978 L 398.774,477.808 C 399.368,476.038 399.368,474.858 398.774,474.271 L 395.238,474.859 361.61,504.354 C 335.064,527.95 310.88,547.424 289.051,563.346 L 289.641,489.018 C 289.638,390.501 286.688,301.425 281.97,222.374 Z M 274.302,569.839 275.482,567.475 274.889,489.017 C 274.889,418.815 276.663,345.669 279.614,268.978 283.151,345.669 284.331,418.815 284.331,489.017 L 283.74,567.475 285.513,569.839 H 287.282 C 312.061,552.142 342.143,528.544 376.952,497.865 347.456,532.674 315.011,562.169 280.203,588.124 244.22,562.171 211.774,532.081 182.866,497.865 215.311,526.775 244.807,550.96 271.942,569.839 Z"
           inkscape:connector-curvature="0" /></g><g
         id="g4170"><path
           id="path4168"
           d="M 256.017,216.474 C 254.243,216.474 254.243,217.655 254.243,219.424 L 259.556,229.454 C 263.688,237.122 269.586,244.201 276.666,251.282 277.84,252.462 279.022,252.462 280.203,251.282 280.79,250.101 280.79,248.92 280.203,247.74 273.715,241.253 267.816,234.173 263.093,227.093 L 258.967,217.657 C 258.373,215.886 257.192,215.886 256.017,216.474 Z"
           inkscape:connector-curvature="0" /></g><g
         id="g4174"><path
           id="path4172"
           d="M 242.443,235.353 C 240.673,236.534 240.087,237.122 241.266,238.891 L 251.885,256.001 C 260.14,268.388 267.814,278.416 274.888,285.497 L 278.431,284.909 C 279.612,283.728 279.612,282.548 277.837,281.959 271.352,274.879 263.09,265.437 255.422,253.051 L 245.392,236.533 C 244.805,235.353 243.624,234.766 242.443,235.353 Z"
           inkscape:connector-curvature="0" /></g><g
         id="g4178"><path
           id="path4176"
           d="M 231.239,261.899 C 230.646,260.13 230.058,259.538 228.29,260.718 227.107,261.899 227.107,262.488 227.695,264.261 L 239.494,280.778 C 250.117,294.345 261.323,306.142 274.303,317.353 L 277.253,316.759 C 277.839,315.578 277.839,314.991 277.253,313.223 264.864,302.607 253.655,290.808 243.038,277.828 Z"
           inkscape:connector-curvature="0" /></g><g
         id="g4182"><path
           id="path4180"
           d="M 237.724,312.629 219.441,289.626 216.49,289.033 C 215.309,290.215 215.309,291.396 215.897,292.576 L 234.189,315.579 C 248.342,332.689 261.322,345.669 272.533,354.517 274.304,355.698 275.483,355.105 276.072,353.923 277.253,353.336 277.253,351.569 275.481,350.388 264.271,342.127 251.292,329.74 237.724,312.629 Z"
           inkscape:connector-curvature="0" /></g><g
         id="g4186"><path
           id="path4184"
           d="M 207.048,317.942 C 206.461,319.123 205.873,320.303 207.048,321.478 L 224.745,345.075 C 240.087,362.773 256.016,378.114 271.939,390.501 L 274.888,389.912 C 276.072,388.731 276.072,388.143 274.888,386.368 258.965,374.57 243.625,359.823 228.29,342.125 L 210.592,318.527 Z"
           inkscape:connector-curvature="0" /></g><g
         id="g4190"><path
           id="path4188"
           d="M 199.975,349.8 C 198.793,350.389 198.793,351.57 199.975,352.75 L 222.978,379.295 C 241.27,398.764 257.193,414.1 271.354,425.309 H 274.889 C 275.482,424.129 275.482,422.948 274.302,421.766 260.143,409.968 244.217,394.632 226.522,375.752 L 203.511,349.801 Z"
           inkscape:connector-curvature="0" /></g><g
         id="g4194"><path
           id="path4192"
           d="M 195.844,375.752 C 194.662,376.935 194.662,377.523 195.249,379.295 L 217.672,406.431 C 235.957,427.077 253.654,444.187 271.353,455.987 H 274.303 C 274.889,454.214 274.889,453.037 273.713,452.445 256.604,440.056 239.494,424.13 221.209,403.481 L 199.38,376.348 C 198.199,374.571 197.024,374.571 195.844,375.752 Z"
           inkscape:connector-curvature="0" /></g><g
         id="g4198"><path
           id="path4196"
           d="M 192.894,404.662 C 191.713,405.248 191.713,406.431 192.301,407.611 L 217.673,438.875 C 236.545,460.11 254.244,475.451 271.354,485.481 272.535,486.069 273.714,485.481 274.303,484.299 274.891,483.118 274.891,481.938 273.714,480.755 257.193,471.907 239.495,455.985 220.621,434.744 L 195.845,405.247 C 195.249,403.479 194.662,403.479 192.894,404.662 Z"
           inkscape:connector-curvature="0" /></g><g
         id="g4202"><path
           id="path4200"
           d="M 191.125,438.875 C 189.352,439.464 189.352,441.236 190.532,441.827 L 212.947,470.734 C 232.42,491.381 251.292,507.303 271.352,517.928 272.532,519.103 274.302,519.103 274.888,517.334 274.888,516.153 274.888,514.979 273.712,513.797 254.241,503.18 235.368,487.25 216.489,467.192 L 194.661,439.464 C 194.074,438.287 192.299,437.694 191.125,438.875 Z"
           inkscape:connector-curvature="0" /></g><g
         id="g4206"><path
           id="path4204"
           d="M 304.979,219.424 C 304.979,217.655 304.979,216.474 303.799,216.474 H 301.436 L 300.847,217.655 C 296.717,227.685 289.637,237.714 279.613,247.738 278.432,248.332 278.432,250.1 279.613,251.28 280.788,252.46 281.382,252.46 282.563,251.28 293.18,240.666 301.436,230.041 304.979,219.424 Z"
           inkscape:connector-curvature="0" /></g><g
         id="g4210"><path
           id="path4208"
           d="M 317.958,238.891 C 319.134,237.121 318.545,236.534 316.776,235.353 315.595,234.766 314.416,235.353 313.825,236.534 303.208,256.001 292.586,271.337 280.787,281.959 279.612,282.547 279.612,283.728 280.787,284.908 L 283.738,285.497 C 295.536,274.286 307.335,258.95 317.958,238.891 Z"
           inkscape:connector-curvature="0" /></g><g
         id="g4214"><path
           id="path4212"
           d="M 327.982,261.899 316.184,277.829 C 306.159,290.808 294.949,302.607 282.562,313.224 280.789,314.994 280.789,315.579 281.969,316.76 L 285.512,317.354 C 305.567,299.658 321.494,281.959 331.525,264.262 332.707,262.487 332.707,261.899 330.933,260.719 329.756,259.538 327.982,260.13 327.982,261.899 Z"
           inkscape:connector-curvature="0" /></g><g
         id="g4218"><path
           id="path4216"
           d="M 325.033,315.579 343.323,292.576 C 344.505,291.396 344.505,290.215 342.728,289.033 L 339.78,289.626 C 320.314,316.173 301.435,336.821 283.738,350.387 282.562,351.568 282.562,353.336 283.15,353.923 L 286.687,354.517 C 297.899,345.669 310.284,332.689 325.033,315.579 Z"
           inkscape:connector-curvature="0" /></g><g
         id="g4222"><path
           id="path4220"
           d="M 348.63,318.527 330.932,342.125 C 315.597,359.823 300.261,374.57 284.33,386.368 283.15,388.143 283.15,388.731 283.739,389.912 284.92,391.682 286.101,391.682 287.281,390.501 303.8,378.114 319.135,362.773 334.476,345.075 L 352.173,321.478 C 353.354,320.303 353.354,319.123 351.58,317.942 350.403,317.354 349.222,317.354 348.63,318.527 Z"
           inkscape:connector-curvature="0" /></g><g
         id="g4226"><path
           id="path4224"
           d="M 359.84,352.75 C 360.427,351.569 360.427,350.389 359.251,349.8 H 355.708 C 330.931,379.884 307.334,403.48 284.918,421.765 283.737,422.947 283.737,424.128 284.328,425.308 H 287.868 C 310.284,407.017 334.475,382.833 359.84,352.75 Z"
           inkscape:connector-curvature="0" /></g><g
         id="g4230"><path
           id="path4228"
           d="M 285.513,452.443 C 283.739,453.036 283.739,454.213 284.919,455.986 H 288.462 C 305.567,444.187 323.858,427.077 341.554,406.43 L 363.379,379.294 C 364.559,377.522 364.559,376.934 363.379,375.751 L 359.841,376.346 338.012,403.479 C 319.727,424.128 302.616,440.056 285.513,452.443 Z"
           inkscape:connector-curvature="0" /></g><g
         id="g4234"><path
           id="path4232"
           d="M 286.101,480.756 C 284.33,481.939 283.739,483.119 284.919,484.3 285.513,485.482 286.69,486.07 288.462,485.482 304.979,475.452 322.677,460.111 342.142,438.876 L 366.92,407.612 C 368.101,406.431 367.508,405.249 366.326,404.663 365.151,403.48 363.971,403.48 363.377,405.249 L 339.191,434.746 C 319.727,455.986 302.028,471.908 286.101,480.756 Z"
           inkscape:connector-curvature="0" /></g><g
         id="g4238"><path
           id="path4236"
           d="M 285.513,513.796 C 284.33,514.978 283.739,516.152 284.33,517.333 285.513,519.103 286.687,519.103 287.868,517.927 307.335,507.302 327.393,491.38 345.681,470.733 L 368.689,441.825 C 369.277,441.235 369.277,439.463 368.101,438.874 366.327,437.693 365.74,438.286 365.151,439.463 L 342.728,467.19 C 323.857,487.249 304.979,503.179 285.513,513.796 Z"
           inkscape:connector-curvature="0" /></g><g
         id="g4242"><path
           id="path4240"
           d="M 181.095,455.986 C 179.914,455.986 179.327,457.161 179.327,458.935 L 179.914,494.33 C 179.914,496.1 181.095,497.28 182.865,497.28 184.046,497.28 185.227,496.099 185.227,494.33 L 184.045,457.754 C 183.452,456.572 182.864,455.986 181.095,455.986 Z"
           inkscape:connector-curvature="0" /></g><g
         id="g4246"><path
           id="path4244"
           d="M 207.642,458.935 C 206.461,458.935 205.872,460.111 205.872,461.29 L 207.047,480.756 C 207.047,495.505 207.047,507.303 205.872,516.745 205.872,518.515 207.047,519.102 208.228,519.102 209.996,519.695 210.59,519.102 210.59,517.332 211.771,507.301 211.771,495.503 211.771,480.755 L 210.59,460.703 C 209.996,459.521 209.41,458.935 207.642,458.935 Z"
           inkscape:connector-curvature="0" /></g><g
         id="g4250"><path
           id="path4248"
           d="M 234.775,486.657 232.42,483.705 C 231.239,483.705 230.647,484.299 230.647,484.888 L 230.059,486.658 228.29,535.625 C 228.29,536.8 228.876,537.982 230.645,537.982 L 233.594,536.211 Z"
           inkscape:connector-curvature="0" /></g><g
         id="g4254"><path
           id="path4252"
           d="M 253.065,551.548 V 501.404 C 253.065,500.229 251.885,499.049 250.705,499.049 248.935,499.049 248.342,500.23 248.342,501.999 V 550.961 C 248.342,552.143 248.342,553.323 250.116,553.323 251.886,553.322 253.065,552.729 253.065,551.548 Z"
           inkscape:connector-curvature="0" /></g><g
         id="g4258"><path
           id="path4256"
           d="M 178.146,498.454 C 179.914,498.454 180.502,497.865 180.502,496.099 180.502,494.917 179.914,494.33 178.146,494.33 L 145.701,491.38 C 143.932,491.38 142.751,491.38 142.751,493.15 V 494.918 L 144.52,495.506 154.549,497.28 Z"
           inkscape:connector-curvature="0" /></g><g
         id="g4262"><path
           id="path4260"
           d="M 200.561,519.103 147.469,516.153 C 145.7,516.153 145.107,516.745 145.107,517.927 144.52,519.696 145.701,520.877 147.469,520.877 L 200.561,523.826 C 201.742,523.826 202.924,523.233 202.924,522.053 202.924,520.283 201.741,519.103 200.561,519.103 Z"
           inkscape:connector-curvature="0" /></g><g
         id="g4266"><path
           id="path4264"
           d="M 221.209,544.474 224.158,542.7 C 224.158,540.931 222.977,539.75 221.797,539.75 L 151.6,538.575 C 152.781,538.575 153.37,539.75 153.37,540.931 153.37,542.7 152.782,543.292 151.6,543.292 Z"
           inkscape:connector-curvature="0" /></g><g
         id="g4270"><path
           id="path4268"
           d="M 153.955,565.119 C 153.955,566.294 154.548,567.474 156.318,567.474 L 189.35,569.245 C 213.54,569.839 233.594,569.839 247.755,568.069 248.936,568.069 250.116,567.475 250.116,565.709 250.116,563.939 248.935,563.346 247.165,563.346 233.006,564.527 213.54,565.119 189.349,563.94 L 156.316,562.759 C 154.548,562.759 153.955,563.346 153.955,565.119 Z"
           inkscape:connector-curvature="0" /></g><g
         id="g4274"><path
           id="path4272"
           d="M 307.335,500.817 306.159,520.877 C 304.978,534.443 304.978,545.647 305.567,552.142 305.567,553.91 306.747,554.497 307.927,554.497 309.697,554.497 310.283,553.322 310.283,551.547 309.695,545.06 309.695,534.443 310.283,520.877 L 312.058,501.403 C 312.058,499.633 311.464,498.453 310.283,498.453 307.928,498.454 307.335,499.049 307.335,500.817 Z"
           inkscape:connector-curvature="0" /></g><g
         id="g4278"><path
           id="path4276"
           d="M 330.932,535.624 329.757,486.068 C 329.757,484.298 328.576,483.705 327.395,483.705 325.626,483.705 325.035,484.299 325.035,485.48 L 325.627,536.21 328.577,537.981 C 330.344,537.981 330.932,536.799 330.932,535.624 Z"
           inkscape:connector-curvature="0" /></g><g
         id="g4282"><path
           id="path4280"
           d="M 346.272,463.653 345.681,519.695 C 345.681,520.877 346.861,522.05 348.63,522.05 349.81,522.05 350.99,520.876 350.99,519.101 L 351.58,463.652 C 351.58,461.882 350.404,461.289 348.63,461.289 347.454,461.29 346.272,461.885 346.272,463.653 Z"
           inkscape:connector-curvature="0" /></g><g
         id="g4286"><path
           id="path4284"
           d="M 345.681,531.493 C 345.091,532.674 345.681,533.848 346.861,534.443 L 366.327,545.647 C 367.509,546.241 368.689,545.647 369.277,543.879 369.87,542.697 369.277,541.523 368.689,540.929 L 349.222,530.899 C 348.041,529.726 346.272,529.726 345.681,531.493 Z"
           inkscape:connector-curvature="0" /></g><g
         id="g4290"><path
           id="path4288"
           d="M 327.982,549.191 C 327.393,550.373 327.393,551.547 328.575,552.142 L 340.372,558.041 C 349.809,561.577 358.658,563.939 366.92,565.709 L 369.274,563.939 C 369.868,562.169 369.274,560.989 367.506,560.989 359.838,559.807 351.576,557.446 342.14,553.321 L 330.928,548.597 C 329.756,547.424 328.575,547.424 327.982,549.191 Z"
           inkscape:connector-curvature="0" /></g><g
         id="g4294"><path
           id="path4292"
           d="M 308.517,566.295 C 307.335,567.476 307.927,568.069 309.697,569.246 L 325.034,576.919 C 338.012,582.226 351.579,586.356 366.327,590.487 368.101,590.487 369.277,590.487 369.277,589.305 369.87,587.536 369.277,586.355 368.102,586.355 353.354,582.224 339.782,578.094 326.807,572.195 L 311.466,565.121 C 310.284,563.939 309.696,564.526 308.517,566.295 Z"
           inkscape:connector-curvature="0" /></g></g><rect
       ry="30"
       rx="30"
       y="1"
       x="1"
       height="585"
       width="370"
       id="rect12023-5-0"
       style="color:#000000;clip-rule:nonzero;display:inline;overflow:visible;visibility:visible;opacity:1;isolation:auto;mix-blend-mode:normal;color-interpolation:sRGB;color-interpolation-filters:linearRGB;solid-color:#000000;solid-opacity:1;vector-effect:none;fill:none;fill-opacity:1;fill-rule:nonzero;stroke:#000000;stroke-width:10;stroke-linecap:butt;stroke-linejoin:miter;stroke-miterlimit:4;stroke-dasharray:none;stroke-dashoffset:0;stroke-opacity:1;color-rendering:auto;image-rendering:auto;shape-rendering:auto;text-rendering:auto;enable-background:accumulate" /><rect
       ry="30"
       rx="30"
       y="1"
       x="1"
       height="585"
       width="370"
       id="rect12023-5-3"
       style="color:#000000;clip-rule:nonzero;display:inline;overflow:visible;visibility:visible;opacity:1;isolation:auto;mix-blend-mode:normal;color-interpolation:sRGB;color-interpolation-filters:linearRGB;solid-color:#000000;solid-opacity:1;vector-effect:none;fill:#d2f3f4;fill-opacity:0;fill-rule:nonzero;stroke:none;stroke-width:1.50000012;stroke-linecap:butt;stroke-linejoin:miter;stroke-miterlimit:4;stroke-dasharray:none;stroke-dashoffset:0;stroke-opacity:1;color-rendering:auto;image-rendering:auto;shape-rendering:auto;text-rendering:auto;enable-background:accumulate" /></g></svg>